<svg id="ico" xmlns="http://www.w3.org/2000/svg" xmlns:xlink="http://www.w3.org/1999/xlink" width="366" height="101" fill="none" xmlns:v="https://vecta.io/nano"><g clip-path="url(#A)" fill="#d8d8d8"><path d="M179 0v2.971h-3V0h3zm-11 0v2.971h-3V0h3zm-11 0v2.971h-3V0h3zm-11 0v2.971h-3V0h3zm-11 0v2.971h-3V0h3zm-11 0v2.971h-3V0h3zm-11 0v2.971h-3V0h3zm-11 0v2.971h-3V0h3zM91 0v2.971h-3V0h3zM80 0v2.971h-3V0h3zM69 0v2.971h-3V0h3zM58 0v2.971h-3V0h3zM47 0v2.971h-3V0h3zM36 0v2.971h-3V0h3zM25 0v2.971h-3V0h3zM14 0v2.971h-3V0h3zM3 0v2.971H0V0h3z"/><use xlink:href="#B"/><path d="M168 10.893v2.971h-3v-2.971h3zm-11 0v2.971h-3v-2.971h3zm-11 0v2.971h-3v-2.971h3zm-11 0v2.971h-3v-2.971h3zm-11 0v2.971h-3v-2.971h3zm-11 0v2.971h-3v-2.971h3zm-11 0v2.971h-3v-2.971h3zm-11 0v2.971h-3v-2.971h3zm-11 0v2.971h-3v-2.971h3zm-11 0v2.971h-3v-2.971h3zm-11 0v2.971h-3v-2.971h3zm-11 0v2.971h-3v-2.971h3zm-11 0v2.971h-3v-2.971h3zm-11 0v2.971h-3v-2.971h3zm-11 0v2.971h-3v-2.971h3zm-11 0v2.971H0v-2.971h3zm176 10.893v2.971h-3v-2.971h3zm-11 0v2.971h-3v-2.971h3zm-11 0v2.971h-3v-2.971h3zm-11 0v2.971h-3v-2.971h3zm-11 0v2.971h-3v-2.971h3zm-11 0v2.971h-3v-2.971h3zm-11 0v2.971h-3v-2.971h3zm-11 0v2.971h-3v-2.971h3zm-11 0v2.971h-3v-2.971h3zm-11 0v2.971h-3v-2.971h3zm-11 0v2.971h-3v-2.971h3zm-11 0v2.971h-3v-2.971h3zm-11 0v2.971h-3v-2.971h3zm-11 0v2.971h-3v-2.971h3zm-11 0v2.971h-3v-2.971h3zm-11 0v2.971h-3v-2.971h3zm-11 0v2.971H0v-2.971h3z"/><use xlink:href="#C"/><path d="M168 32.68v2.971h-3V32.68h3zm-11 0v2.971h-3V32.68h3zm-11 0v2.971h-3V32.68h3zm-11 0v2.971h-3V32.68h3zm-11 0v2.971h-3V32.68h3zm-11 0v2.971h-3V32.68h3zm-11 0v2.971h-3V32.68h3zm-11 0v2.971h-3V32.68h3zm-11 0v2.971h-3V32.68h3zm-11 0v2.971h-3V32.68h3zm-11 0v2.971h-3V32.68h3zm-11 0v2.971h-3V32.68h3zm-11 0v2.971h-3V32.68h3zm-11 0v2.971h-3V32.68h3zm-11 0v2.971h-3V32.68h3zm-11 0v2.971H0V32.68h3zm176 10.893v2.971h-3v-2.971h3zm-11 0v2.971h-3v-2.971h3zm-11 0v2.971h-3v-2.971h3zm-11 0v2.971h-3v-2.971h3zm-11 0v2.971h-3v-2.971h3zm-11 0v2.971h-3v-2.971h3zm-11 0v2.971h-3v-2.971h3zm-11 0v2.971h-3v-2.971h3zm-11 0v2.971h-3v-2.971h3zm-11 0v2.971h-3v-2.971h3zm-11 0v2.971h-3v-2.971h3zm-11 0v2.971h-3v-2.971h3zm-11 0v2.971h-3v-2.971h3zm-11 0v2.971h-3v-2.971h3zm-11 0v2.971h-3v-2.971h3zm-11 0v2.971h-3v-2.971h3zm-11 0v2.971H0v-2.971h3zm176 10.893v2.971h-3v-2.971h3zm-11 0v2.971h-3v-2.971h3zm-11 0v2.971h-3v-2.971h3zm-11 0v2.971h-3v-2.971h3zm-11 0v2.971h-3v-2.971h3zm-11 0v2.971h-3v-2.971h3zm-11 0v2.971h-3v-2.971h3zm-11 0v2.971h-3v-2.971h3zm-11 0v2.971h-3v-2.971h3zm-11 0v2.971h-3v-2.971h3zm-11 0v2.971h-3v-2.971h3zm-11 0v2.971h-3v-2.971h3zm-11 0v2.971h-3v-2.971h3zm-11 0v2.971h-3v-2.971h3zm-11 0v2.971h-3v-2.971h3zm-11 0v2.971h-3v-2.971h3zm-11 0v2.971H0v-2.971h3zm176 10.893v2.971h-3v-2.971h3zm-11 0v2.971h-3v-2.971h3zm-11 0v2.971h-3v-2.971h3zm-11 0v2.971h-3v-2.971h3zm-11 0v2.971h-3v-2.971h3zm-11 0v2.971h-3v-2.971h3zm-11 0v2.971h-3v-2.971h3zm-11 0v2.971h-3v-2.971h3zm-11 0v2.971h-3v-2.971h3zm-11 0v2.971h-3v-2.971h3zm-11 0v2.971h-3v-2.971h3zm-11 0v2.971h-3v-2.971h3zm-11 0v2.971h-3v-2.971h3zm-11 0v2.971h-3v-2.971h3zm-11 0v2.971h-3v-2.971h3zm-11 0v2.971h-3v-2.971h3zm-11 0v2.971H0v-2.971h3zm176 10.893v2.971h-3v-2.971h3zm-11 0v2.971h-3v-2.971h3zm-11 0v2.971h-3v-2.971h3zm-11 0v2.971h-3v-2.971h3zm-11 0v2.971h-3v-2.971h3zm-11 0v2.971h-3v-2.971h3zm-11 0v2.971h-3v-2.971h3zm-11 0v2.971h-3v-2.971h3zm-11 0v2.971h-3v-2.971h3zm-11 0v2.971h-3v-2.971h3zm-11 0v2.971h-3v-2.971h3zm-11 0v2.971h-3v-2.971h3zm-11 0v2.971h-3v-2.971h3zm-11 0v2.971h-3v-2.971h3zm-11 0v2.971h-3v-2.971h3zm-11 0v2.971h-3v-2.971h3zm-11 0v2.971H0v-2.971h3zm176 10.894v2.971h-3v-2.971h3zm-11 0v2.971h-3v-2.971h3zm-11 0v2.971h-3v-2.971h3zm-11 0v2.971h-3v-2.971h3zm-11 0v2.971h-3v-2.971h3zm-11 0v2.971h-3v-2.971h3zm-11 0v2.971h-3v-2.971h3zm-11 0v2.971h-3v-2.971h3zm-11 0v2.971h-3v-2.971h3zm-11 0v2.971h-3v-2.971h3zm-11 0v2.971h-3v-2.971h3zm-11 0v2.971h-3v-2.971h3zm-11 0v2.971h-3v-2.971h3zm-11 0v2.971h-3v-2.971h3zm-11 0v2.971h-3v-2.971h3zm-11 0v2.971h-3v-2.971h3zm-11 0v2.971H0v-2.971h3zm176 10.893v2.971h-3v-2.971h3zm-11 0v2.971h-3v-2.971h3zm-11 0v2.971h-3v-2.971h3zm-11 0v2.971h-3v-2.971h3zm-11 0v2.971h-3v-2.971h3zm-11 0v2.971h-3v-2.971h3zm-11 0v2.971h-3v-2.971h3zm-11 0v2.971h-3v-2.971h3zm-11 0v2.971h-3v-2.971h3zm-11 0v2.971h-3v-2.971h3zm-11 0v2.971h-3v-2.971h3zm-11 0v2.971h-3v-2.971h3zm-11 0v2.971h-3v-2.971h3zm-11 0v2.971h-3v-2.971h3zm-11 0v2.971h-3v-2.971h3zm-11 0v2.971h-3v-2.971h3zm-11 0v2.971H0v-2.971h3zM366 0v2.971h-3V0h3zm-11 0v2.971h-3V0h3zm-11 0v2.971h-3V0h3zm-11 0v2.971h-3V0h3zm-11 0v2.971h-3V0h3zm-11 0v2.971h-3V0h3zm-11 0v2.971h-3V0h3zm-11 0v2.971h-3V0h3zm-11 0v2.971h-3V0h3zm-11 0v2.971h-3V0h3zm-11 0v2.971h-3V0h3zm-11 0v2.971h-3V0h3zm-11 0v2.971h-3V0h3zm-11 0v2.971h-3V0h3zm-11 0v2.971h-3V0h3zm-11 0v2.971h-3V0h3zm-11 0v2.971h-3V0h3zm176 10.893v2.971h-3v-2.971h3zm-11 0v2.971h-3v-2.971h3zm-11 0v2.971h-3v-2.971h3zm-11 0v2.971h-3v-2.971h3zm-11 0v2.971h-3v-2.971h3zm-11 0v2.971h-3v-2.971h3zm-11 0v2.971h-3v-2.971h3zm-11 0v2.971h-3v-2.971h3zm-11 0v2.971h-3v-2.971h3zm-11 0v2.971h-3v-2.971h3zm-11 0v2.971h-3v-2.971h3zm-11 0v2.971h-3v-2.971h3zm-11 0v2.971h-3v-2.971h3zm-11 0v2.971h-3v-2.971h3zm-11 0v2.971h-3v-2.971h3zm-11 0v2.971h-3v-2.971h3zm-11 0v2.971h-3v-2.971h3zm176 10.893v2.971h-3v-2.971h3zm-11 0v2.971h-3v-2.971h3zm-11 0v2.971h-3v-2.971h3zm-11 0v2.971h-3v-2.971h3zm-11 0v2.971h-3v-2.971h3zm-11 0v2.971h-3v-2.971h3zm-11 0v2.971h-3v-2.971h3zm-11 0v2.971h-3v-2.971h3zm-11 0v2.971h-3v-2.971h3zm-11 0v2.971h-3v-2.971h3zm-11 0v2.971h-3v-2.971h3zm-11 0v2.971h-3v-2.971h3zm-11 0v2.971h-3v-2.971h3zm-11 0v2.971h-3v-2.971h3zm-11 0v2.971h-3v-2.971h3zm-11 0v2.971h-3v-2.971h3zm-11 0v2.971h-3v-2.971h3zM366 32.68v2.971h-3V32.68h3zm-11 0v2.971h-3V32.68h3zm-11 0v2.971h-3V32.68h3zm-11 0v2.971h-3V32.68h3zm-11 0v2.971h-3V32.68h3zm-11 0v2.971h-3V32.68h3zm-11 0v2.971h-3V32.68h3zm-11 0v2.971h-3V32.68h3zm-11 0v2.971h-3V32.68h3zm-11 0v2.971h-3V32.68h3zm-11 0v2.971h-3V32.68h3zm-11 0v2.971h-3V32.68h3zm-11 0v2.971h-3V32.68h3zm-11 0v2.971h-3V32.68h3zm-11 0v2.971h-3V32.68h3zm-11 0v2.971h-3V32.68h3zm-11 0v2.971h-3V32.68h3zm176 10.893v2.971h-3v-2.971h3zm-11 0v2.971h-3v-2.971h3zm-11 0v2.971h-3v-2.971h3zm-11 0v2.971h-3v-2.971h3zm-11 0v2.971h-3v-2.971h3zm-11 0v2.971h-3v-2.971h3zm-11 0v2.971h-3v-2.971h3zm-11 0v2.971h-3v-2.971h3zm-11 0v2.971h-3v-2.971h3zm-11 0v2.971h-3v-2.971h3zm-11 0v2.971h-3v-2.971h3zm-11 0v2.971h-3v-2.971h3zm-11 0v2.971h-3v-2.971h3zm-11 0v2.971h-3v-2.971h3zm-11 0v2.971h-3v-2.971h3zm-11 0v2.971h-3v-2.971h3zm-11 0v2.971h-3v-2.971h3zm176 10.893v2.971h-3v-2.971h3zm-11 0v2.971h-3v-2.971h3zm-11 0v2.971h-3v-2.971h3zm-11 0v2.971h-3v-2.971h3zm-11 0v2.971h-3v-2.971h3zm-11 0v2.971h-3v-2.971h3zm-11 0v2.971h-3v-2.971h3zm-11 0v2.971h-3v-2.971h3zm-11 0v2.971h-3v-2.971h3zm-11 0v2.971h-3v-2.971h3zm-11 0v2.971h-3v-2.971h3zm-11 0v2.971h-3v-2.971h3zm-11 0v2.971h-3v-2.971h3zm-11 0v2.971h-3v-2.971h3zm-11 0v2.971h-3v-2.971h3zm-11 0v2.971h-3v-2.971h3zm-11 0v2.971h-3v-2.971h3zm176 10.893v2.971h-3v-2.971h3zm-11 0v2.971h-3v-2.971h3zm-11 0v2.971h-3v-2.971h3zm-11 0v2.971h-3v-2.971h3zm-11 0v2.971h-3v-2.971h3zm-11 0v2.971h-3v-2.971h3zm-11 0v2.971h-3v-2.971h3zm-11 0v2.971h-3v-2.971h3zm-11 0v2.971h-3v-2.971h3zm-11 0v2.971h-3v-2.971h3zm-11 0v2.971h-3v-2.971h3zm-11 0v2.971h-3v-2.971h3zm-11 0v2.971h-3v-2.971h3zm-11 0v2.971h-3v-2.971h3zm-11 0v2.971h-3v-2.971h3zm-11 0v2.971h-3v-2.971h3zm-11 0v2.971h-3v-2.971h3zm176 10.893v2.971h-3v-2.971h3zm-11 0v2.971h-3v-2.971h3zm-11 0v2.971h-3v-2.971h3zm-11 0v2.971h-3v-2.971h3zm-11 0v2.971h-3v-2.971h3zm-11 0v2.971h-3v-2.971h3zm-11 0v2.971h-3v-2.971h3zm-11 0v2.971h-3v-2.971h3zm-11 0v2.971h-3v-2.971h3zm-11 0v2.971h-3v-2.971h3zm-11 0v2.971h-3v-2.971h3zm-11 0v2.971h-3v-2.971h3zm-11 0v2.971h-3v-2.971h3zm-11 0v2.971h-3v-2.971h3zm-11 0v2.971h-3v-2.971h3zm-11 0v2.971h-3v-2.971h3zm-11 0v2.971h-3v-2.971h3zm176 10.894v2.971h-3v-2.971h3zm-11 0v2.971h-3v-2.971h3zm-11 0v2.971h-3v-2.971h3zm-11 0v2.971h-3v-2.971h3zm-11 0v2.971h-3v-2.971h3zm-11 0v2.971h-3v-2.971h3zm-11 0v2.971h-3v-2.971h3zm-11 0v2.971h-3v-2.971h3zm-11 0v2.971h-3v-2.971h3zm-11 0v2.971h-3v-2.971h3zm-11 0v2.971h-3v-2.971h3zm-11 0v2.971h-3v-2.971h3zm-11 0v2.971h-3v-2.971h3zm-11 0v2.971h-3v-2.971h3zm-11 0v2.971h-3v-2.971h3zm-11 0v2.971h-3v-2.971h3zm-11 0v2.971h-3v-2.971h3zm176 10.893v2.971h-3v-2.971h3zm-11 0v2.971h-3v-2.971h3zm-11 0v2.971h-3v-2.971h3zm-11 0v2.971h-3v-2.971h3zm-11 0v2.971h-3v-2.971h3zm-11 0v2.971h-3v-2.971h3zm-11 0v2.971h-3v-2.971h3zm-11 0v2.971h-3v-2.971h3zm-11 0v2.971h-3v-2.971h3zm-11 0v2.971h-3v-2.971h3zm-11 0v2.971h-3v-2.971h3zm-11 0v2.971h-3v-2.971h3zm-11 0v2.971h-3v-2.971h3zm-11 0v2.971h-3v-2.971h3zm-11 0v2.971h-3v-2.971h3zm-11 0v2.971h-3v-2.971h3zm-11 0v2.971h-3v-2.971h3z"/></g><defs><clipPath id="A"><path fill="#fff" d="M0 0h366v101H0z"/></clipPath><path id="B" d="M179 10.893v2.971h-3v-2.971h3z"/><path id="C" d="M179 32.68v2.971h-3V32.68h3z"/></defs></svg>