<svg id="ico" xmlns="http://www.w3.org/2000/svg" viewBox="0 0 122 41" xmlns:v="https://vecta.io/nano"><path d="M69.073 36c2.7 0 5.053-.859 7.06-2.579s3.245-3.919 3.713-6.601c.468-2.646-.036-4.928-1.512-6.844s-3.456-2.875-5.94-2.875h0-7.506L61.567 36h7.506zm.405-3.564h-3.564l2.079-11.772h3.78c1.638 0 2.871.531 3.699 1.593s1.098 2.457.81 4.185c-.306 1.764-1.084 3.204-2.335 4.32s-2.74 1.674-4.469 1.674h0zm15.66-11.556c.594 0 1.134-.207 1.62-.621s.783-.918.891-1.512c.09-.576-.041-1.08-.392-1.512s-.823-.648-1.417-.648-1.134.211-1.62.634-.774.931-.864 1.526c-.09.576.036 1.075.378 1.499s.81.634 1.404.634zM84.193 36l2.376-13.5h-3.483L80.71 36h3.483zm9.18.378c1.854 0 3.366-.558 4.536-1.674h0L97.693 36h3.483l3.321-18.9h-3.483l-1.269 7.263c-.864-1.494-2.268-2.241-4.212-2.241s-3.614.652-5.008 1.957-2.264 2.921-2.606 4.847c-.378 1.98-.072 3.717.918 5.211s2.502 2.241 4.536 2.241zm1.107-3.321c-1.08 0-1.912-.356-2.497-1.067s-.778-1.633-.581-2.767c.198-1.17.711-2.093 1.539-2.767a4.36 4.36 0 0 1 2.835-1.013c1.08 0 1.917.347 2.511 1.04s.783 1.624.567 2.794c-.18 1.116-.68 2.025-1.498 2.727a4.28 4.28 0 0 1-2.876 1.053z"/><path d="M108.763 20.88c.594 0 1.134-.207 1.62-.621s.783-.918.891-1.512c.09-.576-.041-1.08-.392-1.512s-.823-.648-1.417-.648-1.134.211-1.62.634-.774.931-.864 1.526c-.09.576.036 1.075.378 1.499s.81.634 1.404.634zM107.818 36l2.376-13.5h-3.483L104.335 36h3.483zm6.116-.702c.945.738 2.551.972 4.819.702h0l.54-3.159c-1.134.072-1.917.036-2.349-.108s-.585-.567-.459-1.269h0l.999-5.616h3.024l.621-3.348h-3.078l.675-3.78-3.672 1.053-.486 2.727h-2.322l-.594 3.348h2.349l-.999 5.616c-.324 1.818-.014 3.096.931 3.834z" fill="#6d3bc0"/><path d="M19.486 9.117H5.577l-1.3 7.434h10.504v.005h1.863c5.546 0 7.394 1.771 6.232 8.414-1.053 6.023-4.144 8.591-8.985 8.591H11.69l2.245-12.988-11.439 6.004L0 41h13.645c10.169 0 17.622-4.605 19.72-16.606C35.2 13.9 29.699 9.117 19.486 9.117"/><path d="M46.699.34H35.656l-1.382 7.57h11.042zm-9.574 24.783C35.957 31.757 33.198 36.739 29 40h11.075L45 12H34.937c2.387 3.324 3.138 7.724 2.188 13.123" fill="#6d3bc0"/></svg>