<svg id="ico" viewBox="0 0 122 41" version="1.1" xmlns="http://www.w3.org/2000/svg">
    <g transform="translate(61.567000, 16.587000)">
        <path d="M7.506,19.413 C10.206,19.413 12.5595,18.5535 14.5665,16.8345 C16.5735,15.1155 17.811,12.915 18.279,10.233 C18.747,7.587 18.243,5.3055 16.767,3.3885 C15.291,1.4715 13.311,0.513 10.827,0.513 L10.827,0.513 L3.321,0.513 L1.45661261e-13,19.413 L7.506,19.413 Z M7.911,15.849 L4.347,15.849 L6.426,4.077 L10.206,4.077 C11.844,4.077 13.077,4.608 13.905,5.67 C14.733,6.732 15.003,8.127 14.715,9.855 C14.409,11.619 13.6305,13.059 12.3795,14.175 C11.1285,15.291 9.639,15.849 7.911,15.849 L7.911,15.849 Z M23.571,4.293 C24.165,4.293 24.705,4.086 25.191,3.672 C25.677,3.258 25.974,2.754 26.082,2.16 C26.172,1.584 26.0415,1.08 25.6905,0.648 C25.3395,0.216 24.867,2.66453526e-14 24.273,2.66453526e-14 C23.679,2.66453526e-14 23.139,0.2115 22.653,0.6345 C22.167,1.0575 21.879,1.566 21.789,2.16 C21.699,2.736 21.825,3.2355 22.167,3.6585 C22.509,4.0815 22.977,4.293 23.571,4.293 Z M22.626,19.413 L25.002,5.913 L21.519,5.913 L19.143,19.413 L22.626,19.413 Z M31.806,19.791 C33.66,19.791 35.172,19.233 36.342,18.117 L36.342,18.117 L36.126,19.413 L39.609,19.413 L42.93,0.513 L39.447,0.513 L38.178,7.776 C37.314,6.282 35.91,5.535 33.966,5.535 C32.022,5.535 30.3525,6.1875 28.9575,7.4925 C27.5625,8.7975 26.694,10.413 26.352,12.339 C25.974,14.319 26.28,16.056 27.27,17.55 C28.26,19.044 29.772,19.791 31.806,19.791 Z M32.913,16.47 C31.833,16.47 31.0005,16.1145 30.4155,15.4035 C29.8305,14.6925 29.637,13.77 29.835,12.636 C30.033,11.466 30.546,10.5435 31.374,9.8685 C32.202,9.1935 33.147,8.856 34.209,8.856 C35.289,8.856 36.126,9.2025 36.72,9.8955 C37.314,10.5885 37.503,11.52 37.287,12.69 C37.107,13.806 36.6075,14.715 35.7885,15.417 C34.9695,16.119 34.011,16.47 32.913,16.47 Z" fill="#000000"></path>
        <path d="M47.196,4.293 C47.79,4.293 48.33,4.086 48.816,3.672 C49.302,3.258 49.599,2.754 49.707,2.16 C49.797,1.584 49.6665,1.08 49.3155,0.648 C48.9645,0.216 48.492,1.24344979e-14 47.898,1.24344979e-14 C47.304,1.24344979e-14 46.764,0.2115 46.278,0.6345 C45.792,1.0575 45.504,1.566 45.414,2.16 C45.324,2.736 45.45,3.2355 45.792,3.6585 C46.134,4.0815 46.602,4.293 47.196,4.293 Z M46.251,19.413 L48.627,5.913 L45.144,5.913 L42.768,19.413 L46.251,19.413 Z M52.3665,18.711 C53.3115,19.449 54.918,19.683 57.186,19.413 L57.186,19.413 L57.726,16.254 C56.592,16.326 55.809,16.29 55.377,16.146 C54.945,16.002 54.792,15.579 54.918,14.877 L54.918,14.877 L55.917,9.261 L58.941,9.261 L59.562,5.913 L56.484,5.913 L57.159,2.133 L53.487,3.186 L53.001,5.913 L50.679,5.913 L50.085,9.261 L52.434,9.261 L51.435,14.877 C51.111,16.695 51.4215,17.973 52.3665,18.711 Z" fill="#6D3BC0"></path>
    </g>
    <g>
        <g transform="translate(0.000000, 9.000000)">
            <path d="M19.4863404,0.116757576 L5.5769835,0.116757576 L4.27705044,7.55112987 L14.7811241,7.55112987 L14.7811241,7.55628139 L16.6443371,7.55628139 C22.1900842,7.55628139 24.0386665,9.32766667 22.8762615,15.9701775 C21.8228549,21.9930346 18.7321305,24.560697 13.8908492,24.560697 L11.6896682,24.560697 L13.9347411,11.5722554 L2.49576907,17.5767143 L-0.000219459718,32.0002208 L13.6450543,32.0002208 C23.8140861,32.0002208 31.2669381,27.3947662 33.364973,15.3939437 C35.2003878,4.89957143 29.6985326,0.116757576 19.4863404,0.116757576" fill="#000000"></path>
        </g>
        <g transform="translate(34.000000, 0.000000)">
            <polygon fill="#6D3BC0" points="12.6990412 0.339981818 1.65557053 0.339981818 0.274051729 7.91046667 11.3160758 7.91046667"></polygon>
        </g>
        <path d="M37.1248237,25.1230205 C35.9573762,31.7566113 33.1981531,36.7389032 29,40 L40.0747396,40 L45,12 L34.9369513,12 C37.3235227,15.3244403 38.0746486,19.7235354 37.1248237,25.1230205" fill="#6D3BC0"></path>
    </g>
</svg>