<svg width="366" height="101" viewBox="0 0 366 101" fill="none" xmlns="http://www.w3.org/2000/svg">
<g clip-path="url(#clip0)">
<path d="M179 0V2.97087H176V0L179 0Z" fill="#D8D8D8"/>
<path d="M168 0V2.97087H165V0L168 0Z" fill="#D8D8D8"/>
<path d="M157 0V2.97087H154V0L157 0Z" fill="#D8D8D8"/>
<path d="M146 0V2.97087H143V0L146 0Z" fill="#D8D8D8"/>
<path d="M135 0V2.97087H132V0L135 0Z" fill="#D8D8D8"/>
<path d="M124 0V2.97087H121V0L124 0Z" fill="#D8D8D8"/>
<path d="M113 0V2.97087H110V0L113 0Z" fill="#D8D8D8"/>
<path d="M102 0V2.97087H99V0L102 0Z" fill="#D8D8D8"/>
<path d="M91 0V2.97087H88V0L91 0Z" fill="#D8D8D8"/>
<path d="M80 0V2.97087H77V0L80 0Z" fill="#D8D8D8"/>
<path d="M69 0V2.97087H66V0L69 0Z" fill="#D8D8D8"/>
<path d="M58 0V2.97087H55V0L58 0Z" fill="#D8D8D8"/>
<path d="M47 0V2.97087H44V0L47 0Z" fill="#D8D8D8"/>
<path d="M36 0V2.97087H33V0L36 0Z" fill="#D8D8D8"/>
<path d="M25 0V2.97087H22V0L25 0Z" fill="#D8D8D8"/>
<path d="M14 0V2.97087H11V0L14 0Z" fill="#D8D8D8"/>
<path d="M3 0V2.97087H0V0L3 0Z" fill="#D8D8D8"/>
<path d="M179 10.8932V13.8641H176V10.8932H179Z" fill="#D8D8D8"/>
<path d="M168 10.8932V13.8641H165V10.8932H168Z" fill="#D8D8D8"/>
<path d="M157 10.8932V13.8641H154V10.8932H157Z" fill="#D8D8D8"/>
<path d="M146 10.8932V13.8641H143V10.8932H146Z" fill="#D8D8D8"/>
<path d="M135 10.8932V13.8641H132V10.8932H135Z" fill="#D8D8D8"/>
<path d="M124 10.8932V13.8641H121V10.8932H124Z" fill="#D8D8D8"/>
<path d="M113 10.8932V13.8641H110V10.8932H113Z" fill="#D8D8D8"/>
<path d="M102 10.8932V13.8641H99V10.8932H102Z" fill="#D8D8D8"/>
<path d="M91 10.8932V13.8641H88V10.8932H91Z" fill="#D8D8D8"/>
<path d="M80 10.8932V13.8641H77V10.8932H80Z" fill="#D8D8D8"/>
<path d="M69 10.8932V13.8641H66V10.8932H69Z" fill="#D8D8D8"/>
<path d="M58 10.8932V13.8641H55V10.8932H58Z" fill="#D8D8D8"/>
<path d="M47 10.8932V13.8641H44V10.8932H47Z" fill="#D8D8D8"/>
<path d="M36 10.8932V13.8641H33V10.8932H36Z" fill="#D8D8D8"/>
<path d="M25 10.8932V13.8641H22V10.8932H25Z" fill="#D8D8D8"/>
<path d="M14 10.8932V13.8641H11V10.8932H14Z" fill="#D8D8D8"/>
<path d="M3 10.8932V13.8641H0V10.8932H3Z" fill="#D8D8D8"/>
<path d="M179 21.7864V24.7573H176V21.7864H179Z" fill="#D8D8D8"/>
<path d="M168 21.7864V24.7573H165V21.7864H168Z" fill="#D8D8D8"/>
<path d="M157 21.7864V24.7573H154V21.7864H157Z" fill="#D8D8D8"/>
<path d="M146 21.7864V24.7573H143V21.7864H146Z" fill="#D8D8D8"/>
<path d="M135 21.7864V24.7573H132V21.7864H135Z" fill="#D8D8D8"/>
<path d="M124 21.7864V24.7573H121V21.7864H124Z" fill="#D8D8D8"/>
<path d="M113 21.7864V24.7573H110V21.7864H113Z" fill="#D8D8D8"/>
<path d="M102 21.7864V24.7573H99V21.7864H102Z" fill="#D8D8D8"/>
<path d="M91 21.7864V24.7573H88V21.7864H91Z" fill="#D8D8D8"/>
<path d="M80 21.7864V24.7573H77V21.7864H80Z" fill="#D8D8D8"/>
<path d="M69 21.7864V24.7573H66V21.7864H69Z" fill="#D8D8D8"/>
<path d="M58 21.7864V24.7573H55V21.7864H58Z" fill="#D8D8D8"/>
<path d="M47 21.7864V24.7573H44V21.7864H47Z" fill="#D8D8D8"/>
<path d="M36 21.7864V24.7573H33V21.7864H36Z" fill="#D8D8D8"/>
<path d="M25 21.7864V24.7573H22V21.7864H25Z" fill="#D8D8D8"/>
<path d="M14 21.7864V24.7573H11V21.7864H14Z" fill="#D8D8D8"/>
<path d="M3 21.7864V24.7573H0V21.7864H3Z" fill="#D8D8D8"/>
<path d="M179 32.6796V35.6505H176V32.6796H179Z" fill="#D8D8D8"/>
<path d="M168 32.6796V35.6505H165V32.6796H168Z" fill="#D8D8D8"/>
<path d="M157 32.6796V35.6505H154V32.6796H157Z" fill="#D8D8D8"/>
<path d="M146 32.6796V35.6505H143V32.6796H146Z" fill="#D8D8D8"/>
<path d="M135 32.6796V35.6505H132V32.6796H135Z" fill="#D8D8D8"/>
<path d="M124 32.6796V35.6505H121V32.6796H124Z" fill="#D8D8D8"/>
<path d="M113 32.6796V35.6505H110V32.6796H113Z" fill="#D8D8D8"/>
<path d="M102 32.6796V35.6505H99V32.6796H102Z" fill="#D8D8D8"/>
<path d="M91 32.6796V35.6505H88V32.6796H91Z" fill="#D8D8D8"/>
<path d="M80 32.6796V35.6505H77V32.6796H80Z" fill="#D8D8D8"/>
<path d="M69 32.6796V35.6505H66V32.6796H69Z" fill="#D8D8D8"/>
<path d="M58 32.6796V35.6505H55V32.6796H58Z" fill="#D8D8D8"/>
<path d="M47 32.6796V35.6505H44V32.6796H47Z" fill="#D8D8D8"/>
<path d="M36 32.6796V35.6505H33V32.6796H36Z" fill="#D8D8D8"/>
<path d="M25 32.6796V35.6505H22V32.6796H25Z" fill="#D8D8D8"/>
<path d="M14 32.6796V35.6505H11V32.6796H14Z" fill="#D8D8D8"/>
<path d="M3 32.6796V35.6505H0V32.6796H3Z" fill="#D8D8D8"/>
<path d="M179 43.5728V46.5437H176V43.5728H179Z" fill="#D8D8D8"/>
<path d="M168 43.5728V46.5437H165V43.5728H168Z" fill="#D8D8D8"/>
<path d="M157 43.5728V46.5437H154V43.5728H157Z" fill="#D8D8D8"/>
<path d="M146 43.5728V46.5437H143V43.5728H146Z" fill="#D8D8D8"/>
<path d="M135 43.5728V46.5437H132V43.5728H135Z" fill="#D8D8D8"/>
<path d="M124 43.5728V46.5437H121V43.5728H124Z" fill="#D8D8D8"/>
<path d="M113 43.5728V46.5437H110V43.5728H113Z" fill="#D8D8D8"/>
<path d="M102 43.5728V46.5437H99V43.5728H102Z" fill="#D8D8D8"/>
<path d="M91 43.5728V46.5437H88V43.5728H91Z" fill="#D8D8D8"/>
<path d="M80 43.5728V46.5437H77V43.5728H80Z" fill="#D8D8D8"/>
<path d="M69 43.5728V46.5437H66V43.5728H69Z" fill="#D8D8D8"/>
<path d="M58 43.5728V46.5437H55V43.5728H58Z" fill="#D8D8D8"/>
<path d="M47 43.5728V46.5437H44V43.5728H47Z" fill="#D8D8D8"/>
<path d="M36 43.5728V46.5437H33V43.5728H36Z" fill="#D8D8D8"/>
<path d="M25 43.5728V46.5437H22V43.5728H25Z" fill="#D8D8D8"/>
<path d="M14 43.5728V46.5437H11V43.5728H14Z" fill="#D8D8D8"/>
<path d="M3 43.5728V46.5437H0V43.5728H3Z" fill="#D8D8D8"/>
<path d="M179 54.466V57.4369H176V54.466H179Z" fill="#D8D8D8"/>
<path d="M168 54.466V57.4369H165V54.466H168Z" fill="#D8D8D8"/>
<path d="M157 54.466V57.4369H154V54.466H157Z" fill="#D8D8D8"/>
<path d="M146 54.466V57.4369H143V54.466H146Z" fill="#D8D8D8"/>
<path d="M135 54.466V57.4369H132V54.466H135Z" fill="#D8D8D8"/>
<path d="M124 54.466V57.4369H121V54.466H124Z" fill="#D8D8D8"/>
<path d="M113 54.466V57.4369H110V54.466H113Z" fill="#D8D8D8"/>
<path d="M102 54.466V57.4369H99V54.466H102Z" fill="#D8D8D8"/>
<path d="M91 54.466V57.4369H88V54.466H91Z" fill="#D8D8D8"/>
<path d="M80 54.466V57.4369H77V54.466H80Z" fill="#D8D8D8"/>
<path d="M69 54.466V57.4369H66V54.466H69Z" fill="#D8D8D8"/>
<path d="M58 54.466V57.4369H55V54.466H58Z" fill="#D8D8D8"/>
<path d="M47 54.466V57.4369H44V54.466H47Z" fill="#D8D8D8"/>
<path d="M36 54.466V57.4369H33V54.466H36Z" fill="#D8D8D8"/>
<path d="M25 54.466V57.4369H22V54.466H25Z" fill="#D8D8D8"/>
<path d="M14 54.466V57.4369H11V54.466H14Z" fill="#D8D8D8"/>
<path d="M3 54.466V57.4369H0V54.466H3Z" fill="#D8D8D8"/>
<path d="M179 65.3592V68.3301H176V65.3592H179Z" fill="#D8D8D8"/>
<path d="M168 65.3592V68.3301H165V65.3592H168Z" fill="#D8D8D8"/>
<path d="M157 65.3592V68.3301H154V65.3592H157Z" fill="#D8D8D8"/>
<path d="M146 65.3592V68.3301H143V65.3592H146Z" fill="#D8D8D8"/>
<path d="M135 65.3592V68.3301H132V65.3592H135Z" fill="#D8D8D8"/>
<path d="M124 65.3592V68.3301H121V65.3592H124Z" fill="#D8D8D8"/>
<path d="M113 65.3592V68.3301H110V65.3592H113Z" fill="#D8D8D8"/>
<path d="M102 65.3592V68.3301H99V65.3592H102Z" fill="#D8D8D8"/>
<path d="M91 65.3592V68.3301H88V65.3592H91Z" fill="#D8D8D8"/>
<path d="M80 65.3592V68.3301H77V65.3592H80Z" fill="#D8D8D8"/>
<path d="M69 65.3592V68.3301H66V65.3592H69Z" fill="#D8D8D8"/>
<path d="M58 65.3592V68.3301H55V65.3592H58Z" fill="#D8D8D8"/>
<path d="M47 65.3592V68.3301H44V65.3592H47Z" fill="#D8D8D8"/>
<path d="M36 65.3592V68.3301H33V65.3592H36Z" fill="#D8D8D8"/>
<path d="M25 65.3592V68.3301H22V65.3592H25Z" fill="#D8D8D8"/>
<path d="M14 65.3592V68.3301H11V65.3592H14Z" fill="#D8D8D8"/>
<path d="M3 65.3592V68.3301H0V65.3592H3Z" fill="#D8D8D8"/>
<path d="M179 76.2524V79.2233H176V76.2524H179Z" fill="#D8D8D8"/>
<path d="M168 76.2524V79.2233H165V76.2524H168Z" fill="#D8D8D8"/>
<path d="M157 76.2524V79.2233H154V76.2524H157Z" fill="#D8D8D8"/>
<path d="M146 76.2524V79.2233H143V76.2524H146Z" fill="#D8D8D8"/>
<path d="M135 76.2524V79.2233H132V76.2524H135Z" fill="#D8D8D8"/>
<path d="M124 76.2524V79.2233H121V76.2524H124Z" fill="#D8D8D8"/>
<path d="M113 76.2524V79.2233H110V76.2524H113Z" fill="#D8D8D8"/>
<path d="M102 76.2524V79.2233H99V76.2524H102Z" fill="#D8D8D8"/>
<path d="M91 76.2524V79.2233H88V76.2524H91Z" fill="#D8D8D8"/>
<path d="M80 76.2524V79.2233H77V76.2524H80Z" fill="#D8D8D8"/>
<path d="M69 76.2524V79.2233H66V76.2524H69Z" fill="#D8D8D8"/>
<path d="M58 76.2524V79.2233H55V76.2524H58Z" fill="#D8D8D8"/>
<path d="M47 76.2524V79.2233H44V76.2524H47Z" fill="#D8D8D8"/>
<path d="M36 76.2524V79.2233H33V76.2524H36Z" fill="#D8D8D8"/>
<path d="M25 76.2524V79.2233H22V76.2524H25Z" fill="#D8D8D8"/>
<path d="M14 76.2524V79.2233H11V76.2524H14Z" fill="#D8D8D8"/>
<path d="M3 76.2524V79.2233H0V76.2524H3Z" fill="#D8D8D8"/>
<path d="M179 87.1456V90.1165H176V87.1456H179Z" fill="#D8D8D8"/>
<path d="M168 87.1456V90.1165H165V87.1456H168Z" fill="#D8D8D8"/>
<path d="M157 87.1456V90.1165H154V87.1456H157Z" fill="#D8D8D8"/>
<path d="M146 87.1456V90.1165H143V87.1456H146Z" fill="#D8D8D8"/>
<path d="M135 87.1456V90.1165H132V87.1456H135Z" fill="#D8D8D8"/>
<path d="M124 87.1456V90.1165H121V87.1456H124Z" fill="#D8D8D8"/>
<path d="M113 87.1456V90.1165H110V87.1456H113Z" fill="#D8D8D8"/>
<path d="M102 87.1456V90.1165H99V87.1456H102Z" fill="#D8D8D8"/>
<path d="M91 87.1456V90.1165H88V87.1456H91Z" fill="#D8D8D8"/>
<path d="M80 87.1456V90.1165H77V87.1456H80Z" fill="#D8D8D8"/>
<path d="M69 87.1456V90.1165H66V87.1456H69Z" fill="#D8D8D8"/>
<path d="M58 87.1456V90.1165H55V87.1456H58Z" fill="#D8D8D8"/>
<path d="M47 87.1456V90.1165H44V87.1456H47Z" fill="#D8D8D8"/>
<path d="M36 87.1456V90.1165H33V87.1456H36Z" fill="#D8D8D8"/>
<path d="M25 87.1456V90.1165H22V87.1456H25Z" fill="#D8D8D8"/>
<path d="M14 87.1456V90.1165H11V87.1456H14Z" fill="#D8D8D8"/>
<path d="M3 87.1456V90.1165H0V87.1456H3Z" fill="#D8D8D8"/>
<path d="M179 98.0388V101.01H176V98.0388H179Z" fill="#D8D8D8"/>
<path d="M168 98.0388V101.01H165V98.0388H168Z" fill="#D8D8D8"/>
<path d="M157 98.0388V101.01H154V98.0388H157Z" fill="#D8D8D8"/>
<path d="M146 98.0388V101.01H143V98.0388H146Z" fill="#D8D8D8"/>
<path d="M135 98.0388V101.01H132V98.0388H135Z" fill="#D8D8D8"/>
<path d="M124 98.0388V101.01H121V98.0388H124Z" fill="#D8D8D8"/>
<path d="M113 98.0388V101.01H110V98.0388H113Z" fill="#D8D8D8"/>
<path d="M102 98.0388V101.01H99V98.0388H102Z" fill="#D8D8D8"/>
<path d="M91 98.0388V101.01H88V98.0388H91Z" fill="#D8D8D8"/>
<path d="M80 98.0388V101.01H77V98.0388H80Z" fill="#D8D8D8"/>
<path d="M69 98.0388V101.01H66V98.0388H69Z" fill="#D8D8D8"/>
<path d="M58 98.0388V101.01H55V98.0388H58Z" fill="#D8D8D8"/>
<path d="M47 98.0388V101.01H44V98.0388H47Z" fill="#D8D8D8"/>
<path d="M36 98.0388V101.01H33V98.0388H36Z" fill="#D8D8D8"/>
<path d="M25 98.0388V101.01H22V98.0388H25Z" fill="#D8D8D8"/>
<path d="M14 98.0388V101.01H11V98.0388H14Z" fill="#D8D8D8"/>
<path d="M3 98.0388V101.01H0V98.0388H3Z" fill="#D8D8D8"/>
<path d="M366 0V2.97087H363V0L366 0Z" fill="#D8D8D8"/>
<path d="M355 0V2.97087H352V0L355 0Z" fill="#D8D8D8"/>
<path d="M344 0V2.97087H341V0L344 0Z" fill="#D8D8D8"/>
<path d="M333 0V2.97087H330V0L333 0Z" fill="#D8D8D8"/>
<path d="M322 0V2.97087H319V0L322 0Z" fill="#D8D8D8"/>
<path d="M311 0V2.97087H308V0L311 0Z" fill="#D8D8D8"/>
<path d="M300 0V2.97087H297V0L300 0Z" fill="#D8D8D8"/>
<path d="M289 0V2.97087H286V0L289 0Z" fill="#D8D8D8"/>
<path d="M278 0V2.97087H275V0L278 0Z" fill="#D8D8D8"/>
<path d="M267 0V2.97087H264V0L267 0Z" fill="#D8D8D8"/>
<path d="M256 0V2.97087H253V0L256 0Z" fill="#D8D8D8"/>
<path d="M245 0V2.97087H242V0L245 0Z" fill="#D8D8D8"/>
<path d="M234 0V2.97087H231V0L234 0Z" fill="#D8D8D8"/>
<path d="M223 0V2.97087H220V0L223 0Z" fill="#D8D8D8"/>
<path d="M212 0V2.97087H209V0L212 0Z" fill="#D8D8D8"/>
<path d="M201 0V2.97087H198V0L201 0Z" fill="#D8D8D8"/>
<path d="M190 0V2.97087H187V0L190 0Z" fill="#D8D8D8"/>
<path d="M366 10.8932V13.8641H363V10.8932H366Z" fill="#D8D8D8"/>
<path d="M355 10.8932V13.8641H352V10.8932H355Z" fill="#D8D8D8"/>
<path d="M344 10.8932V13.8641H341V10.8932H344Z" fill="#D8D8D8"/>
<path d="M333 10.8932V13.8641H330V10.8932H333Z" fill="#D8D8D8"/>
<path d="M322 10.8932V13.8641H319V10.8932H322Z" fill="#D8D8D8"/>
<path d="M311 10.8932V13.8641H308V10.8932H311Z" fill="#D8D8D8"/>
<path d="M300 10.8932V13.8641H297V10.8932H300Z" fill="#D8D8D8"/>
<path d="M289 10.8932V13.8641H286V10.8932H289Z" fill="#D8D8D8"/>
<path d="M278 10.8932V13.8641H275V10.8932H278Z" fill="#D8D8D8"/>
<path d="M267 10.8932V13.8641H264V10.8932H267Z" fill="#D8D8D8"/>
<path d="M256 10.8932V13.8641H253V10.8932H256Z" fill="#D8D8D8"/>
<path d="M245 10.8932V13.8641H242V10.8932H245Z" fill="#D8D8D8"/>
<path d="M234 10.8932V13.8641H231V10.8932H234Z" fill="#D8D8D8"/>
<path d="M223 10.8932V13.8641H220V10.8932H223Z" fill="#D8D8D8"/>
<path d="M212 10.8932V13.8641H209V10.8932H212Z" fill="#D8D8D8"/>
<path d="M201 10.8932V13.8641H198V10.8932H201Z" fill="#D8D8D8"/>
<path d="M190 10.8932V13.8641H187V10.8932H190Z" fill="#D8D8D8"/>
<path d="M366 21.7864V24.7573H363V21.7864H366Z" fill="#D8D8D8"/>
<path d="M355 21.7864V24.7573H352V21.7864H355Z" fill="#D8D8D8"/>
<path d="M344 21.7864V24.7573H341V21.7864H344Z" fill="#D8D8D8"/>
<path d="M333 21.7864V24.7573H330V21.7864H333Z" fill="#D8D8D8"/>
<path d="M322 21.7864V24.7573H319V21.7864H322Z" fill="#D8D8D8"/>
<path d="M311 21.7864V24.7573H308V21.7864H311Z" fill="#D8D8D8"/>
<path d="M300 21.7864V24.7573H297V21.7864H300Z" fill="#D8D8D8"/>
<path d="M289 21.7864V24.7573H286V21.7864H289Z" fill="#D8D8D8"/>
<path d="M278 21.7864V24.7573H275V21.7864H278Z" fill="#D8D8D8"/>
<path d="M267 21.7864V24.7573H264V21.7864H267Z" fill="#D8D8D8"/>
<path d="M256 21.7864V24.7573H253V21.7864H256Z" fill="#D8D8D8"/>
<path d="M245 21.7864V24.7573H242V21.7864H245Z" fill="#D8D8D8"/>
<path d="M234 21.7864V24.7573H231V21.7864H234Z" fill="#D8D8D8"/>
<path d="M223 21.7864V24.7573H220V21.7864H223Z" fill="#D8D8D8"/>
<path d="M212 21.7864V24.7573H209V21.7864H212Z" fill="#D8D8D8"/>
<path d="M201 21.7864V24.7573H198V21.7864H201Z" fill="#D8D8D8"/>
<path d="M190 21.7864V24.7573H187V21.7864H190Z" fill="#D8D8D8"/>
<path d="M366 32.6796V35.6505H363V32.6796H366Z" fill="#D8D8D8"/>
<path d="M355 32.6796V35.6505H352V32.6796H355Z" fill="#D8D8D8"/>
<path d="M344 32.6796V35.6505H341V32.6796H344Z" fill="#D8D8D8"/>
<path d="M333 32.6796V35.6505H330V32.6796H333Z" fill="#D8D8D8"/>
<path d="M322 32.6796V35.6505H319V32.6796H322Z" fill="#D8D8D8"/>
<path d="M311 32.6796V35.6505H308V32.6796H311Z" fill="#D8D8D8"/>
<path d="M300 32.6796V35.6505H297V32.6796H300Z" fill="#D8D8D8"/>
<path d="M289 32.6796V35.6505H286V32.6796H289Z" fill="#D8D8D8"/>
<path d="M278 32.6796V35.6505H275V32.6796H278Z" fill="#D8D8D8"/>
<path d="M267 32.6796V35.6505H264V32.6796H267Z" fill="#D8D8D8"/>
<path d="M256 32.6796V35.6505H253V32.6796H256Z" fill="#D8D8D8"/>
<path d="M245 32.6796V35.6505H242V32.6796H245Z" fill="#D8D8D8"/>
<path d="M234 32.6796V35.6505H231V32.6796H234Z" fill="#D8D8D8"/>
<path d="M223 32.6796V35.6505H220V32.6796H223Z" fill="#D8D8D8"/>
<path d="M212 32.6796V35.6505H209V32.6796H212Z" fill="#D8D8D8"/>
<path d="M201 32.6796V35.6505H198V32.6796H201Z" fill="#D8D8D8"/>
<path d="M190 32.6796V35.6505H187V32.6796H190Z" fill="#D8D8D8"/>
<path d="M366 43.5728V46.5437H363V43.5728H366Z" fill="#D8D8D8"/>
<path d="M355 43.5728V46.5437H352V43.5728H355Z" fill="#D8D8D8"/>
<path d="M344 43.5728V46.5437H341V43.5728H344Z" fill="#D8D8D8"/>
<path d="M333 43.5728V46.5437H330V43.5728H333Z" fill="#D8D8D8"/>
<path d="M322 43.5728V46.5437H319V43.5728H322Z" fill="#D8D8D8"/>
<path d="M311 43.5728V46.5437H308V43.5728H311Z" fill="#D8D8D8"/>
<path d="M300 43.5728V46.5437H297V43.5728H300Z" fill="#D8D8D8"/>
<path d="M289 43.5728V46.5437H286V43.5728H289Z" fill="#D8D8D8"/>
<path d="M278 43.5728V46.5437H275V43.5728H278Z" fill="#D8D8D8"/>
<path d="M267 43.5728V46.5437H264V43.5728H267Z" fill="#D8D8D8"/>
<path d="M256 43.5728V46.5437H253V43.5728H256Z" fill="#D8D8D8"/>
<path d="M245 43.5728V46.5437H242V43.5728H245Z" fill="#D8D8D8"/>
<path d="M234 43.5728V46.5437H231V43.5728H234Z" fill="#D8D8D8"/>
<path d="M223 43.5728V46.5437H220V43.5728H223Z" fill="#D8D8D8"/>
<path d="M212 43.5728V46.5437H209V43.5728H212Z" fill="#D8D8D8"/>
<path d="M201 43.5728V46.5437H198V43.5728H201Z" fill="#D8D8D8"/>
<path d="M190 43.5728V46.5437H187V43.5728H190Z" fill="#D8D8D8"/>
<path d="M366 54.466V57.4369H363V54.466H366Z" fill="#D8D8D8"/>
<path d="M355 54.466V57.4369H352V54.466H355Z" fill="#D8D8D8"/>
<path d="M344 54.466V57.4369H341V54.466H344Z" fill="#D8D8D8"/>
<path d="M333 54.466V57.4369H330V54.466H333Z" fill="#D8D8D8"/>
<path d="M322 54.466V57.4369H319V54.466H322Z" fill="#D8D8D8"/>
<path d="M311 54.466V57.4369H308V54.466H311Z" fill="#D8D8D8"/>
<path d="M300 54.466V57.4369H297V54.466H300Z" fill="#D8D8D8"/>
<path d="M289 54.466V57.4369H286V54.466H289Z" fill="#D8D8D8"/>
<path d="M278 54.466V57.4369H275V54.466H278Z" fill="#D8D8D8"/>
<path d="M267 54.466V57.4369H264V54.466H267Z" fill="#D8D8D8"/>
<path d="M256 54.466V57.4369H253V54.466H256Z" fill="#D8D8D8"/>
<path d="M245 54.466V57.4369H242V54.466H245Z" fill="#D8D8D8"/>
<path d="M234 54.466V57.4369H231V54.466H234Z" fill="#D8D8D8"/>
<path d="M223 54.466V57.4369H220V54.466H223Z" fill="#D8D8D8"/>
<path d="M212 54.466V57.4369H209V54.466H212Z" fill="#D8D8D8"/>
<path d="M201 54.466V57.4369H198V54.466H201Z" fill="#D8D8D8"/>
<path d="M190 54.466V57.4369H187V54.466H190Z" fill="#D8D8D8"/>
<path d="M366 65.3592V68.3301H363V65.3592H366Z" fill="#D8D8D8"/>
<path d="M355 65.3592V68.3301H352V65.3592H355Z" fill="#D8D8D8"/>
<path d="M344 65.3592V68.3301H341V65.3592H344Z" fill="#D8D8D8"/>
<path d="M333 65.3592V68.3301H330V65.3592H333Z" fill="#D8D8D8"/>
<path d="M322 65.3592V68.3301H319V65.3592H322Z" fill="#D8D8D8"/>
<path d="M311 65.3592V68.3301H308V65.3592H311Z" fill="#D8D8D8"/>
<path d="M300 65.3592V68.3301H297V65.3592H300Z" fill="#D8D8D8"/>
<path d="M289 65.3592V68.3301H286V65.3592H289Z" fill="#D8D8D8"/>
<path d="M278 65.3592V68.3301H275V65.3592H278Z" fill="#D8D8D8"/>
<path d="M267 65.3592V68.3301H264V65.3592H267Z" fill="#D8D8D8"/>
<path d="M256 65.3592V68.3301H253V65.3592H256Z" fill="#D8D8D8"/>
<path d="M245 65.3592V68.3301H242V65.3592H245Z" fill="#D8D8D8"/>
<path d="M234 65.3592V68.3301H231V65.3592H234Z" fill="#D8D8D8"/>
<path d="M223 65.3592V68.3301H220V65.3592H223Z" fill="#D8D8D8"/>
<path d="M212 65.3592V68.3301H209V65.3592H212Z" fill="#D8D8D8"/>
<path d="M201 65.3592V68.3301H198V65.3592H201Z" fill="#D8D8D8"/>
<path d="M190 65.3592V68.3301H187V65.3592H190Z" fill="#D8D8D8"/>
<path d="M366 76.2524V79.2233H363V76.2524H366Z" fill="#D8D8D8"/>
<path d="M355 76.2524V79.2233H352V76.2524H355Z" fill="#D8D8D8"/>
<path d="M344 76.2524V79.2233H341V76.2524H344Z" fill="#D8D8D8"/>
<path d="M333 76.2524V79.2233H330V76.2524H333Z" fill="#D8D8D8"/>
<path d="M322 76.2524V79.2233H319V76.2524H322Z" fill="#D8D8D8"/>
<path d="M311 76.2524V79.2233H308V76.2524H311Z" fill="#D8D8D8"/>
<path d="M300 76.2524V79.2233H297V76.2524H300Z" fill="#D8D8D8"/>
<path d="M289 76.2524V79.2233H286V76.2524H289Z" fill="#D8D8D8"/>
<path d="M278 76.2524V79.2233H275V76.2524H278Z" fill="#D8D8D8"/>
<path d="M267 76.2524V79.2233H264V76.2524H267Z" fill="#D8D8D8"/>
<path d="M256 76.2524V79.2233H253V76.2524H256Z" fill="#D8D8D8"/>
<path d="M245 76.2524V79.2233H242V76.2524H245Z" fill="#D8D8D8"/>
<path d="M234 76.2524V79.2233H231V76.2524H234Z" fill="#D8D8D8"/>
<path d="M223 76.2524V79.2233H220V76.2524H223Z" fill="#D8D8D8"/>
<path d="M212 76.2524V79.2233H209V76.2524H212Z" fill="#D8D8D8"/>
<path d="M201 76.2524V79.2233H198V76.2524H201Z" fill="#D8D8D8"/>
<path d="M190 76.2524V79.2233H187V76.2524H190Z" fill="#D8D8D8"/>
<path d="M366 87.1456V90.1165H363V87.1456H366Z" fill="#D8D8D8"/>
<path d="M355 87.1456V90.1165H352V87.1456H355Z" fill="#D8D8D8"/>
<path d="M344 87.1456V90.1165H341V87.1456H344Z" fill="#D8D8D8"/>
<path d="M333 87.1456V90.1165H330V87.1456H333Z" fill="#D8D8D8"/>
<path d="M322 87.1456V90.1165H319V87.1456H322Z" fill="#D8D8D8"/>
<path d="M311 87.1456V90.1165H308V87.1456H311Z" fill="#D8D8D8"/>
<path d="M300 87.1456V90.1165H297V87.1456H300Z" fill="#D8D8D8"/>
<path d="M289 87.1456V90.1165H286V87.1456H289Z" fill="#D8D8D8"/>
<path d="M278 87.1456V90.1165H275V87.1456H278Z" fill="#D8D8D8"/>
<path d="M267 87.1456V90.1165H264V87.1456H267Z" fill="#D8D8D8"/>
<path d="M256 87.1456V90.1165H253V87.1456H256Z" fill="#D8D8D8"/>
<path d="M245 87.1456V90.1165H242V87.1456H245Z" fill="#D8D8D8"/>
<path d="M234 87.1456V90.1165H231V87.1456H234Z" fill="#D8D8D8"/>
<path d="M223 87.1456V90.1165H220V87.1456H223Z" fill="#D8D8D8"/>
<path d="M212 87.1456V90.1165H209V87.1456H212Z" fill="#D8D8D8"/>
<path d="M201 87.1456V90.1165H198V87.1456H201Z" fill="#D8D8D8"/>
<path d="M190 87.1456V90.1165H187V87.1456H190Z" fill="#D8D8D8"/>
<path d="M366 98.0388V101.01H363V98.0388H366Z" fill="#D8D8D8"/>
<path d="M355 98.0388V101.01H352V98.0388H355Z" fill="#D8D8D8"/>
<path d="M344 98.0388V101.01H341V98.0388H344Z" fill="#D8D8D8"/>
<path d="M333 98.0388V101.01H330V98.0388H333Z" fill="#D8D8D8"/>
<path d="M322 98.0388V101.01H319V98.0388H322Z" fill="#D8D8D8"/>
<path d="M311 98.0388V101.01H308V98.0388H311Z" fill="#D8D8D8"/>
<path d="M300 98.0388V101.01H297V98.0388H300Z" fill="#D8D8D8"/>
<path d="M289 98.0388V101.01H286V98.0388H289Z" fill="#D8D8D8"/>
<path d="M278 98.0388V101.01H275V98.0388H278Z" fill="#D8D8D8"/>
<path d="M267 98.0388V101.01H264V98.0388H267Z" fill="#D8D8D8"/>
<path d="M256 98.0388V101.01H253V98.0388H256Z" fill="#D8D8D8"/>
<path d="M245 98.0388V101.01H242V98.0388H245Z" fill="#D8D8D8"/>
<path d="M234 98.0388V101.01H231V98.0388H234Z" fill="#D8D8D8"/>
<path d="M223 98.0388V101.01H220V98.0388H223Z" fill="#D8D8D8"/>
<path d="M212 98.0388V101.01H209V98.0388H212Z" fill="#D8D8D8"/>
<path d="M201 98.0388V101.01H198V98.0388H201Z" fill="#D8D8D8"/>
<path d="M190 98.0388V101.01H187V98.0388H190Z" fill="#D8D8D8"/>
</g>
<defs>
<clipPath id="clip0">
<rect width="366" height="101" fill="white"/>
</clipPath>
</defs>
</svg>
