<svg id="ico" xmlns="http://www.w3.org/2000/svg" width="179" height="102" fill="#d8d8d8" xmlns:v="https://vecta.io/nano"><path d="M179 0v3h-3V0h3zm-11 0v3h-3V0h3zm-11 0v3h-3V0h3zm-11 0v3h-3V0h3zm-11 0v3h-3V0h3zm-11 0v3h-3V0h3zm-11 0v3h-3V0h3zm-11 0v3h-3V0h3zM91 0v3h-3V0h3zM80 0v3h-3V0h3zM69 0v3h-3V0h3zM58 0v3h-3V0h3zM47 0v3h-3V0h3zM36 0v3h-3V0h3zM25 0v3h-3V0h3zM14 0v3h-3V0h3zM3 0v3H0V0h3zm176 11v3h-3v-3h3zm-11 0v3h-3v-3h3zm-11 0v3h-3v-3h3zm-11 0v3h-3v-3h3zm-11 0v3h-3v-3h3zm-11 0v3h-3v-3h3zm-11 0v3h-3v-3h3zm-11 0v3h-3v-3h3zm-11 0v3h-3v-3h3zm-11 0v3h-3v-3h3zm-11 0v3h-3v-3h3zm-11 0v3h-3v-3h3zm-11 0v3h-3v-3h3zm-11 0v3h-3v-3h3zm-11 0v3h-3v-3h3zm-11 0v3h-3v-3h3zM3 11v3H0v-3h3zm176 11v3h-3v-3h3zm-11 0v3h-3v-3h3zm-11 0v3h-3v-3h3zm-11 0v3h-3v-3h3zm-11 0v3h-3v-3h3zm-11 0v3h-3v-3h3zm-11 0v3h-3v-3h3zm-11 0v3h-3v-3h3zm-11 0v3h-3v-3h3zm-11 0v3h-3v-3h3zm-11 0v3h-3v-3h3zm-11 0v3h-3v-3h3zm-11 0v3h-3v-3h3zm-11 0v3h-3v-3h3zm-11 0v3h-3v-3h3zm-11 0v3h-3v-3h3zM3 22v3H0v-3h3zm176 11v3h-3v-3h3zm-11 0v3h-3v-3h3zm-11 0v3h-3v-3h3zm-11 0v3h-3v-3h3zm-11 0v3h-3v-3h3zm-11 0v3h-3v-3h3zm-11 0v3h-3v-3h3zm-11 0v3h-3v-3h3zm-11 0v3h-3v-3h3zm-11 0v3h-3v-3h3zm-11 0v3h-3v-3h3zm-11 0v3h-3v-3h3zm-11 0v3h-3v-3h3zm-11 0v3h-3v-3h3zm-11 0v3h-3v-3h3zm-11 0v3h-3v-3h3zM3 33v3H0v-3h3zm176 11v3h-3v-3h3zm-11 0v3h-3v-3h3zm-11 0v3h-3v-3h3zm-11 0v3h-3v-3h3zm-11 0v3h-3v-3h3zm-11 0v3h-3v-3h3zm-11 0v3h-3v-3h3zm-11 0v3h-3v-3h3zm-11 0v3h-3v-3h3zm-11 0v3h-3v-3h3zm-11 0v3h-3v-3h3zm-11 0v3h-3v-3h3zm-11 0v3h-3v-3h3zm-11 0v3h-3v-3h3zm-11 0v3h-3v-3h3zm-11 0v3h-3v-3h3zM3 44v3H0v-3h3zm176 11v3h-3v-3h3zm-11 0v3h-3v-3h3zm-11 0v3h-3v-3h3zm-11 0v3h-3v-3h3zm-11 0v3h-3v-3h3zm-11 0v3h-3v-3h3zm-11 0v3h-3v-3h3zm-11 0v3h-3v-3h3zm-11 0v3h-3v-3h3zm-11 0v3h-3v-3h3zm-11 0v3h-3v-3h3zm-11 0v3h-3v-3h3zm-11 0v3h-3v-3h3zm-11 0v3h-3v-3h3zm-11 0v3h-3v-3h3zm-11 0v3h-3v-3h3zM3 55v3H0v-3h3zm176 11v3h-3v-3h3zm-11 0v3h-3v-3h3zm-11 0v3h-3v-3h3zm-11 0v3h-3v-3h3zm-11 0v3h-3v-3h3zm-11 0v3h-3v-3h3zm-11 0v3h-3v-3h3zm-11 0v3h-3v-3h3zm-11 0v3h-3v-3h3zm-11 0v3h-3v-3h3zm-11 0v3h-3v-3h3zm-11 0v3h-3v-3h3zm-11 0v3h-3v-3h3zm-11 0v3h-3v-3h3zm-11 0v3h-3v-3h3zm-11 0v3h-3v-3h3zM3 66v3H0v-3h3zm176 11v3h-3v-3h3zm-11 0v3h-3v-3h3zm-11 0v3h-3v-3h3zm-11 0v3h-3v-3h3zm-11 0v3h-3v-3h3zm-11 0v3h-3v-3h3zm-11 0v3h-3v-3h3zm-11 0v3h-3v-3h3zm-11 0v3h-3v-3h3zm-11 0v3h-3v-3h3zm-11 0v3h-3v-3h3zm-11 0v3h-3v-3h3zm-11 0v3h-3v-3h3zm-11 0v3h-3v-3h3zm-11 0v3h-3v-3h3zm-11 0v3h-3v-3h3zM3 77v3H0v-3h3zm176 11v3h-3v-3h3zm-11 0v3h-3v-3h3zm-11 0v3h-3v-3h3zm-11 0v3h-3v-3h3zm-11 0v3h-3v-3h3zm-11 0v3h-3v-3h3zm-11 0v3h-3v-3h3zm-11 0v3h-3v-3h3zm-11 0v3h-3v-3h3zm-11 0v3h-3v-3h3zm-11 0v3h-3v-3h3zm-11 0v3h-3v-3h3zm-11 0v3h-3v-3h3zm-11 0v3h-3v-3h3zm-11 0v3h-3v-3h3zm-11 0v3h-3v-3h3zM3 88v3H0v-3h3zm176 11v3h-3v-3h3zm-11 0v3h-3v-3h3zm-11 0v3h-3v-3h3zm-11 0v3h-3v-3h3zm-11 0v3h-3v-3h3zm-11 0v3h-3v-3h3zm-11 0v3h-3v-3h3zm-11 0v3h-3v-3h3zm-11 0v3h-3v-3h3zm-11 0v3h-3v-3h3zm-11 0v3h-3v-3h3zm-11 0v3h-3v-3h3zm-11 0v3h-3v-3h3zm-11 0v3h-3v-3h3zm-11 0v3h-3v-3h3zm-11 0v3h-3v-3h3zM3 99v3H0v-3h3z"/></svg>