<svg width="50" height="47" viewBox="0 0 50 47" fill="none" xmlns="http://www.w3.org/2000/svg">
<path fill-rule="evenodd" clip-rule="evenodd" d="M44.9065 16.2871L48.4484 16.6286C48.7612 16.6587 49 16.9216 49 17.2359V22.6044C49 22.9184 48.7617 23.1812 48.4491 23.2117L44.9543 23.5527C44.5723 25.0607 43.9637 26.502 43.1493 27.8274L45.4086 30.556C45.6094 30.7985 45.5927 31.154 45.3701 31.3766L41.5834 35.163C41.3607 35.3856 41.0052 35.4023 40.7627 35.2014L38.0388 32.9458C36.7145 33.7643 35.2711 34.3721 33.7603 34.7475L33.4189 38.2894C33.3887 38.6023 33.1258 38.841 32.8115 38.841H30.5248C27.5197 43.2734 22.5134 45.9285 17.1584 45.9299C8.24861 45.9299 1 38.6813 1 29.7716C1 21.1708 7.75488 14.1189 16.2381 13.64C16.4962 13.0817 16.7857 12.5384 17.1052 12.0128L14.846 9.28468C14.6452 9.04217 14.6619 8.68672 14.8845 8.4641L18.6712 4.67729C18.8939 4.4547 19.2493 4.43804 19.4918 4.63885L22.2158 6.89454C23.5401 6.07631 24.9835 5.46873 26.4943 5.09353L26.8357 1.55159C26.8659 1.23876 27.1287 1.00002 27.443 1H32.8115C33.1258 0.999963 33.3887 1.23872 33.4189 1.55159L33.7603 5.09383C35.2681 5.47574 36.7093 6.08426 38.0345 6.89861L40.7627 4.63885C41.0064 4.43686 41.3641 4.45479 41.5864 4.68014L45.3248 8.46685C45.545 8.68982 45.5605 9.04332 45.3606 9.28468L43.1049 12.0086C43.9233 13.3329 44.5311 14.7763 44.9065 16.2871ZM9.48907 42.1602C9.34803 42.2064 9.21073 42.2634 9.07836 42.3305L9.07792 42.3302L9.07833 42.3305L9.07836 42.3305C13.998 45.5028 20.3187 45.5027 25.2383 42.3302C25.1057 42.2631 24.9682 42.2063 24.827 42.1602L20.1964 40.6588C18.2758 41.5803 16.0407 41.5803 14.1201 40.6588L9.48907 42.1602ZM10.0476 29.7921C10.0891 29.6123 10.2199 29.4664 10.3941 29.4057C10.5034 29.4212 10.6147 29.4094 10.7183 29.3715C12.0734 28.8896 13.042 27.6863 13.2235 26.2596C13.4536 26.2525 13.732 26.237 14.0497 26.207C18.0259 29.563 23.5997 29.3978 23.8637 29.388C24.0648 29.4347 24.2218 29.5915 24.2689 29.7925C24.3324 30.0523 24.2855 30.3269 24.1395 30.551C23.9935 30.7751 23.7614 30.9289 23.498 30.9758C23.2213 31.0271 23 31.235 22.9316 31.508L22.5914 32.6775C22.5849 32.6996 22.5796 32.722 22.5754 32.7446C22.0859 35.3508 19.81 37.239 17.1582 37.239C14.5065 37.239 12.2306 35.3508 11.7411 32.7446C11.7368 32.722 11.7315 32.6996 11.725 32.6775L11.3943 31.5397C11.3377 31.2505 11.1087 31.0261 10.8184 30.9753C10.5551 30.9283 10.3229 30.7745 10.1769 30.5504C10.0309 30.3263 9.9841 30.0517 10.0476 29.7919V29.7921ZM20.9789 27.7177C18.9666 27.0138 17.8186 25.8762 17.4542 25.468C16.981 25.6315 16.4998 25.7707 16.0123 25.8848C17.6605 26.9381 19.5001 27.46 20.9789 27.7177ZM23.1269 26.7785C20.9086 26.4626 19.525 25.4711 18.88 24.8855C19.8114 24.4449 20.6873 23.8953 21.4891 23.2482C21.6868 23.0882 21.7841 22.8349 21.7444 22.5836C21.7047 22.3324 21.534 22.1215 21.2965 22.0303C21.0591 21.9391 20.7911 21.9814 20.5934 22.1414C16.998 25.051 12.6555 24.8377 12.587 24.8344L12.5865 24.8343C12.3903 24.8219 12.1977 24.8913 12.0544 25.0258C11.9111 25.1604 11.8298 25.3483 11.8298 25.5449V25.7833C11.8293 26.3845 11.6018 26.9633 11.1927 27.4038V25.2641C11.2063 21.9782 13.8738 19.3216 17.1598 19.3216C20.4457 19.3216 23.1133 21.9782 23.1269 25.2641V26.7785ZM19.417 38.2819C18.6904 38.5331 17.927 38.6614 17.1582 38.6614V38.6618C16.3894 38.6618 15.626 38.5335 14.8994 38.2823V39.4477C16.3383 40.0829 17.9781 40.0829 19.417 39.4477V38.2819ZM26.4862 41.4298C26.1152 41.1586 25.7036 40.9478 25.2666 40.8053L20.8407 39.3708V37.6021C22.4702 36.5818 23.6029 34.9305 23.9679 33.0428L24.1979 32.2516C25.3152 31.8149 25.9368 30.6188 25.6522 29.4535C25.5114 28.8633 25.1045 28.372 24.5508 28.1238V25.2641C24.5357 21.193 21.2311 17.9006 17.16 17.9006C13.0888 17.9006 9.78424 21.193 9.76914 25.2641V28.1223C9.21395 28.3701 8.80572 28.8621 8.66473 29.4535C8.38 30.6188 9.00167 31.8149 10.119 32.2516L10.349 33.0428C10.714 34.9305 11.8466 36.5818 13.4761 37.6021V39.3708L9.05036 40.8057C8.61351 40.9482 8.20204 41.1591 7.83134 41.4305C4.28512 38.5999 2.22009 34.3091 2.22033 29.7716C2.22033 21.5343 8.92202 14.8336 17.1584 14.8336C25.3948 14.8336 32.0964 21.5347 32.0964 29.7716C32.0966 34.3088 30.0319 38.5995 26.4862 41.4302V41.4298ZM22.0088 14.357C28.3935 16.3704 33.0784 22.2495 33.3071 29.2359C37.3568 27.8534 40.0492 24.0126 39.9677 19.7341C39.8863 15.4557 37.0497 11.7201 32.9503 10.4927C28.8509 9.26526 24.4281 10.8273 22.0088 14.357ZM31.2778 37.6206C31.7903 36.7027 32.2115 35.7367 32.5353 34.7365L32.2572 37.6206H31.2778ZM44.4001 22.3807L47.7796 22.051V17.7899L44.3528 17.4591C44.0887 17.4337 43.8712 17.2405 43.815 16.9812C43.4536 15.3124 42.7848 13.7254 41.8426 12.3015C41.6931 12.0772 41.7084 11.7814 41.8803 11.5738L44.0687 8.9313L41.1105 5.93506L38.4725 8.11927C38.2676 8.28904 37.9762 8.30637 37.7525 8.16208C36.3222 7.22557 34.7341 6.55562 33.0652 6.18462C32.8059 6.12835 32.6126 5.91091 32.5872 5.64676L32.2569 2.21964H27.9968L27.6665 5.64676C27.6411 5.91091 27.4479 6.12835 27.1886 6.18462C25.5197 6.54596 23.9328 7.21481 22.5088 8.157C22.2845 8.30645 21.9888 8.29112 21.7812 8.11927L19.1413 5.93283L16.1398 8.93405L18.3263 11.5738C18.496 11.7788 18.5133 12.0701 18.3691 12.2937C18.0892 12.7277 17.8333 13.1712 17.6034 13.6194C18.6694 13.648 19.73 13.7822 20.7695 14.0202C23.3906 9.86316 28.4398 7.93346 33.1654 9.28277C37.8909 10.6321 41.1599 14.9369 41.1909 19.8512C41.2218 24.7655 38.0073 29.1112 33.2991 30.5199C33.2493 31.619 33.0869 32.71 32.8145 33.776C32.888 33.7169 32.9742 33.6756 33.0663 33.6556C34.7352 33.2942 36.3221 32.6251 37.746 31.6827C37.9703 31.5332 38.2661 31.5486 38.4736 31.7205L41.1135 33.907L44.1147 30.9057L41.9282 28.2659C41.7584 28.061 41.7411 27.7696 41.8854 27.5459C42.8219 26.1156 43.4919 24.5275 43.863 22.8586C43.9192 22.5995 44.1362 22.4064 44.4001 22.3807Z" fill="white"/>
<path d="M48.4484 16.6286L48.4772 16.33L48.4772 16.33L48.4484 16.6286ZM44.9065 16.2871L44.6153 16.3594L44.6665 16.5653L44.8777 16.5857L44.9065 16.2871ZM49 17.2359L49.3 17.2359L49.3 17.2359L49 17.2359ZM49 22.6044L48.7 22.6044L48.7 22.6044L49 22.6044ZM48.4491 23.2117L48.4783 23.5103L48.4783 23.5103L48.4491 23.2117ZM44.9543 23.5527L44.9251 23.2541L44.7152 23.2746L44.6635 23.479L44.9543 23.5527ZM43.1493 27.8274L42.8937 27.6704L42.7813 27.8533L42.9182 28.0188L43.1493 27.8274ZM45.4086 30.556L45.6397 30.3647L45.6397 30.3647L45.4086 30.556ZM45.3701 31.3766L45.5822 31.5887L45.5822 31.5887L45.3701 31.3766ZM41.5834 35.163L41.3713 34.9508L41.3713 34.9508L41.5834 35.163ZM40.7627 35.2014L40.9541 34.9704L40.954 34.9704L40.7627 35.2014ZM38.0388 32.9458L38.2302 32.7148L38.0643 32.5774L37.8811 32.6906L38.0388 32.9458ZM33.7603 34.7475L33.688 34.4563L33.482 34.5075L33.4617 34.7187L33.7603 34.7475ZM33.4189 38.2894L33.7175 38.3182L33.7175 38.3182L33.4189 38.2894ZM32.8115 38.841L32.8115 38.541H32.8115V38.841ZM30.5248 38.841V38.541H30.3657L30.2765 38.6726L30.5248 38.841ZM17.1584 45.9299L17.1584 46.2299L17.1585 46.2299L17.1584 45.9299ZM16.2381 13.64L16.255 13.9395L16.4348 13.9293L16.5104 13.7659L16.2381 13.64ZM17.1052 12.0128L17.3616 12.1687L17.4726 11.9861L17.3363 11.8215L17.1052 12.0128ZM14.846 9.28468L14.6149 9.47599L14.6149 9.47602L14.846 9.28468ZM14.8845 8.4641L15.0966 8.67624L15.0966 8.67623L14.8845 8.4641ZM18.6712 4.67729L18.4591 4.46513L18.4591 4.46516L18.6712 4.67729ZM19.4918 4.63885L19.3005 4.86991L19.3005 4.86991L19.4918 4.63885ZM22.2158 6.89454L22.0245 7.1256L22.1903 7.26294L22.3735 7.14976L22.2158 6.89454ZM26.4943 5.09353L26.5666 5.38468L26.7726 5.33353L26.7929 5.12231L26.4943 5.09353ZM26.8357 1.55159L26.5371 1.52279L26.5371 1.52281L26.8357 1.55159ZM27.443 1L27.443 0.7L27.443 0.7L27.443 1ZM32.8115 1L32.8115 1.3L32.8115 1.3L32.8115 1ZM33.4189 1.55159L33.7175 1.52281L33.7175 1.52279L33.4189 1.55159ZM33.7603 5.09383L33.4617 5.12261L33.4819 5.3328L33.6866 5.38465L33.7603 5.09383ZM38.0345 6.89861L37.8775 7.15421L38.0605 7.26667L38.2259 7.12965L38.0345 6.89861ZM40.7627 4.63885L40.9541 4.86988L40.9541 4.86983L40.7627 4.63885ZM41.5864 4.68014L41.3729 4.89082L41.373 4.8909L41.5864 4.68014ZM45.3248 8.46685L45.1114 8.67761L45.1114 8.67763L45.3248 8.46685ZM45.3606 9.28468L45.5917 9.47602L45.5917 9.476L45.3606 9.28468ZM43.1049 12.0086L42.8739 11.8172L42.7365 11.9831L42.8497 12.1663L43.1049 12.0086ZM9.48907 42.1602L9.39655 41.8748L9.39563 41.8751L9.48907 42.1602ZM9.07792 42.3302L9.24031 42.078L8.89801 42.5703L9.07792 42.3302ZM9.07833 42.3305L8.89842 42.5706L9.04842 42.683L9.21522 42.5975L9.07833 42.3305ZM25.2383 42.3302L25.4008 42.5823L25.8405 42.2988L25.3737 42.0626L25.2383 42.3302ZM24.827 42.1602L24.9201 41.875L24.9195 41.8748L24.827 42.1602ZM20.1964 40.6588L20.289 40.3734L20.1748 40.3364L20.0667 40.3883L20.1964 40.6588ZM14.1201 40.6588L14.2498 40.3883L14.1417 40.3364L14.0275 40.3734L14.1201 40.6588ZM10.3941 29.4057L10.4363 29.1086L10.3641 29.0984L10.2953 29.1224L10.3941 29.4057ZM10.0476 29.7921H9.74757L10.3399 29.8596L10.0476 29.7921ZM10.7183 29.3715L10.6178 29.0888L10.6152 29.0898L10.7183 29.3715ZM13.2235 26.2596L13.2142 25.9598L12.9582 25.9677L12.9259 26.2218L13.2235 26.2596ZM14.0497 26.207L14.2432 25.9778L14.1469 25.8965L14.0215 25.9084L14.0497 26.207ZM23.8637 29.388L23.9317 29.0958L23.8926 29.0867L23.8525 29.0882L23.8637 29.388ZM24.2689 29.7925L23.9768 29.8609L23.9775 29.8637L24.2689 29.7925ZM24.1395 30.551L23.8882 30.3872L23.8882 30.3872L24.1395 30.551ZM23.498 30.9758L23.4454 30.6805L23.4434 30.6808L23.498 30.9758ZM22.9316 31.508L23.2199 31.5918L23.2226 31.5809L22.9316 31.508ZM22.5914 32.6775L22.8792 32.7623L22.8795 32.7613L22.5914 32.6775ZM22.5754 32.7446L22.2806 32.6888L22.2805 32.6892L22.5754 32.7446ZM11.7411 32.7446L12.0359 32.6892L12.0359 32.6888L11.7411 32.7446ZM11.725 32.6775L11.4369 32.7612L11.4373 32.7623L11.725 32.6775ZM11.3943 31.5397L11.0999 31.5974L11.1025 31.6106L11.1062 31.6235L11.3943 31.5397ZM10.8184 30.9753L10.7657 31.2707L10.7667 31.2708L10.8184 30.9753ZM10.1769 30.5504L9.92553 30.7141L9.92553 30.7141L10.1769 30.5504ZM10.0476 29.7919H10.3476L9.75613 29.7207L10.0476 29.7919ZM17.4542 25.468L17.678 25.2682L17.545 25.1192L17.3562 25.1845L17.4542 25.468ZM20.9789 27.7177L20.9274 28.0132L21.0779 27.4345L20.9789 27.7177ZM16.0123 25.8848L15.9439 25.5927L15.2517 25.7548L15.8507 26.1376L16.0123 25.8848ZM18.88 24.8855L18.7517 24.6143L18.3463 24.8061L18.6783 25.1076L18.88 24.8855ZM23.1269 26.7785L23.0846 27.0755L23.4269 27.1243V26.7785H23.1269ZM21.4891 23.2482L21.6775 23.4817L21.6778 23.4814L21.4891 23.2482ZM21.7444 22.5836L21.4481 22.6305L21.4481 22.6305L21.7444 22.5836ZM21.2965 22.0303L21.4041 21.7502L21.4041 21.7502L21.2965 22.0303ZM20.5934 22.1414L20.7821 22.3746L20.7821 22.3746L20.5934 22.1414ZM12.587 24.8344L12.6018 24.5347L12.6004 24.5346L12.587 24.8344ZM12.5865 24.8343L12.5676 25.1338L12.5732 25.134L12.5865 24.8343ZM11.8298 25.5449L12.1298 25.5449L12.1298 25.5448L11.8298 25.5449ZM11.8298 25.7833L12.1298 25.7836V25.7833H11.8298ZM11.1927 27.4038H10.8927V28.1677L11.4125 27.6079L11.1927 27.4038ZM11.1927 25.2641L10.8927 25.2629V25.2641H11.1927ZM23.1269 25.2641L23.4269 25.2641L23.4269 25.2629L23.1269 25.2641ZM17.1582 38.6614L17.1582 38.3614L16.8582 38.3614V38.6614H17.1582ZM19.417 38.2819H19.717V37.8607L19.3189 37.9983L19.417 38.2819ZM17.1582 38.6618L17.1582 38.9618L17.4582 38.9618V38.6618H17.1582ZM14.8994 38.2823L14.9974 37.9988L14.5994 37.8611V38.2823H14.8994ZM14.8994 39.4477H14.5994V39.6432L14.7782 39.7221L14.8994 39.4477ZM19.417 39.4477L19.5381 39.7221L19.717 39.6432V39.4477H19.417ZM25.2666 40.8053L25.3596 40.5201L25.3591 40.5199L25.2666 40.8053ZM26.4862 41.4298H26.7862V41.2775L26.6632 41.1877L26.4862 41.4298ZM20.8407 39.3708H20.5407V39.5889L20.7482 39.6562L20.8407 39.3708ZM20.8407 37.6021L20.6815 37.3479L20.5407 37.436V37.6021H20.8407ZM23.9679 33.0428L23.6798 32.9591L23.676 32.9723L23.6733 32.9859L23.9679 33.0428ZM24.1979 32.2516L24.0887 31.9721L23.9511 32.0259L23.9098 32.1678L24.1979 32.2516ZM25.6522 29.4535L25.3603 29.5231L25.3607 29.5247L25.6522 29.4535ZM24.5508 28.1238H24.2508V28.318L24.4281 28.3975L24.5508 28.1238ZM24.5508 25.2641L24.8508 25.2641L24.8508 25.263L24.5508 25.2641ZM9.76914 25.2641L9.46914 25.263V25.2641H9.76914ZM9.76914 28.1223L9.89139 28.3963L10.0691 28.317V28.1223H9.76914ZM8.66473 29.4535L8.95616 29.5247L8.95656 29.5231L8.66473 29.4535ZM10.119 32.2516L10.407 32.1678L10.3658 32.0259L10.2282 31.9721L10.119 32.2516ZM10.349 33.0428L10.6436 32.9859L10.6409 32.9724L10.6371 32.9591L10.349 33.0428ZM13.4761 37.6021H13.7761V37.436L13.6353 37.3479L13.4761 37.6021ZM13.4761 39.3708L13.5686 39.6562L13.7761 39.5889V39.3708H13.4761ZM9.05036 40.8057L8.95784 40.5204L8.95737 40.5205L9.05036 40.8057ZM7.83134 41.4305L7.64419 41.665L7.8235 41.8081L8.0086 41.6726L7.83134 41.4305ZM2.22033 29.7716L2.52033 29.7716V29.7716H2.22033ZM32.0964 29.7716L31.7964 29.7716L31.7964 29.7716L32.0964 29.7716ZM26.4862 41.4302H26.1862V42.0536L26.6733 41.6647L26.4862 41.4302ZM33.3071 29.2359L33.0073 29.2458L33.0205 29.6508L33.404 29.5198L33.3071 29.2359ZM22.0088 14.357L21.7613 14.1873L21.5325 14.5213L21.9186 14.6431L22.0088 14.357ZM39.9677 19.7341L40.2677 19.7284L39.9677 19.7341ZM32.9503 10.4927L33.0363 10.2053L33.0363 10.2053L32.9503 10.4927ZM32.5353 34.7365L32.8339 34.7653L32.2498 34.6441L32.5353 34.7365ZM31.2778 37.6206L31.0159 37.4743L30.7667 37.9206H31.2778V37.6206ZM32.2572 37.6206V37.9206H32.5297L32.5558 37.6494L32.2572 37.6206ZM47.7796 22.051L47.8088 22.3495L48.0796 22.3231V22.051H47.7796ZM44.4001 22.3807L44.4292 22.6792L44.4292 22.6792L44.4001 22.3807ZM47.7796 17.7899H48.0796V17.5175L47.8085 17.4913L47.7796 17.7899ZM44.3528 17.4591L44.3817 17.1605L44.3816 17.1605L44.3528 17.4591ZM43.815 16.9812L43.5218 17.0447L43.5218 17.0448L43.815 16.9812ZM41.8426 12.3015L42.0928 12.1359L42.0922 12.1351L41.8426 12.3015ZM41.8803 11.5738L41.6493 11.3825L41.6493 11.3825L41.8803 11.5738ZM44.0687 8.9313L44.2998 9.12265L44.4728 8.91364L44.2822 8.72053L44.0687 8.9313ZM41.1105 5.93506L41.324 5.72429L41.1309 5.5287L40.9192 5.70399L41.1105 5.93506ZM38.4725 8.11927L38.2812 7.88819L38.2812 7.88823L38.4725 8.11927ZM37.7525 8.16208L37.5882 8.41307L37.5899 8.41417L37.7525 8.16208ZM33.0652 6.18462L33.1303 5.89177L33.1288 5.89145L33.0652 6.18462ZM32.5872 5.64676L32.8859 5.61803L32.8859 5.61798L32.5872 5.64676ZM32.2569 2.21964L32.5555 2.19086L32.5294 1.91964H32.2569V2.21964ZM27.9968 2.21964V1.91964H27.7244L27.6982 2.19086L27.9968 2.21964ZM27.6665 5.64676L27.3679 5.61798L27.3679 5.61803L27.6665 5.64676ZM27.1886 6.18462L27.252 6.47783L27.2522 6.4778L27.1886 6.18462ZM22.5088 8.157L22.3432 7.9068L22.3424 7.90737L22.5088 8.157ZM21.7812 8.11927L21.5899 8.35031L21.5899 8.35035L21.7812 8.11927ZM19.1413 5.93283L19.3327 5.70178L19.1224 5.52757L18.9292 5.72068L19.1413 5.93283ZM16.1398 8.93405L15.9277 8.7219L15.7345 8.91504L15.9088 9.12541L16.1398 8.93405ZM18.3263 11.5738L18.5573 11.3825L18.5573 11.3825L18.3263 11.5738ZM18.3691 12.2937L18.117 12.1311L18.117 12.1311L18.3691 12.2937ZM17.6034 13.6194L17.3365 13.4825L17.119 13.9066L17.5954 13.9193L17.6034 13.6194ZM20.7695 14.0202L20.7025 14.3126L20.9098 14.3601L21.0232 14.1802L20.7695 14.0202ZM41.1909 19.8512L41.4909 19.8493L41.1909 19.8512ZM33.2991 30.5199L33.2131 30.2325L33.0091 30.2936L32.9994 30.5063L33.2991 30.5199ZM32.8145 33.776L32.5239 33.7017L32.3009 34.5744L33.0026 34.0097L32.8145 33.776ZM33.0663 33.6556L33.0028 33.3624L33.0025 33.3624L33.0663 33.6556ZM37.746 31.6827L37.9116 31.9329L37.9124 31.9323L37.746 31.6827ZM38.4736 31.7205L38.2823 31.9516L38.2823 31.9516L38.4736 31.7205ZM41.1135 33.907L40.9222 34.138L41.1325 34.3122L41.3257 34.1191L41.1135 33.907ZM44.1147 30.9057L44.3268 31.1179L44.5199 30.9247L44.3457 30.7144L44.1147 30.9057ZM41.9282 28.2659L42.1593 28.0746L42.1593 28.0746L41.9282 28.2659ZM41.8854 27.5459L41.6344 27.3816L41.6333 27.3833L41.8854 27.5459ZM43.863 22.8586L44.1558 22.9237L44.1562 22.9222L43.863 22.8586ZM48.4772 16.33L44.9353 15.9885L44.8777 16.5857L48.4196 16.9272L48.4772 16.33ZM49.3 17.2359C49.3 16.7671 48.9439 16.375 48.4772 16.33L48.4196 16.9272C48.5786 16.9425 48.7 17.0762 48.7 17.2359L49.3 17.2359ZM49.3 22.6044V17.2359H48.7V22.6044H49.3ZM48.4783 23.5103C48.9445 23.4648 49.3 23.0728 49.3 22.6044L48.7 22.6044C48.7 22.764 48.5788 22.8976 48.42 22.9131L48.4783 23.5103ZM44.9834 23.8513L48.4783 23.5103L48.42 22.9131L44.9251 23.2541L44.9834 23.8513ZM43.4049 27.9845C44.2352 26.6332 44.8557 25.1638 45.2451 23.6263L44.6635 23.479C44.2889 24.9576 43.6922 26.3708 42.8937 27.6704L43.4049 27.9845ZM45.6397 30.3647L43.3804 27.6361L42.9182 28.0188L45.1776 30.7473L45.6397 30.3647ZM45.5822 31.5887C45.9143 31.2566 45.9392 30.7264 45.6397 30.3647L45.1776 30.7473C45.2796 30.8706 45.2711 31.0513 45.158 31.1644L45.5822 31.5887ZM41.7955 35.3751L45.5822 31.5887L45.158 31.1644L41.3713 34.9508L41.7955 35.3751ZM40.5713 35.4325C40.9331 35.7321 41.4634 35.7072 41.7955 35.3751L41.3713 34.9508C41.2581 35.064 41.0773 35.0725 40.9541 34.9704L40.5713 35.4325ZM37.8475 33.1769L40.5714 35.4325L40.954 34.9704L38.2302 32.7148L37.8475 33.1769ZM33.8326 35.0386C35.3736 34.6557 36.8458 34.0358 38.1965 33.201L37.8811 32.6906C36.5832 33.4927 35.1687 34.0884 33.688 34.4563L33.8326 35.0386ZM33.7175 38.3182L34.0589 34.7762L33.4617 34.7187L33.1203 38.2606L33.7175 38.3182ZM32.8115 39.141C33.2803 39.141 33.6725 38.7849 33.7175 38.3182L33.1203 38.2606C33.105 38.4196 32.9713 38.541 32.8115 38.541L32.8115 39.141ZM30.5248 39.141H32.8115V38.541H30.5248V39.141ZM17.1585 46.2299C22.613 46.2285 27.7122 43.524 30.7731 39.0093L30.2765 38.6726C27.3272 43.0227 22.4139 45.6285 17.1583 45.6299L17.1585 46.2299ZM0.7 29.7716C0.7 38.847 8.08293 46.2299 17.1584 46.2299V45.6299C8.41429 45.6299 1.3 38.5156 1.3 29.7716H0.7ZM16.2212 13.3404C7.58013 13.8283 0.7 21.0106 0.7 29.7716H1.3C1.3 21.3309 7.92964 14.4096 16.255 13.9395L16.2212 13.3404ZM16.8489 11.857C16.5235 12.3923 16.2286 12.9455 15.9658 13.5141L16.5104 13.7659C16.7638 13.2178 17.0479 12.6846 17.3616 12.1687L16.8489 11.857ZM14.6149 9.47602L16.8742 12.2042L17.3363 11.8215L15.077 9.09333L14.6149 9.47602ZM14.6724 8.25197C14.3403 8.58404 14.3154 9.11425 14.6149 9.47599L15.077 9.09336C14.975 8.97009 14.9835 8.7894 15.0966 8.67624L14.6724 8.25197ZM18.4591 4.46516L14.6724 8.25197L15.0966 8.67623L18.8834 4.88942L18.4591 4.46516ZM19.6831 4.40779C19.3214 4.10826 18.7912 4.1331 18.4591 4.46513L18.8833 4.88945C18.9965 4.77629 19.1772 4.76783 19.3005 4.86991L19.6831 4.40779ZM22.4071 6.66348L19.6831 4.40779L19.3005 4.86991L22.0245 7.1256L22.4071 6.66348ZM26.422 4.80237C24.881 5.18507 23.4089 5.80477 22.0581 6.63933L22.3735 7.14976C23.6714 6.34786 25.0859 5.7524 26.5666 5.38468L26.422 4.80237ZM26.5371 1.52281L26.1957 5.06474L26.7929 5.12231L27.1343 1.58038L26.5371 1.52281ZM27.443 0.7C26.9742 0.700023 26.5821 1.05615 26.5371 1.52279L27.1343 1.58039C27.1496 1.42137 27.2833 1.30001 27.443 1.3L27.443 0.7ZM32.8115 0.7H27.443V1.3H32.8115V0.7ZM33.7175 1.52279C33.6725 1.05609 33.2803 0.699944 32.8115 0.7L32.8115 1.3C32.9713 1.29998 33.105 1.42135 33.1203 1.58039L33.7175 1.52279ZM34.0589 5.06505L33.7175 1.52281L33.1203 1.58037L33.4617 5.12261L34.0589 5.06505ZM38.1916 6.64301C36.8405 5.81277 35.3712 5.19238 33.834 4.80301L33.6866 5.38465C35.1651 5.75911 36.5781 6.35575 37.8775 7.15421L38.1916 6.64301ZM40.5713 4.40781L37.8432 6.66757L38.2259 7.12965L40.9541 4.86988L40.5713 4.40781ZM41.8 4.46945C41.4684 4.13331 40.9348 4.10657 40.5713 4.40786L40.9541 4.86983C41.078 4.76716 41.2599 4.77627 41.3729 4.89082L41.8 4.46945ZM45.5383 8.25608L41.7999 4.46937L41.373 4.8909L45.1114 8.67761L45.5383 8.25608ZM45.5917 9.476C45.8898 9.11597 45.8667 8.58868 45.5383 8.25607L45.1114 8.67763C45.2233 8.79097 45.2312 8.97066 45.1296 9.09336L45.5917 9.476ZM43.336 12.1999L45.5917 9.47602L45.1296 9.09333L42.8739 11.8172L43.336 12.1999ZM45.1976 16.2147C44.8147 14.6738 44.1948 13.2016 43.3602 11.8509L42.8497 12.1663C43.6518 13.4642 44.2474 14.8787 44.6153 16.3594L45.1976 16.2147ZM9.2141 42.598C9.33283 42.5378 9.45599 42.4867 9.58251 42.4453L9.39563 41.8751C9.24007 41.9261 9.08863 41.9889 8.94263 42.063L9.2141 42.598ZM8.91553 42.5825L8.91597 42.5828L9.24075 42.0783L9.24031 42.078L8.91553 42.5825ZM9.25824 42.0905L9.25783 42.0902L8.89801 42.5703L8.89842 42.5706L9.25824 42.0905ZM8.94147 42.0636L8.94143 42.0636L9.21522 42.5975L9.21526 42.5975L8.94147 42.0636ZM25.0757 42.0781C20.2551 45.1867 14.0615 45.1868 9.24094 42.0784L8.91578 42.5826C13.9344 45.8187 20.3823 45.8186 25.4008 42.5823L25.0757 42.0781ZM24.7339 42.4454C24.8606 42.4867 24.9839 42.5377 25.1028 42.5979L25.3737 42.0626C25.2275 41.9886 25.0759 41.9259 24.9201 41.875L24.7339 42.4454ZM20.1039 40.9441L24.7345 42.4456L24.9195 41.8748L20.289 40.3734L20.1039 40.9441ZM13.9903 40.9292C15.993 41.8901 18.3235 41.8901 20.3262 40.9292L20.0667 40.3883C18.228 41.2704 16.0884 41.2704 14.2498 40.3883L13.9903 40.9292ZM9.58159 42.4456L14.2126 40.9441L14.0275 40.3734L9.39655 41.8748L9.58159 42.4456ZM10.2953 29.1224C10.0239 29.2171 9.81999 29.4444 9.75527 29.7245L10.3399 29.8596C10.3582 29.7802 10.416 29.7158 10.493 29.6889L10.2953 29.1224ZM10.6152 29.0898C10.558 29.1107 10.4966 29.1172 10.4363 29.1086L10.3519 29.7027C10.5102 29.7252 10.6715 29.7081 10.8215 29.6532L10.6152 29.0898ZM12.9259 26.2218C12.7587 27.5362 11.8662 28.6448 10.6178 29.0888L10.8189 29.6541C12.2805 29.1343 13.3254 27.8364 13.5211 26.2975L12.9259 26.2218ZM14.0215 25.9084C13.7105 25.9377 13.4385 25.9528 13.2142 25.9598L13.2328 26.5595C13.4688 26.5522 13.7535 26.5363 14.0779 26.5057L14.0215 25.9084ZM23.8525 29.0882C23.7344 29.0926 22.2998 29.1363 20.4065 28.7653C18.5111 28.3938 16.1782 27.6109 14.2432 25.9778L13.8562 26.4363C15.8974 28.1591 18.3395 28.9716 20.2911 29.3541C22.2448 29.737 23.729 29.6932 23.8749 29.6877L23.8525 29.0882ZM24.561 29.7241C24.4879 29.412 24.2439 29.1684 23.9317 29.0958L23.7958 29.6802C23.8856 29.701 23.9558 29.7711 23.9768 29.8609L24.561 29.7241ZM24.3909 30.7147C24.5821 30.4212 24.6434 30.0616 24.5603 29.7213L23.9775 29.8637C24.0213 30.043 23.989 30.2325 23.8882 30.3872L24.3909 30.7147ZM23.5507 31.2712C23.8956 31.2097 24.1997 31.0083 24.3909 30.7147L23.8882 30.3872C23.7874 30.5419 23.6271 30.6481 23.4454 30.6805L23.5507 31.2712ZM23.2226 31.5809C23.2625 31.4218 23.3914 31.3007 23.5527 31.2708L23.4434 30.6808C23.0513 30.7535 22.7375 31.0482 22.6406 31.4351L23.2226 31.5809ZM22.8795 32.7613L23.2197 31.5918L22.6435 31.4242L22.3034 32.5937L22.8795 32.7613ZM22.8701 32.8004C22.8728 32.7864 22.8758 32.7738 22.8792 32.7623L22.3037 32.5926C22.294 32.6253 22.2865 32.6576 22.2806 32.6888L22.8701 32.8004ZM17.1582 37.539C19.9543 37.539 22.3541 35.548 22.8702 32.8L22.2805 32.6892C21.8177 35.1535 19.6656 36.939 17.1582 36.939V37.539ZM11.4462 32.8C11.9624 35.548 14.3622 37.539 17.1582 37.539V36.939C14.6508 36.939 12.4988 35.1535 12.0359 32.6892L11.4462 32.8ZM11.4373 32.7623C11.4406 32.7738 11.4437 32.7864 11.4463 32.8004L12.0359 32.6888C12.03 32.6576 12.0224 32.6253 12.0128 32.5926L11.4373 32.7623ZM11.1062 31.6235L11.4369 32.7612L12.0131 32.5937L11.6824 31.456L11.1062 31.6235ZM10.7667 31.2708C10.9347 31.3002 11.0671 31.43 11.0999 31.5974L11.6887 31.4821C11.6082 31.071 11.2827 30.752 10.8701 30.6798L10.7667 31.2708ZM9.92553 30.7141C10.1167 31.0077 10.4208 31.2091 10.7657 31.2706L10.8711 30.68C10.6893 30.6475 10.5291 30.5414 10.4283 30.3867L9.92553 30.7141ZM9.75613 29.7207C9.67301 30.061 9.73432 30.4206 9.92553 30.7141L10.4283 30.3867C10.3275 30.232 10.2952 30.0424 10.339 29.8631L9.75613 29.7207ZM10.3476 29.7921V29.7919H9.74757V29.7921H10.3476ZM17.2304 25.6678C17.6174 26.1013 18.8059 27.2753 20.8798 28.0009L21.0779 27.4345C19.1274 26.7522 18.0198 25.6511 17.678 25.2682L17.2304 25.6678ZM16.0807 26.1769C16.5782 26.0604 17.0693 25.9184 17.5522 25.7515L17.3562 25.1845C16.8927 25.3446 16.4213 25.4809 15.9439 25.5927L16.0807 26.1769ZM21.0304 27.4221C19.5743 27.1684 17.7768 26.6564 16.1738 25.632L15.8507 26.1376C17.5441 27.2198 19.4259 27.7516 20.9274 28.0132L21.0304 27.4221ZM18.6783 25.1076C19.3566 25.7235 20.7936 26.7492 23.0846 27.0755L23.1692 26.4815C21.0237 26.1759 19.6933 25.2188 19.0817 24.6634L18.6783 25.1076ZM21.3007 23.0147C20.5173 23.6469 19.6617 24.1839 18.7517 24.6143L19.0083 25.1567C19.9612 24.7059 20.8572 24.1437 21.6775 23.4817L21.3007 23.0147ZM21.4481 22.6305C21.4711 22.7758 21.4148 22.9224 21.3004 23.015L21.6778 23.4814C21.9588 23.254 22.0972 22.8939 22.0407 22.5368L21.4481 22.6305ZM21.189 22.3103C21.3263 22.3631 21.4251 22.4851 21.4481 22.6305L22.0407 22.5368C21.9843 22.1797 21.7416 21.8799 21.4041 21.7502L21.189 22.3103ZM20.7821 22.3746C20.8965 22.2821 21.0516 22.2575 21.189 22.3103L21.4041 21.7502C21.0667 21.6206 20.6857 21.6808 20.4046 21.9082L20.7821 22.3746ZM12.5723 25.134C12.6567 25.1381 17.0964 25.3574 20.7821 22.3746L20.4046 21.9082C16.8997 24.7447 12.6544 24.5373 12.6018 24.5347L12.5723 25.134ZM12.5732 25.134L12.5737 25.1341L12.6004 24.5346L12.5998 24.5346L12.5732 25.134ZM12.2597 25.2445C12.3427 25.1667 12.4541 25.1266 12.5676 25.1337L12.6054 24.5349C12.3265 24.5173 12.0528 24.6158 11.849 24.8071L12.2597 25.2445ZM12.1298 25.5448C12.1298 25.4311 12.1768 25.3224 12.2597 25.2445L11.849 24.8071C11.6453 24.9984 11.5298 25.2655 11.5298 25.5449L12.1298 25.5448ZM12.1298 25.7833V25.5449H11.5298V25.7833H12.1298ZM11.4125 27.6079C11.8731 27.112 12.1293 26.4604 12.1298 25.7836L11.5298 25.7831C11.5294 26.3086 11.3305 26.8145 10.9729 27.1996L11.4125 27.6079ZM10.8927 25.2641V27.4038H11.4927V25.2641H10.8927ZM17.1598 19.0216C13.7086 19.0216 10.9069 21.8117 10.8927 25.2629L11.4927 25.2653C11.5056 22.1446 14.039 19.6216 17.1598 19.6216V19.0216ZM23.4269 25.2629C23.4126 21.8117 20.6109 19.0216 17.1598 19.0216V19.6216C20.2805 19.6216 22.814 22.1446 22.8269 25.2653L23.4269 25.2629ZM23.4269 26.7785V25.2641H22.8269V26.7785H23.4269ZM17.1582 38.9614C17.9604 38.9614 18.7569 38.8275 19.515 38.5654L19.3189 37.9983C18.6239 38.2387 17.8936 38.3614 17.1582 38.3614L17.1582 38.9614ZM17.4582 38.6618V38.6614H16.8582V38.6618H17.4582ZM14.8013 38.5658C15.5595 38.828 16.356 38.9618 17.1582 38.9618L17.1582 38.3618C16.4228 38.3618 15.6925 38.2391 14.9974 37.9988L14.8013 38.5658ZM15.1994 39.4477V38.2823H14.5994V39.4477H15.1994ZM19.2958 39.1733C17.9341 39.7744 16.3822 39.7744 15.0205 39.1733L14.7782 39.7221C16.2943 40.3914 18.0221 40.3914 19.5381 39.7221L19.2958 39.1733ZM19.117 38.2819V39.4477H19.717V38.2819H19.117ZM25.1736 41.0905C25.5804 41.2232 25.9637 41.4195 26.3091 41.672L26.6632 41.1877C26.2667 40.8977 25.8267 40.6724 25.3596 40.5201L25.1736 41.0905ZM20.7482 39.6562L25.1741 41.0907L25.3591 40.5199L20.9332 39.0854L20.7482 39.6562ZM20.5407 37.6021V39.3708H21.1407V37.6021H20.5407ZM23.6733 32.9859C23.3241 34.7919 22.2405 36.3717 20.6815 37.3479L20.9999 37.8564C22.7 36.7919 23.8816 35.0692 24.2624 33.0998L23.6733 32.9859ZM23.9098 32.1678L23.6798 32.9591L24.256 33.1266L24.486 32.3353L23.9098 32.1678ZM25.3607 29.5247C25.6097 30.544 25.066 31.5902 24.0887 31.9721L24.3071 32.531C25.5644 32.0396 26.2639 30.6936 25.9436 29.3823L25.3607 29.5247ZM24.4281 28.3975C24.8968 28.6076 25.2412 29.0235 25.3603 29.5231L25.944 29.3839C25.7816 28.7031 25.3122 28.1363 24.6735 27.85L24.4281 28.3975ZM24.2508 25.2641V28.1238H24.8508V25.2641H24.2508ZM17.16 18.2006C21.0659 18.2006 24.2363 21.3593 24.2508 25.2652L24.8508 25.263C24.8351 21.0266 21.3964 17.6006 17.16 17.6006V18.2006ZM10.0691 25.2652C10.0836 21.3593 13.2541 18.2006 17.16 18.2006V17.6006C12.9235 17.6006 9.48486 21.0266 9.46914 25.263L10.0691 25.2652ZM10.0691 28.1223V25.2641H9.46914V28.1223H10.0691ZM8.95656 29.5231C9.07589 29.0225 9.42144 28.606 9.89139 28.3963L9.64689 27.8484C9.00645 28.1342 8.53554 28.7018 8.37291 29.384L8.95656 29.5231ZM10.2282 31.9721C9.25087 31.5902 8.70711 30.544 8.95616 29.5247L8.37331 29.3823C8.05289 30.6936 8.75247 32.0397 10.0098 32.531L10.2282 31.9721ZM10.6371 32.9591L10.407 32.1678L9.8309 32.3353L10.0609 33.1266L10.6371 32.9591ZM13.6353 37.3479C12.0763 36.3717 10.9927 34.7919 10.6436 32.9859L10.0545 33.0998C10.4352 35.0692 11.6168 36.7919 13.3169 37.8564L13.6353 37.3479ZM13.7761 39.3708V37.6021H13.1761V39.3708H13.7761ZM9.14288 41.0911L13.5686 39.6562L13.3836 39.0854L8.95784 40.5204L9.14288 41.0911ZM8.0086 41.6726C8.35368 41.4199 8.7367 41.2235 9.14335 41.091L8.95737 40.5205C8.49032 40.6728 8.05041 40.8983 7.65409 41.1885L8.0086 41.6726ZM1.92033 29.7716C1.92009 34.4003 4.02665 38.7774 7.64419 41.665L8.0185 41.1961C4.54359 38.4224 2.5201 34.2178 2.52033 29.7716L1.92033 29.7716ZM17.1584 14.5336C8.75635 14.5336 1.92033 21.3686 1.92033 29.7716H2.52033C2.52033 21.7 9.08769 15.1336 17.1584 15.1336V14.5336ZM32.3964 29.7716C32.3964 21.3691 25.5604 14.5336 17.1584 14.5336V15.1336C25.2291 15.1336 31.7964 21.7004 31.7964 29.7716H32.3964ZM26.6733 41.6647C30.2904 38.777 32.3966 34.4 32.3964 29.7716L31.7964 29.7716C31.7966 34.2176 29.7735 38.4219 26.299 41.1958L26.6733 41.6647ZM26.1862 41.4298V41.4302H26.7862V41.4298H26.1862ZM33.6069 29.2261C33.374 22.109 28.6018 16.1215 22.099 14.0708L21.9186 14.6431C28.1852 16.6193 32.7828 22.39 33.0073 29.2458L33.6069 29.2261ZM39.6678 19.7398C39.7468 23.8879 37.1365 27.6116 33.2102 28.952L33.404 29.5198C37.5772 28.0951 40.3516 24.1373 40.2677 19.7284L39.6678 19.7398ZM32.8642 10.7801C36.8387 11.9701 39.5888 15.5918 39.6678 19.7398L40.2677 19.7284C40.1837 15.3196 37.2607 11.4701 33.0363 10.2053L32.8642 10.7801ZM22.2563 14.5266C24.6018 11.1045 28.8898 9.59007 32.8642 10.7801L33.0363 10.2053C28.812 8.94045 24.2544 10.5501 21.7613 14.1873L22.2563 14.5266ZM32.2498 34.6441C31.9321 35.6256 31.5188 36.5736 31.0159 37.4743L31.5397 37.7668C32.0618 36.8318 32.4908 35.8478 32.8207 34.8289L32.2498 34.6441ZM32.5558 37.6494L32.8339 34.7653L32.2366 34.7077L31.9586 37.5918L32.5558 37.6494ZM31.2778 37.9206H32.2572V37.3206H31.2778V37.9206ZM47.7505 21.7524L44.371 22.0821L44.4292 22.6792L47.8088 22.3495L47.7505 21.7524ZM47.4796 17.7899V22.051H48.0796V17.7899H47.4796ZM44.324 17.7577L47.7508 18.0886L47.8085 17.4913L44.3817 17.1605L44.324 17.7577ZM43.5218 17.0448C43.6057 17.4316 43.9301 17.7199 44.3241 17.7578L44.3816 17.1605C44.2473 17.1476 44.1368 17.0494 44.1081 16.9175L43.5218 17.0448ZM41.5924 12.467C42.514 13.8599 43.1683 15.4123 43.5218 17.0447L44.1082 16.9177C43.739 15.2125 43.0555 13.591 42.0928 12.1359L41.5924 12.467ZM41.6493 11.3825C41.3928 11.6922 41.37 12.1334 41.593 12.4679L42.0922 12.1351C42.0162 12.0211 42.024 11.8707 42.1114 11.7652L41.6493 11.3825ZM43.8376 8.73996L41.6493 11.3825L42.1114 11.7652L44.2998 9.12265L43.8376 8.73996ZM40.897 6.14584L43.8552 9.14207L44.2822 8.72053L41.324 5.72429L40.897 6.14584ZM38.6639 8.35034L41.3018 6.16614L40.9192 5.70399L38.2812 7.88819L38.6639 8.35034ZM37.5899 8.41417C37.9235 8.6294 38.3581 8.60356 38.6639 8.35031L38.2812 7.88823C38.177 7.97453 38.0289 7.98334 37.9152 7.90999L37.5899 8.41417ZM33.0001 6.47747C34.6337 6.84062 36.1881 7.49638 37.5882 8.41307L37.9169 7.91109C36.4562 6.95475 34.8346 6.27063 33.1303 5.89177L33.0001 6.47747ZM32.2886 5.67548C32.3265 6.06951 32.6147 6.39385 33.0016 6.4778L33.1288 5.89145C32.997 5.86284 32.8988 5.75231 32.8859 5.61803L32.2886 5.67548ZM31.9583 2.24842L32.2886 5.67554L32.8859 5.61798L32.5555 2.19086L31.9583 2.24842ZM27.9968 2.51964H32.2569V1.91964H27.9968V2.51964ZM27.9651 5.67554L28.2954 2.24842L27.6982 2.19086L27.3679 5.61798L27.9651 5.67554ZM27.2522 6.4778C27.639 6.39385 27.9272 6.06951 27.9651 5.67548L27.3679 5.61803C27.355 5.75231 27.2568 5.86284 27.1249 5.89145L27.2522 6.4778ZM22.6743 8.40719C24.0673 7.48555 25.6196 6.83129 27.252 6.47783L27.1251 5.89142C25.4199 6.26064 23.7983 6.94407 22.3432 7.9068L22.6743 8.40719ZM21.5899 8.35035C21.8995 8.60669 22.3407 8.62957 22.6751 8.40663L22.3424 7.90737C22.2284 7.98334 22.0781 7.97554 21.9726 7.88819L21.5899 8.35035ZM18.95 6.16387L21.5899 8.35031L21.9726 7.88822L19.3327 5.70178L18.95 6.16387ZM16.3519 9.14619L19.3535 6.14497L18.9292 5.72068L15.9277 8.7219L16.3519 9.14619ZM18.5573 11.3825L16.3709 8.74268L15.9088 9.12541L18.0952 11.7652L18.5573 11.3825ZM18.6212 12.4563C18.8363 12.1228 18.8105 11.6882 18.5573 11.3825L18.0952 11.7652C18.1815 11.8694 18.1903 12.0175 18.117 12.1311L18.6212 12.4563ZM17.8703 13.7564C18.0957 13.317 18.3466 12.882 18.6212 12.4563L18.117 12.1311C17.8318 12.5733 17.571 13.0254 17.3365 13.4825L17.8703 13.7564ZM20.8364 13.7278C19.7776 13.4854 18.6973 13.3486 17.6114 13.3195L17.5954 13.9193C18.6416 13.9473 19.6824 14.0791 20.7025 14.3126L20.8364 13.7278ZM33.2477 8.9943C28.394 7.6084 23.2079 9.59043 20.5157 13.8602L21.0232 14.1802C23.5733 10.1359 28.4856 8.25852 33.083 9.57124L33.2477 8.9943ZM41.4909 19.8493C41.4591 14.8018 38.1014 10.3802 33.2477 8.9943L33.083 9.57124C37.6804 10.884 40.8608 15.0721 40.8909 19.8531L41.4909 19.8493ZM33.3851 30.8073C38.2209 29.3604 41.5227 24.8969 41.4909 19.8493L40.8909 19.8531C40.921 24.6342 37.7936 28.862 33.2131 30.2325L33.3851 30.8073ZM33.1052 33.8502C33.3826 32.7644 33.548 31.653 33.5988 30.5335L32.9994 30.5063C32.9505 31.5849 32.7911 32.6556 32.5239 33.7017L33.1052 33.8502ZM33.0025 33.3624C32.8649 33.3924 32.7361 33.454 32.6264 33.5423L33.0026 34.0097C33.0398 33.9797 33.0835 33.9589 33.1302 33.9487L33.0025 33.3624ZM37.5804 31.4325C36.1876 32.3544 34.6353 33.0088 33.0028 33.3624L33.1298 33.9488C34.8351 33.5795 36.4566 32.8958 37.9116 31.9329L37.5804 31.4325ZM38.665 31.4895C38.3554 31.233 37.9142 31.2101 37.5796 31.4331L37.9124 31.9323C38.0264 31.8563 38.1768 31.8642 38.2823 31.9516L38.665 31.4895ZM41.3049 33.6759L38.665 31.4895L38.2823 31.9516L40.9222 34.138L41.3049 33.6759ZM43.9025 30.6936L40.9014 33.6948L41.3257 34.1191L44.3268 31.1179L43.9025 30.6936ZM41.6972 28.4573L43.8836 31.0971L44.3457 30.7144L42.1593 28.0746L41.6972 28.4573ZM41.6333 27.3833C41.4181 27.7169 41.4439 28.1516 41.6972 28.4573L42.1593 28.0746C42.073 27.9704 42.0642 27.8223 42.1375 27.7086L41.6333 27.3833ZM43.5701 22.7935C43.2069 24.4271 42.5511 25.9815 41.6344 27.3816L42.1364 27.7103C43.0927 26.2496 43.7769 24.628 44.1558 22.9237L43.5701 22.7935ZM44.371 22.0821C43.9774 22.1204 43.6536 22.4085 43.5698 22.795L44.1562 22.9222C44.1847 22.7905 44.2951 22.6923 44.4292 22.6792L44.371 22.0821Z" fill="white"/>
</svg>
