<svg width="48" height="48" viewBox="0 0 48 48" fill="none" xmlns="http://www.w3.org/2000/svg">
<path fill-rule="evenodd" clip-rule="evenodd" d="M25.7101 16.6433C24.8123 16.9551 23.8686 17.1145 22.9182 17.1148C18.1921 17.1148 14.3608 13.2835 14.3608 8.55738C14.3608 3.83127 18.1921 0 22.9182 0C27.6443 0 31.4756 3.83127 31.4756 8.55738C31.4805 10.4416 30.8571 12.2736 29.7039 13.7637L30.8521 16.4635C30.9508 16.6957 30.9147 16.9634 30.7578 17.161C30.6009 17.3587 30.3485 17.4547 30.0999 17.4112L25.7101 16.6433ZM29.4459 5.53794C28.2705 2.99416 25.7204 1.36869 22.9182 1.37705C20.0475 1.37655 17.4525 3.08624 16.3201 5.72415C15.1878 8.36205 15.7357 11.4209 17.7134 13.5017C19.6911 15.5825 22.7182 16.2851 25.4102 15.2881C25.5245 15.2458 25.648 15.2345 25.768 15.2554L29.089 15.8364L28.2747 13.9217C28.1726 13.6816 28.2149 13.4045 28.384 13.2058C30.2065 11.0772 30.6213 8.08171 29.4459 5.53794Z" fill="white"/>
<path d="M21.087 11.4154C21.2162 11.5445 21.3913 11.6171 21.5739 11.6171C21.7565 11.6171 21.9317 11.5445 22.0608 11.4154L26.4969 6.97989C26.7658 6.71099 26.7658 6.27502 26.4969 6.00612C26.228 5.73722 25.792 5.73722 25.5231 6.00612L21.5744 9.95471L20.3141 8.69441C20.0452 8.42551 19.6092 8.42551 19.3403 8.69441C19.0714 8.96331 19.0714 9.39928 19.3403 9.66818L21.087 11.4154Z" fill="white"/>
<path fill-rule="evenodd" clip-rule="evenodd" d="M22.328 47.9386H0.688656C0.308394 47.9386 0.000131497 47.6304 0.000131497 47.2501V43.7315C-0.00240481 43.4144 0.0317567 43.098 0.101935 42.7887C0.11505 42.7332 0.129017 42.6783 0.143836 42.6241C0.540508 41.2146 1.62168 40.1005 3.01862 39.6617L7.70236 38.1431V36.2117C5.99125 35.151 4.80113 33.4237 4.41957 31.447L4.16934 30.5862C3.00883 30.1484 2.35784 28.9131 2.65272 27.7083C2.79952 27.0922 3.23034 26.5826 3.81338 26.3353V23.2989C3.82853 19.059 7.26992 15.6299 11.5099 15.6299C15.7498 15.6299 19.1912 19.059 19.2063 23.2989V26.3367C19.7877 26.5846 20.2171 27.0937 20.3634 27.7086C20.6583 28.9133 20.0073 30.1486 18.8468 30.5862L18.5966 31.447C18.215 33.4237 17.0249 35.151 15.3138 36.2117V38.1431L19.998 39.6617C21.3951 40.1006 22.4763 41.2149 22.8729 42.6245C22.8877 42.6783 22.9016 42.7331 22.9145 42.788C22.9848 43.0975 23.0191 43.4141 23.0165 43.7315V47.2501C23.0165 47.6304 22.7083 47.9386 22.328 47.9386ZM16.2936 26.0505C14.0147 25.4435 12.6271 24.2616 12.0474 23.6715C11.4943 23.8081 10.9121 23.9232 10.3009 24.0167C12.3384 25.3106 14.6474 25.8374 16.2936 26.0505ZM5.19043 23.2989C5.19043 19.8086 8.01984 16.9792 11.5101 16.9792C15.0004 16.9792 17.8298 19.8086 17.8298 23.2989V24.9562C15.7611 24.6758 14.3712 23.8381 13.5894 23.212C14.6538 22.8485 15.6549 22.3211 16.5566 21.6489C16.8583 21.4174 16.9152 20.9851 16.6837 20.6833C16.4522 20.3816 16.0199 20.3247 15.7182 20.5562C12.2887 23.1865 6.12987 22.9089 6.0683 22.9059C5.88525 22.8966 5.70603 22.9605 5.57031 23.0837C5.4346 23.2069 5.35359 23.3791 5.34525 23.5622L5.22938 26.1068C5.22794 26.1515 5.21434 26.195 5.19003 26.2325L5.19043 23.2989ZM5.75148 31.0939C5.75767 31.1152 5.76289 31.137 5.76702 31.1589H5.76682C6.28613 33.9206 8.69805 35.9212 11.5081 35.9212C14.3182 35.9212 16.7301 33.9206 17.2494 31.1589C17.2536 31.137 17.2588 31.1152 17.265 31.0939L17.6127 29.8976C17.6666 29.6167 17.8886 29.3984 18.1703 29.3492C18.4625 29.2972 18.7203 29.1267 18.8824 28.878C19.0445 28.6293 19.0965 28.3247 19.026 28.0363C18.9711 27.8011 18.7859 27.6184 18.55 27.5666C18.548 27.5672 18.5461 27.5672 18.5442 27.5672C18.2926 27.5772 12.443 27.7586 8.27816 24.2382C7.63302 24.2819 7.08662 24.2942 6.69043 24.2942L6.60505 26.1694C6.58095 26.6981 6.30124 27.1821 5.85514 27.467C5.40905 27.7519 4.85228 27.8021 4.36243 27.6016C4.17474 27.6767 4.03581 27.839 3.99062 28.036C3.97018 28.12 3.95988 28.2061 3.95993 28.2926C3.95879 28.8135 4.33296 29.2596 4.84616 29.3492C5.12791 29.3984 5.34986 29.6167 5.40377 29.8976L5.75148 31.0939ZM11.5083 37.2985C12.336 37.2987 13.1575 37.1561 13.9368 36.877V38.2218C12.392 38.9151 10.6246 38.9151 9.0799 38.2218V36.877C9.85911 37.1561 10.6806 37.2987 11.5083 37.2985ZM1.44289 43.1017C1.39685 43.3084 1.37481 43.5196 1.37718 43.7313V46.5613H21.6395V43.7313C21.6418 43.5194 21.6197 43.3079 21.5736 43.1011C21.5648 43.064 21.555 43.0264 21.5451 42.9892C21.2706 42.0268 20.529 41.2679 19.5732 40.9713L14.6916 39.3885C12.6809 40.3615 10.3357 40.3615 8.32508 39.3885L3.44344 40.9713C2.48775 41.2678 1.74621 42.0266 1.47161 42.9888C1.46118 43.0264 1.45174 43.064 1.44289 43.1017Z" fill="white"/>
<path d="M38.5146 44.301H37.8389C37.4587 44.301 37.1504 44.6093 37.1504 44.9895C37.1504 45.3698 37.4587 45.6781 37.8389 45.6781H38.5146C38.8948 45.6781 39.2031 45.3698 39.2031 44.9895C39.2031 44.6093 38.8948 44.301 38.5146 44.301V44.301Z" fill="white"/>
<path fill-rule="evenodd" clip-rule="evenodd" d="M28.5333 26.0478L28.5263 23.6264L28.5265 23.6266C28.5233 20.8459 30.0079 18.2758 32.4183 16.8893C34.8287 15.5027 37.7967 15.5115 40.1989 16.9122C42.6011 18.3129 44.0705 20.8917 44.0509 23.6724L44.0411 26.3253C44.5742 26.5638 44.9659 27.0368 45.1009 27.6049C45.3234 28.5142 44.9718 29.4676 44.2123 30.0147L44.7689 32.7135C45.2269 34.933 44.162 37.1879 42.157 38.2443L45.0402 39.2214C46.6924 39.7808 47.8041 41.3314 47.8035 43.0758V47.25C47.8035 47.6303 47.4952 47.9385 47.115 47.9385H25.4756C25.0954 47.9385 24.7871 47.6303 24.7871 47.25V43.0758C24.7863 41.3312 25.8979 39.7804 27.5503 39.2209L30.2667 38.3004C28.286 37.1439 27.3222 34.8065 27.912 32.59L28.5654 30.1348C27.6854 29.6231 27.2474 28.593 27.4894 27.6042C27.6235 27.0398 28.011 26.5691 28.5392 26.3292L28.5333 26.0636V26.0478ZM29.2428 32.9446C28.9592 34.0065 29.161 35.1394 29.7937 36.0381C30.3961 36.8984 31.337 37.461 32.3801 37.5845L32.768 37.453V36.4353C32.0035 36.0397 31.3173 35.5085 30.7427 34.8676C30.1457 34.2047 29.6677 33.4436 29.3298 32.6181L29.2428 32.9446ZM40.4363 39.1152L36.9776 42.4785V41.0705L39.3186 38.736L40.4363 39.1152ZM35.6006 41.0571L33.2734 38.7363L32.1555 39.1149L35.6006 42.4649V41.0571ZM38.4462 37.6613L36.2953 39.8053L34.145 37.661V36.9534C34.6468 37.0797 35.1621 37.1439 35.6795 37.1445H36.9108C37.4282 37.1439 37.9436 37.0797 38.4453 36.9534L38.4462 37.6613ZM27.9925 40.5256C26.8993 40.8957 26.1638 41.9216 26.1642 43.0758V46.5615H35.6V44.3857L30.6902 39.6113L27.9925 40.5256ZM46.4265 43.0758V46.5615H36.977V44.3987L41.9004 39.611L44.5981 40.5253C45.6914 40.8954 46.427 41.9215 46.4265 43.0758ZM39.8567 37.4544C40.9604 37.4341 41.9975 36.9223 42.6851 36.0587C43.375 35.197 43.6445 34.0724 43.4202 32.9915L43.3149 32.4813C42.9749 33.3593 42.4777 34.168 41.8477 34.8677C41.273 35.5085 40.5868 36.0397 39.8224 36.4354V37.4533L39.8567 37.4649V37.4544ZM43.7635 27.9322C43.781 28.004 43.7898 28.0777 43.7897 28.1516C43.7907 28.5969 43.471 28.9782 43.0323 29.0548C42.7013 29.1168 42.4617 29.4062 42.4625 29.743C42.4499 31.2964 41.8679 32.7912 40.8268 33.9442C39.7627 35.1202 38.3721 35.7679 36.911 35.7679H35.6796C34.2185 35.7679 32.8279 35.1202 31.7638 33.9442C30.7209 32.7884 30.1388 31.2898 30.1281 29.7331C30.1281 29.3987 29.8877 29.1126 29.5583 29.0549C29.1196 28.9783 28.7999 28.597 28.8009 28.1517C28.8009 28.0778 28.8097 28.0041 28.8271 27.9323C28.8814 27.7095 29.0743 27.5479 29.3031 27.5334C29.5114 27.5141 29.6996 27.4012 29.8146 27.2265C30.6136 27.4071 31.4319 27.0142 31.7906 26.2777C31.8131 26.2281 31.8463 26.1841 31.8877 26.1487C32.9859 26.0873 34.9871 25.9742 37.0191 24.7427C38.5911 26.1886 40.6137 27.048 42.7457 27.1758C42.8549 27.3779 43.0579 27.5121 43.2867 27.5334C43.5158 27.5476 43.7091 27.7092 43.7635 27.9322ZM40.8182 19.1238C39.6196 17.9175 37.9892 17.2391 36.2886 17.2392C32.7639 17.2431 29.9075 20.0994 29.9033 23.6242L29.9094 25.7618L29.9263 25.7785C30.0433 25.8951 30.2208 25.9257 30.3702 25.8552C30.4485 25.8189 30.512 25.7569 30.5504 25.6796C30.8057 25.1495 31.2781 24.8029 31.7832 24.7747L31.8087 24.7733L31.8089 24.7733C33.5025 24.6787 37.0262 24.4818 39.4685 20.1586C39.5895 19.9444 39.8156 19.8111 40.0616 19.8088C40.3076 19.8065 40.5361 19.9356 40.661 20.1475C40.786 20.3594 40.7884 20.6219 40.6674 20.836C39.9087 22.179 39.0502 23.1763 38.166 23.9192C39.4315 25.001 41.0065 25.6551 42.666 25.7881L42.6737 23.6655C42.6847 21.9649 42.0168 20.3302 40.8182 19.1238Z" fill="white"/>
</svg>
