<svg width="48" height="48" viewBox="0 0 48 48" fill="none" xmlns="http://www.w3.org/2000/svg">
<path d="M40.1708 39.05C39.4032 39.4521 38.5613 39.7012 37.6683 39.7906C37.4766 39.8098 37.3011 39.9068 37.183 40.0591C37.0648 40.2113 37.0143 40.4053 37.0432 40.5959C37.0836 40.8616 37.1024 41.0805 37.1024 41.2849C37.1024 44.2122 34.3212 46.5938 30.9028 46.5938C28.4125 46.5938 26.1722 45.324 25.195 43.3586C24.9745 42.9155 24.5166 42.6401 24.0001 42.6401C23.4835 42.6401 23.0255 42.9155 22.805 43.3588C21.828 45.3239 19.5875 46.5937 17.0973 46.5937C13.6788 46.5937 10.8977 44.2121 10.8977 41.2848C10.8977 41.0805 10.9166 40.8616 10.9569 40.5958C10.9584 40.5844 11.1308 39.4176 11.9307 38.646C12.2102 38.3764 12.2181 37.9312 11.9486 37.6518C11.6789 37.3723 11.2337 37.3642 10.9544 37.6339C10.2632 38.3005 9.90587 39.1277 9.72775 39.7032C8.09078 39.3929 6.63484 38.5087 5.75406 37.2681C5.52925 36.9514 5.09031 36.877 4.77372 37.1017C4.45703 37.3265 4.38259 37.7655 4.6074 38.0821C5.71918 39.6484 7.47456 40.7216 9.49534 41.0916C9.49281 41.1568 9.4915 41.221 9.4915 41.2848C9.4915 44.9875 12.9035 48 17.0973 48C20.0647 48 22.7571 46.4777 24.0001 44.1103C25.2432 46.4778 27.9355 48 30.9028 48C35.0967 48 38.5086 44.9875 38.5086 41.2848C38.5086 41.221 38.5073 41.1567 38.5048 41.0915C39.3214 40.9417 40.0988 40.6751 40.8232 40.2956C41.1672 40.1154 41.3 39.6905 41.1198 39.3465C40.9397 39.0025 40.5148 38.8697 40.1708 39.05V39.05Z" fill="white"/>
<path d="M4.85766 34.5211C4.85766 33.2494 5.39213 31.9824 6.32409 31.0451C6.50391 30.8643 6.57178 30.6002 6.50128 30.355C6.43078 30.1099 6.23306 29.9222 5.98462 29.8644C3.28894 29.2385 1.40625 27.1358 1.40625 24.7513C1.40625 23.2682 2.09709 21.8587 3.35147 20.7826C3.50156 20.6538 3.59044 20.4679 3.59644 20.2702C3.60244 20.0725 3.52491 19.8815 3.38287 19.7439C2.66466 19.0481 2.26912 18.1576 2.26912 17.2363C2.26912 15.1706 4.17234 13.5019 6.60206 13.4372C6.61303 13.4373 7.68544 13.4549 8.43909 14.1216C8.57287 14.2399 8.73909 14.298 8.90466 14.298C9.09909 14.298 9.29269 14.2178 9.43163 14.0607C9.68888 13.7698 9.66159 13.3254 9.37078 13.0682C8.559 12.3503 7.55212 12.1288 6.99703 12.0608C6.72553 11.562 6.58331 11.0189 6.58331 10.4728C6.58331 9.31106 7.19775 8.22684 8.26912 7.49821C8.59022 7.27977 8.67347 6.84252 8.45512 6.52143C8.23678 6.20034 7.79944 6.11699 7.47834 6.33543C6.01584 7.33002 5.17716 8.83809 5.17716 10.4728C5.17716 11.0431 5.28394 11.6084 5.49038 12.146C2.82384 12.6505 0.862969 14.7292 0.862969 17.2364C0.862969 18.3069 1.23112 19.3398 1.91194 20.2079C0.673781 21.4845 0 23.0745 0 24.7513C0 27.4604 1.84762 29.871 4.60828 30.9136C3.86447 31.978 3.45141 33.2458 3.45141 34.521C3.45141 34.9093 3.76622 35.2241 4.15453 35.2241C4.54284 35.2241 4.85766 34.9094 4.85766 34.5211Z" fill="white"/>
<path d="M47.9998 24.7514C47.9998 23.0744 47.326 21.4844 46.0878 20.2078C46.7686 19.3397 47.1368 18.3068 47.1368 17.2364C47.1368 14.7292 45.1759 12.6504 42.5094 12.146C42.7159 11.6084 42.8227 11.043 42.8227 10.4728C42.8227 7.5988 40.1849 5.26058 36.9424 5.26058C36.8778 5.26058 36.8083 5.26199 36.7358 5.26471C36.5559 3.93861 35.8638 2.70092 34.7469 1.72958C33.4889 0.635706 31.8513 0.0216434 30.1354 0.000549614C27.5418 -0.0305754 25.1502 1.26252 23.9998 3.30739C22.8496 1.26271 20.456 -0.0283254 17.8642 0.000643364C16.1484 0.0217371 14.5107 0.635706 13.2527 1.72977C12.1358 2.70102 11.4438 3.93852 11.2638 5.2648C11.1913 5.26208 11.1219 5.26067 11.0571 5.26067C10.6688 5.26067 10.354 5.57549 10.354 5.9638C10.354 6.35211 10.6688 6.66692 11.0571 6.66692C11.2719 6.66692 11.5713 6.68877 11.8383 6.72392C12.0485 6.75186 12.2605 6.68286 12.4145 6.53661C12.5685 6.39046 12.6481 6.18252 12.6312 5.97092L12.6271 5.92349C12.6258 5.91102 12.6243 5.89864 12.6239 5.89264C12.6667 3.49555 15.0744 1.4413 17.8817 1.40689C20.0013 1.38261 21.9405 2.43074 22.8207 4.08139C23.0467 4.50561 23.4986 4.76914 24.0001 4.76914C24.5015 4.76914 24.9533 4.50561 25.1793 4.08158C26.0597 2.43074 27.9948 1.38205 30.1185 1.40689C32.9233 1.4413 35.3294 3.49274 35.3761 5.88074C35.3761 5.89461 35.3562 7.29542 34.6003 8.19871C34.3511 8.49655 34.3905 8.93999 34.6882 9.18917C34.8198 9.29933 34.9799 9.35305 35.1392 9.35305C35.3402 9.35305 35.5397 9.26736 35.6788 9.10114C36.3335 8.31871 36.5999 7.34511 36.7082 6.67358C36.7927 6.66917 36.8723 6.66683 36.9427 6.66683C39.4097 6.66683 41.4168 8.37421 41.4168 10.4728C41.4168 11.1239 41.2145 11.771 40.8319 12.3439C40.6897 12.5568 40.6745 12.8302 40.7923 13.0576C40.9099 13.2849 41.142 13.4304 41.3979 13.4372C43.8276 13.5019 45.7308 15.1707 45.7308 17.2363C45.7308 18.1515 45.3405 19.0363 44.6313 19.73C44.5509 19.804 43.8576 20.4998 42.8772 20.5778C42.4901 20.6087 42.2013 20.9474 42.232 21.3345C42.2613 21.7026 42.5691 21.9819 42.9321 21.9819C42.9508 21.9819 42.9696 21.9812 42.9887 21.9797C43.8796 21.9088 44.6121 21.51 45.0747 21.183C46.0582 22.1973 46.5935 23.4457 46.5935 24.7515C46.5935 27.136 44.7108 29.2386 42.0153 29.8645C41.7668 29.9222 41.5691 30.11 41.4986 30.355C41.4281 30.6002 41.4959 30.8643 41.6757 31.0451C42.6077 31.9826 43.1422 33.2496 43.1422 34.5212C43.1422 35.4108 42.8794 36.2907 42.3824 37.0659C42.1728 37.3928 42.2678 37.8277 42.5947 38.0374C42.7122 38.1127 42.8436 38.1487 42.9737 38.1487C43.2052 38.1487 43.4319 38.0345 43.5662 37.825C44.2088 36.8228 44.5485 35.6804 44.5485 34.5212C44.5485 33.2462 44.1354 31.9783 43.3916 30.9138C46.1522 29.8713 47.9998 27.4606 47.9998 24.7514V24.7514Z" fill="white"/>
<path fill-rule="evenodd" clip-rule="evenodd" d="M14.468 14.8806C14.511 14.5687 14.7563 14.3234 15.0682 14.2804C15.108 14.2749 17.0105 14.0183 19.9839 13.8688V11.9159C19.1654 11.6257 18.5776 10.8437 18.5776 9.927C18.5776 8.76385 19.5238 7.81763 20.687 7.81763C21.8501 7.81763 22.7964 8.76385 22.7964 9.927C22.7964 10.8438 22.2085 11.6258 21.3901 11.9159V13.8101C22.9523 13.7581 24.7309 13.7428 26.6401 13.8029V11.9159C25.8217 11.6257 25.2339 10.8437 25.2339 9.927C25.2339 8.76385 26.1801 7.81763 27.3432 7.81763C28.5064 7.81763 29.4526 8.76385 29.4526 9.927C29.4526 10.8438 28.8648 11.6258 28.0464 11.9159V13.8604C29.6161 13.9393 31.2559 14.0723 32.922 14.2791C33.2418 14.3187 33.4936 14.5706 33.5333 14.8903C33.7407 16.5618 33.8739 18.2067 33.9527 19.7811H35.9115C36.2018 18.9626 36.9837 18.3748 37.9004 18.3748C39.0636 18.3748 40.0098 19.321 40.0098 20.4842C40.0098 21.6473 39.0636 22.5936 37.9004 22.5936C36.9836 22.5936 36.2017 22.0058 35.9115 21.1873H34.0098C34.0696 23.097 34.0539 24.8756 34.0016 26.4373H35.9115C36.2018 25.6189 36.9837 25.0311 37.9004 25.0311C39.0636 25.0311 40.0098 25.9773 40.0098 27.1404C40.0098 28.3036 39.0636 29.2498 37.9004 29.2498C36.9836 29.2498 36.2017 28.662 35.9115 27.8436H33.9428C33.7933 30.8082 33.5376 32.7043 33.532 32.7441C33.489 33.056 33.2438 33.3012 32.9319 33.3443C32.8922 33.3497 31.0022 33.6047 28.0464 33.7541V35.7086C28.8649 35.9989 29.4527 36.7808 29.4527 37.6975C29.4527 38.8607 28.5065 39.8069 27.3433 39.8069C26.1802 39.8069 25.2339 38.8607 25.2339 37.6975C25.2339 36.7808 25.8218 35.9988 26.6402 35.7086V33.8134C25.7734 33.8425 24.8395 33.8604 23.8535 33.8604C23.0634 33.8604 22.2398 33.8489 21.3902 33.8225V35.7086C22.2086 35.9989 22.7964 36.7808 22.7964 37.6975C22.7964 38.8607 21.8502 39.8069 20.6871 39.8069C19.5239 39.8069 18.5777 38.8607 18.5777 37.6975C18.5777 36.7808 19.1655 35.9988 19.9839 35.7086V33.7657C18.4051 33.687 16.7551 33.5537 15.078 33.3456C14.7582 33.3059 14.5064 33.054 14.4668 32.7343C14.2593 31.0628 14.1262 29.4179 14.0473 27.8436H12.1188C11.8285 28.662 11.0466 29.2498 10.1299 29.2498C8.96673 29.2498 8.02051 28.3036 8.02051 27.1404C8.02051 25.9773 8.96673 25.0311 10.1299 25.0311C11.0467 25.0311 11.8286 25.6189 12.1188 26.4373H13.9902C13.9304 24.5276 13.9462 22.749 13.9984 21.1873H12.1188C11.8285 22.0058 11.0466 22.5936 10.1299 22.5936C8.96673 22.5936 8.02051 21.6473 8.02051 20.4842C8.02051 19.321 8.96673 18.3748 10.1299 18.3748C11.0467 18.3748 11.8286 18.9626 12.1188 19.7811H14.0573C14.2067 16.8164 14.4624 14.9203 14.468 14.8806ZM9.42676 20.4843C9.42676 20.872 9.74213 21.1874 10.1299 21.1874C10.5175 21.1874 10.833 20.872 10.833 20.4843C10.833 20.0965 10.5176 19.7812 10.1299 19.7812C9.74213 19.7812 9.42676 20.0965 9.42676 20.4843ZM10.1299 27.8437C9.74213 27.8437 9.42676 27.5283 9.42676 27.1405C9.42676 26.7528 9.74213 26.4374 10.1299 26.4374C10.5176 26.4374 10.833 26.7528 10.833 27.1405C10.833 27.5283 10.5175 27.8437 10.1299 27.8437ZM38.6034 27.1405C38.6034 26.7528 38.288 26.4374 37.9002 26.4374C37.5125 26.4374 37.1971 26.7528 37.1971 27.1405C37.1971 27.5283 37.5125 27.8437 37.9002 27.8437C38.288 27.8437 38.6034 27.5283 38.6034 27.1405ZM37.9002 19.7812C38.288 19.7812 38.6034 20.0965 38.6034 20.4843C38.6034 20.872 38.288 21.1874 37.9002 21.1874C37.5125 21.1874 37.1971 20.872 37.1971 20.4843C37.1971 20.0965 37.5125 19.7812 37.9002 19.7812ZM19.9838 37.6976C19.9838 38.0854 20.2991 38.4008 20.6869 38.4008C21.0746 38.4008 21.39 38.0854 21.39 37.6976C21.39 37.3099 21.0746 36.9945 20.6869 36.9945C20.2991 36.9945 19.9838 37.3099 19.9838 37.6976ZM27.3431 38.4008C26.9554 38.4008 26.64 38.0854 26.64 37.6976C26.64 37.3099 26.9554 36.9945 27.3431 36.9945C27.7309 36.9945 28.0463 37.3099 28.0463 37.6976C28.0463 38.0854 27.7309 38.4008 27.3431 38.4008ZM28.0463 9.92719C28.0463 9.53944 27.7309 9.22406 27.3431 9.22406C26.9554 9.22406 26.64 9.53944 26.64 9.92719C26.64 10.3149 26.9554 10.6303 27.3431 10.6303C27.7309 10.6303 28.0463 10.3149 28.0463 9.92719ZM20.6869 9.22406C21.0746 9.22406 21.39 9.53944 21.39 9.92719C21.39 10.3149 21.0746 10.6303 20.6869 10.6303C20.2991 10.6303 19.9838 10.3149 19.9838 9.92719C19.9838 9.53944 20.2991 9.22406 20.6869 9.22406ZM32.2038 32.0162C32.4226 30.0825 33.0717 23.1781 32.2029 15.6095C24.634 14.7406 17.7297 15.3896 15.7961 15.6085C15.5773 17.5422 14.9282 24.4466 15.7971 32.0153C23.3658 32.8841 30.2702 32.235 32.2038 32.0162Z" fill="white"/>
<path d="M19.4299 29.0411C20.9911 29.1376 22.4869 29.1739 23.8554 29.1739C25.7111 29.1739 27.3321 29.107 28.5611 29.0326C28.9159 29.0111 29.1989 28.7281 29.2204 28.3732C29.3497 26.2377 29.4562 22.92 29.2289 19.2422C29.2069 18.8881 28.9246 18.6057 28.5704 18.5838C27.3722 18.5097 26.1306 18.4659 24.88 18.4536C24.4924 18.4508 24.1738 18.7615 24.17 19.1498C24.1662 19.5381 24.4779 19.856 24.8662 19.8598C25.8771 19.8697 26.8816 19.9006 27.8609 19.9518C28.0185 22.9724 27.9537 25.7074 27.852 27.6639C25.8957 27.7657 23.161 27.8306 20.1397 27.6729C19.982 24.6523 20.0469 21.9171 20.1486 19.9607C20.5832 19.938 21.0208 19.9189 21.4558 19.9036C21.8439 19.8899 22.1474 19.5643 22.1338 19.1762C22.1201 18.788 21.7941 18.4848 21.4064 18.4982C20.7503 18.5212 20.0885 18.5528 19.4393 18.5922C19.0845 18.6137 18.8015 18.8967 18.78 19.2515C18.6507 21.3871 18.5442 24.7048 18.7715 28.3826C18.7934 28.7369 19.0757 29.0193 19.4299 29.0411V29.0411Z" fill="white"/>
<circle cx="22.3594" cy="22.2656" r="0.703125" fill="white"/>
<ellipse cx="22.358" cy="25.3623" rx="0.703247" ry="0.703153" transform="rotate(-0.515648 22.358 25.3623)" fill="white"/>
<ellipse cx="25.6304" cy="22.2549" rx="0.703153" ry="0.703247" transform="rotate(-89.4844 25.6304 22.2549)" fill="white"/>
<ellipse cx="25.6304" cy="25.3471" rx="0.703153" ry="0.703247" transform="rotate(-89.4844 25.6304 25.3471)" fill="white"/>
</svg>
