<svg width="48" height="48" viewBox="0 0 48 48" fill="none" xmlns="http://www.w3.org/2000/svg">
<path d="M26.4032 5.86186C26.0073 5.80724 25.6421 6.08391 25.5874 6.47983C25.5328 6.87574 25.8095 7.24097 26.2054 7.29559C33.6552 8.32342 39.5123 14.1806 40.54 21.6305C40.5893 21.9882 40.8948 22.2548 41.2559 22.2553C41.2893 22.2553 41.3227 22.253 41.3558 22.2484C41.7516 22.1938 42.0282 21.8286 41.9737 21.4328C40.8576 13.3407 34.4958 6.97844 26.4038 5.86186H26.4032Z" fill="white"/>
<path d="M21.4325 41.9734C21.8265 42.0245 22.188 41.7483 22.2424 41.3547C22.2967 40.9611 22.0234 40.5973 21.6303 40.5398C14.1807 39.5119 8.32374 33.6551 7.29565 26.2056C7.23813 25.8125 6.87436 25.5392 6.48076 25.5935C6.08715 25.6478 5.81096 26.0094 5.86204 26.4034C6.97846 34.4953 13.3406 40.8572 21.4325 41.9733V41.9734Z" fill="white"/>
<path d="M6.4801 22.2484C6.5132 22.2529 6.54656 22.2552 6.57996 22.2552C6.94108 22.2548 7.24657 21.9881 7.29586 21.6304C8.32376 14.1807 14.1808 8.32373 21.6305 7.29589C22.0236 7.23837 22.2969 6.87461 22.2426 6.481C22.1883 6.08739 21.8267 5.8112 21.4327 5.86228C13.3404 6.97859 6.97825 13.341 5.86225 21.4333C5.80805 21.829 6.08455 22.1937 6.4801 22.2484V22.2484Z" fill="white"/>
<path d="M26.3035 41.9807C26.3369 41.9808 26.3703 41.9785 26.4034 41.9739C34.4952 40.8574 40.857 34.4953 41.9732 26.4034C42.0243 26.0094 41.7481 25.6478 41.3545 25.5935C40.9609 25.5392 40.5971 25.8125 40.5396 26.2056C39.5118 33.6551 33.6551 39.5122 26.2056 40.5402C25.8288 40.5921 25.5565 40.9267 25.5823 41.3062C25.6081 41.6856 25.9232 41.9804 26.3035 41.9807V41.9807Z" fill="white"/>
<path d="M41.9667 38.5079C42.1197 38.6238 42.3124 38.6742 42.5025 38.648C42.6927 38.6217 42.8646 38.521 42.9805 38.368C49.4543 29.8222 49.4543 18.0135 42.9805 9.46768C42.8257 9.25772 42.57 9.14727 42.3111 9.17859C42.0521 9.2099 41.8301 9.37812 41.7299 9.61891C41.6297 9.8597 41.6668 10.1358 41.827 10.3416C47.9092 18.3706 47.9092 29.4651 41.827 37.4941C41.7111 37.6471 41.6607 37.8398 41.6869 38.03C41.7131 38.2201 41.8137 38.392 41.9667 38.5079V38.5079Z" fill="white"/>
<path d="M5.86873 9.32822C5.71575 9.21233 5.52299 9.16196 5.33286 9.18819C5.14274 9.21443 4.97082 9.31512 4.85494 9.46812C-1.61831 18.0139 -1.61831 29.822 4.85494 38.3677C5.01037 38.5757 5.26533 38.6845 5.52305 38.6528C5.78076 38.6211 6.00171 38.4537 6.10204 38.2142C6.20236 37.9747 6.16667 37.6998 6.00851 37.4938C-0.0732417 29.4649 -0.0732417 18.3709 6.00851 10.342C6.12442 10.189 6.17481 9.99629 6.14859 9.80616C6.12238 9.61604 6.02171 9.44412 5.86873 9.32822V9.32822Z" fill="white"/>
<path d="M38.3677 4.85523C29.822 -1.61841 18.0135 -1.61841 9.46773 4.85523C9.25973 5.01066 9.15095 5.26562 9.18268 5.52334C9.21442 5.78105 9.3818 6.002 9.6213 6.10233C9.8608 6.20265 10.1357 6.16696 10.3416 6.0088C18.3706 -0.0732975 29.4649 -0.0732975 37.4938 6.0088C37.6998 6.16696 37.9747 6.20265 38.2141 6.10233C38.4536 6.002 38.621 5.78105 38.6528 5.52334C38.6845 5.26562 38.5757 5.01066 38.3677 4.85523V4.85523Z" fill="white"/>
<path d="M37.4938 41.8275C29.4648 47.9094 18.3706 47.9094 10.3416 41.8275C10.1358 41.6673 9.8597 41.6301 9.61891 41.7304C9.37812 41.8306 9.2099 42.0526 9.17859 42.3116C9.14727 42.5705 9.25772 42.8262 9.46768 42.981C18.0134 49.4546 29.8219 49.4546 38.3677 42.981C38.5776 42.8262 38.6881 42.5705 38.6568 42.3116C38.6254 42.0526 38.4572 41.8306 38.2164 41.7304C37.9756 41.6301 37.6996 41.6673 37.4938 41.8275V41.8275Z" fill="white"/>
<path fill-rule="evenodd" clip-rule="evenodd" d="M24.6039 36.7304C24.6039 37.13 24.2799 37.454 23.8803 37.454C23.4807 37.4539 23.1569 37.1299 23.1569 36.7304V34.8527C17.6703 34.4831 13.3021 30.1141 12.9332 24.6275H10.9795C10.5798 24.6275 10.2559 24.3035 10.2559 23.9039C10.2559 23.5043 10.5798 23.1803 10.9795 23.1803H12.9332C13.3037 17.6951 17.6714 13.328 23.1566 12.9585V11.0598C23.1566 10.6602 23.4806 10.3362 23.8803 10.3362C24.2799 10.3362 24.6039 10.6602 24.6039 11.0598V12.9585C30.0891 13.328 34.4569 17.6951 34.8273 23.1803H36.7152C37.1148 23.1803 37.4388 23.5043 37.4388 23.9039C37.4388 24.3035 37.1148 24.6275 36.7152 24.6275H34.8274C34.4586 30.1141 30.0904 34.483 24.6039 34.8527V36.7304ZM15.9041 24.6275H14.386C14.7483 29.3134 18.4708 33.0366 23.1566 33.3997V31.8053C23.1566 31.4057 23.4806 31.0817 23.8803 31.0817C24.2799 31.0817 24.6039 31.4057 24.6039 31.8053V33.3997C29.2897 33.0366 33.0122 29.3134 33.3744 24.6275H31.7907C31.3911 24.6275 31.0671 24.3035 31.0671 23.9039C31.0671 23.5043 31.3911 23.1803 31.7907 23.1803H33.3741C33.0104 18.4958 29.2884 14.7744 24.6039 14.4115V15.9843C24.6039 16.3839 24.2799 16.7079 23.8803 16.7079C23.4806 16.7079 23.1566 16.3839 23.1566 15.9843V14.4115C18.4721 14.7744 14.7501 18.4958 14.3863 23.1803H15.9041C16.3037 23.1803 16.6277 23.5043 16.6277 23.9039C16.6277 24.3035 16.3037 24.6275 15.9041 24.6275Z" fill="white"/>
<path fill-rule="evenodd" clip-rule="evenodd" d="M25.4475 20.1208C26.9784 20.7549 27.9766 22.2488 27.9766 23.9058C27.9741 26.1674 26.1414 28.0001 23.8798 28.0027C22.2228 28.0028 20.7289 27.0046 20.0947 25.4737C19.4606 23.9428 19.8111 22.1807 20.9827 21.0089C22.1544 19.8372 23.9166 19.4867 25.4475 20.1208ZM23.8798 21.2562C22.4165 21.2562 21.2302 22.4425 21.2302 23.9058C21.2318 25.3685 22.4171 26.5539 23.8798 26.5555C25.3432 26.5555 26.5295 25.3692 26.5295 23.9058C26.5295 22.4425 25.3432 21.2562 23.8798 21.2562Z" fill="white"/>
</svg>
