<svg xmlns="http://www.w3.org/2000/svg" width="32" height="32" viewBox="0 0 32 32">
    <g>
        <g>
            <g>
                <path fill="#04cc5b" d="M16 32c8.837 0 16-7.163 16-16S24.837 0 16 0 0 7.163 0 16s7.163 16 16 16z"/>
            </g>
            <g>
                <path fill="#fff"
                      d="M22.58 12.491l-8.454 8.453a.19.19 0 0 1-.27 0l-4.8-4.8a.19.19 0 0 1 0-.269l1.166-1.166a.19.19 0 0 1 .27 0l3.5 3.499 7.153-7.152a.19.19 0 0 1 .27 0l1.166 1.166a.19.19 0 0 1 0 .27z"/>
            </g>
        </g>
    </g>
</svg>