<svg version="1.1" xmlns="http://www.w3.org/2000/svg" viewBox="0 0 1024 1024">
<path d="M94.083 929.569c16.026 16.030 37.026 24.041 58.029 24.041s42.006-8.015 58.029-24.041l301.684-301.684 301.687 301.684c16.022 16.030 37.026 24.041 58.029 24.041s42.002-8.015 58.029-24.041c32.049-32.041 32.049-84.005 0-116.054l-301.691-301.684 301.684-301.687c32.049-32.049 32.049-84.013 0-116.058-32.041-32.049-84.005-32.049-116.054 0l-301.687 301.687-301.684-301.687c-32.049-32.049-84.013-32.049-116.058 0-32.049 32.049-32.049 84.009 0 116.058l301.687 301.687-301.687 301.684c-32.045 32.049-32.045 84.013 0.004 116.054z"></path>
<path d="M871.544 955.53c-22.436 0-43.523-8.735-59.385-24.605l-300.331-300.331-300.327 300.331c-15.862 15.869-36.953 24.605-59.385 24.605s-43.523-8.735-59.385-24.605c-15.862-15.862-24.597-36.949-24.597-59.377 0-22.432 8.735-43.52 24.597-59.385l300.331-300.331-300.331-300.331c-32.742-32.746-32.742-86.024 0-118.77 15.862-15.862 36.949-24.597 59.385-24.597 22.432 0 43.523 8.735 59.385 24.597l300.331 300.331 300.331-300.331c15.865-15.862 36.953-24.597 59.385-24.597 22.428 0 43.516 8.735 59.377 24.597 15.865 15.862 24.597 36.953 24.597 59.385s-8.732 43.523-24.597 59.385l-300.331 300.331 300.339 300.331c15.865 15.865 24.601 36.953 24.601 59.385 0 22.428-8.735 43.516-24.601 59.377-15.873 15.865-36.96 24.605-59.389 24.605zM511.828 625.176l303.040 303.040c15.134 15.141 35.263 23.482 56.676 23.482 21.405 0 41.535-8.341 56.676-23.482 15.137-15.134 23.478-35.259 23.478-56.669s-8.341-41.539-23.478-56.676l-303.048-303.040 303.040-303.040c15.137-15.137 23.474-35.267 23.474-56.676s-8.337-41.535-23.474-56.672c-15.134-15.137-35.259-23.474-56.669-23.474s-41.539 8.337-56.676 23.474l-303.040 303.040-303.040-303.040c-15.137-15.137-35.267-23.474-56.676-23.474s-41.535 8.337-56.672 23.474c-31.248 31.252-31.248 82.097 0 113.349l303.040 303.040-303.040 303.040c-15.137 15.137-23.474 35.267-23.474 56.676s8.337 41.535 23.474 56.669c15.141 15.141 35.267 23.482 56.676 23.482s41.535-8.341 56.676-23.482l303.036-303.040z"></path>
</svg>
