<svg xmlns="http://www.w3.org/2000/svg" viewBox="0 0 52 50">
    <path d="M49.824 47.735c-.369.37-.87.579-1.393.577H3.568a1.97 1.97 0 1 1 0-3.938h14.67a.46.46 0 0 1 .46.46 2.031 2.031 0 0 0 2.029 2.029h9.956c1.12-.001 2.028-.909 2.03-2.029a.46.46 0 0 1 .459-.46h15.259a1.97 1.97 0 0 1 1.393 3.361zM6.559 13.902h23.48c.193.84.788 1.53 1.59 1.844l.248.854.01.046H8.198a.784.784 0 0 0-.784.784v22.307c0 .434.351.785.784.785h36.05a.784.784 0 0 0 .784-.785v-6h2.559v9.068H33.165a2.031 2.031 0 0 0-2.028 2.029.46.46 0 0 1-.46.46h-9.953a.46.46 0 0 1-.46-.46 2.031 2.031 0 0 0-2.028-2.029H4.856V15.607a1.706 1.706 0 0 1 1.703-1.705zM39.297 1.67a6.482 6.482 0 0 1 6.474 6.474v2.914c-1.455-.062-4.752-.406-7.582-2.163 1.968-.246 4.39-.878 6.378-2.403a.785.785 0 1 0-.955-1.245c-3.509 2.691-8.865 2.184-8.919 2.179a.784.784 0 0 0-.865.78v1.061a1.784 1.784 0 0 1-1.006 1.603V8.143a6.482 6.482 0 0 1 6.475-6.474zm6.886 12.675a.793.793 0 0 0-.624.587l-.37 1.272a.843.843 0 0 0-.017.074 5.981 5.981 0 0 1-5.877 4.88 5.981 5.981 0 0 1-5.877-4.88.77.77 0 0 0-.018-.074l-.359-1.237a.785.785 0 0 0-.634-.622 1.038 1.038 0 0 1-.83-1.274.573.573 0 0 1 .367-.411.781.781 0 0 0 .385-.05 3.358 3.358 0 0 0 3.068-3.343v-.232c.11.003.228.005.355.005 4.325 3.788 10.518 3.611 10.83 3.6a.58.58 0 0 1 .43.432 1.044 1.044 0 0 1-.829 1.273zm-4.444 9.208a6.068 6.068 0 0 1-4.888 0v-1.245a7.522 7.522 0 0 0 4.888 0zm-6.457-1.993v1.908l-4.802 1.557a4.564 4.564 0 0 0-3.069 3.29c-.074.326-.11.66-.107.994v3.644c0 .433.351.785.784.785h15.385v5.216H8.983V18.215H32.39a7.56 7.56 0 0 0 2.893 3.344zm12.345 4.957a3 3 0 0 1 2.024 2.155c.047.209.069.422.067.636v2.86H28.873v-2.86a2.781 2.781 0 0 1 .095-.75 3 3 0 0 1 1.996-2.04l5.028-1.631c2.089 1 4.518 1 6.606 0zm1.543 7.22h1.332a.784.784 0 0 0 .785-.784v-3.645a4.32 4.32 0 0 0-.152-1.165 4.563 4.563 0 0 0-3.024-3.118l-4.803-1.557v-1.908a7.545 7.545 0 0 0 3.399-4.96l.248-.853a2.612 2.612 0 0 0 1.581-3.052 2.134 2.134 0 0 0-1.196-1.45v-3.1a8.043 8.043 0 1 0-16.087 0v3.099a2.125 2.125 0 0 0-1.077 1.09H6.56a3.277 3.277 0 0 0-3.274 3.274v27.21a3.538 3.538 0 0 0 .282 7.064h44.863a3.538 3.538 0 0 0 .739-6.998z"/>
    <path d="M11.854 23.929h3.766a.784.784 0 0 0 0-1.569h-3.766a.784.784 0 1 0 0 1.569z"/>
    <path d="M18.714 23.929h2.421a.784.784 0 0 0 0-1.569h-2.42a.784.784 0 1 0 0 1.569z"/>
    <path d="M25.034 23.929h4.182a.784.784 0 0 0 0-1.569h-4.182a.784.784 0 1 0 0 1.569z"/>
    <path d="M11.854 30.209h6.456a.784.784 0 0 0 0-1.569h-6.456a.784.784 0 1 0 0 1.569z"/>
    <path d="M25.596 29.424a.784.784 0 0 0-.785-.784h-3.407a.784.784 0 1 0 0 1.569h3.407a.784.784 0 0 0 .785-.785z"/>
    <path d="M11.854 36.479h9.46a.784.784 0 0 0 0-1.569h-9.46a.784.784 0 1 0 0 1.569z"/>
    <path d="M23.63 35.694c0 .434.351.785.784.785h3.766a.784.784 0 0 0 0-1.569h-3.766a.784.784 0 0 0-.784.784z"/>
</svg>