<svg xmlns="http://www.w3.org/2000/svg" viewBox="0 0 52 50">
    <path d="M24.576 26.789a2.912 2.912 0 0 0 .157-1.85 2.349 2.349 0 0 0-1.419-1.639v-.056h27.192V24.9a1.89 1.89 0 0 1-1.888 1.888zm11.865 7.565h-8.594v-6.061h8.594zm-14.289-7.34a.752.752 0 0 0-.61.602l-.426 1.468a.732.732 0 0 0-.017.07 7.236 7.236 0 0 1-14.223 0 .732.732 0 0 0-.017-.07l-.427-1.468a.752.752 0 0 0-.61-.603 1.405 1.405 0 0 1-1.118-1.716.845.845 0 0 1 .541-.609A1.9 1.9 0 0 0 7.9 23.031l.108-2.38c.496 0 1.208-.012 2.06-.071 5.069 4.308 12.217 4.086 12.523 4.074l.02-.001c.327.067.584.319.66.644a1.405 1.405 0 0 1-1.118 1.716zm-5.104 10.822a7.344 7.344 0 0 1-6.122 0v-1.833c1.974.74 4.148.74 6.122 0zm6.832 3.22a3.716 3.716 0 0 1 2.507 2.67c.058.26.086.525.083.791v3.552H1.504v-3.552a3.453 3.453 0 0 1 .12-.932 3.716 3.716 0 0 1 2.47-2.53l6.006-1.947a8.845 8.845 0 0 0 7.773 0zM6.17 19.522a7.82 7.82 0 0 1 15.64 0v2.13a10.87 10.87 0 0 1-4.553-1.614c-.312-.2-.613-.419-.899-.655 1.461-.506 2.716-1.157 3.75-1.95a.752.752 0 0 0-.916-1.194C14.97 19.48 7.404 19.137 7.328 19.133a.752.752 0 0 0-.79.717l-.141 3.113a.39.39 0 0 1-.228.341zm8.506.357c.802.828 3.019 2.734 6.833 3.251-1.854-.094-5.882-.562-9.247-2.783.85-.123 1.654-.279 2.414-.468zm17.464 1.224a.752.752 0 0 0 .751-.753v-2.248l1.797-1.758a6.521 6.521 0 0 1 3.925 5.404H25.666a6.521 6.521 0 0 1 3.925-5.404l1.796 1.758v2.248c0 .416.337.753.752.753zM13.792 3.451a1.89 1.89 0 0 1 1.887-1.887h32.94a1.89 1.89 0 0 1 1.887 1.887V21.74H40.14a8.014 8.014 0 0 0-5.374-6.98.752.752 0 0 0-.771.173l-1.845 1.8-1.845-1.8a.752.752 0 0 0-.77-.172 8.015 8.015 0 0 0-5.375 6.98h-.843v-2.217c-.006-5.147-4.178-9.318-9.327-9.324l-.198.003zM48.609.06h-32.93a3.395 3.395 0 0 0-3.391 3.392v6.903a9.34 9.34 0 0 0-7.623 9.169v3.775a2.349 2.349 0 0 0-1.422 1.64 2.91 2.91 0 0 0 1.842 3.43l.32 1.1a8.736 8.736 0 0 0 4.018 5.799v2.478L3.63 39.624a5.215 5.215 0 0 0-3.509 3.76A4.939 4.939 0 0 0 0 44.517v4.304c0 .415.337.752.752.752h26.47a.752.752 0 0 0 .752-.752v-4.304a4.927 4.927 0 0 0-.172-1.33 5.216 5.216 0 0 0-3.458-3.563l-5.792-1.878v-2.478a8.736 8.736 0 0 0 4.018-5.799l.32-1.1c.065-.023.127-.049.19-.076h3.263v6.061h-1.708a.752.752 0 1 0 0 1.504H40.73a.752.752 0 1 0 0-1.504h-2.786v-6.061H48.61A3.395 3.395 0 0 0 52 24.9V3.451A3.395 3.395 0 0 0 48.61.06z"/>
    <path d="M35.425 9.375a3.28 3.28 0 1 1-6.56 0 3.28 3.28 0 0 1 6.56 0zm-3.28 4.784a4.785 4.785 0 1 0 0-9.569 4.785 4.785 0 0 0 0 9.57z"/>
</svg>