<svg xmlns="http://www.w3.org/2000/svg" viewBox="0 0 49 52">
    <path d="M22.3 20.699l-7.654 7.472-4.02-3.925a.734.734 0 0 0-1.025 1.05l4.533 4.425a.734.734 0 0 0 1.025 0l8.166-7.972a.734.734 0 0 0-1.026-1.05z"/>
    <path d="M46.758 50.51H25.161v-3.024a2.943 2.943 0 0 1 .1-.793 3.163 3.163 0 0 1 2.103-2.155l5.203-1.691a7.772 7.772 0 0 0 6.785 0l5.204 1.69a3.163 3.163 0 0 1 2.132 2.277c.049.22.073.446.07.672zM1.468 7.64a3.083 3.083 0 0 1 3.079-3.08h3.951v1.377a4.552 4.552 0 0 0 4.547 4.548h6.82a4.552 4.552 0 0 0 4.546-4.548V4.56h3.951a3.083 3.083 0 0 1 3.08 3.08v11.217a8.203 8.203 0 0 0-3.693 6.848v3.237a2.124 2.124 0 0 0-1.236 1.463 2.615 2.615 0 0 0 1.616 3.068l.266.918a7.69 7.69 0 0 0 3.498 5.078v2.06l-3.798 1.23H4.547a3.083 3.083 0 0 1-3.08-3.08zm11.12-3.076c.345 0 .643-.24.717-.577.315-1.437 1.642-2.48 3.155-2.48 1.512 0 2.84 1.043 3.155 2.48a.734.734 0 0 0 .716.577h2.62v1.378a3.085 3.085 0 0 1-3.08 3.084h-6.822a3.085 3.085 0 0 1-3.08-3.084V4.564zm30.109 21.143v1.768c-2.205-.3-3.686-1.193-4.52-1.861a11.516 11.516 0 0 0 3.163-1.667.735.735 0 0 0-.893-1.166c-3.656 2.806-10.22 2.51-10.285 2.506a.734.734 0 0 0-.77.7l-.124 2.715a.264.264 0 0 1-.042.134v-3.13a6.742 6.742 0 0 1 3.125-5.686.731.731 0 0 0 .384-.23 6.728 6.728 0 0 1 6.665.119 6.74 6.74 0 0 1 3.297 5.798zm-6.163.39c.62.633 2.105 1.903 4.546 2.55-1.754-.225-4.225-.787-6.408-2.18.652-.1 1.272-.224 1.862-.37zm6.527 6.055a.734.734 0 0 0-.595.585l-.37 1.276a.718.718 0 0 0-.017.069 6.228 6.228 0 0 1-6.12 5.08 6.228 6.228 0 0 1-6.119-5.08.766.766 0 0 0-.016-.07l-.371-1.275a.734.734 0 0 0-.594-.585 1.146 1.146 0 0 1-.912-1.4.657.657 0 0 1 .396-.464 1.734 1.734 0 0 0 2.39-1.527l.091-2c.423 0 1.005-.013 1.693-.06 4.439 3.755 10.674 3.56 10.942 3.55h.006c.251.056.449.25.507.501a1.147 1.147 0 0 1-.912 1.4zm-4.513 9.458a6.292 6.292 0 0 1-5.177 0v-1.44a7.647 7.647 0 0 0 5.177 0zm9.525 4.693a4.623 4.623 0 0 0-3.065-3.158l-4.992-1.619v-2.058a7.69 7.69 0 0 0 3.499-5.079l.266-.917a2.615 2.615 0 0 0 1.617-3.067 2.125 2.125 0 0 0-1.233-1.462v-3.238a8.198 8.198 0 0 0-11.246-7.617V7.641a4.553 4.553 0 0 0-4.548-4.548h-7.49a4.727 4.727 0 0 0-8.842 0H4.548A4.553 4.553 0 0 0 0 7.641v32.037a4.553 4.553 0 0 0 4.548 4.548h20.546a4.528 4.528 0 0 0-1.292 2.252c-.075.33-.111.667-.108 1.005v3.75c0 .406.328.734.733.734h23.065a.734.734 0 0 0 .734-.734v-3.75a4.375 4.375 0 0 0-.153-1.18z"/>
</svg>