<?xml version="1.0" encoding="UTF-8"?>
<svg width="35px" height="31px" viewBox="0 0 35 31" version="1.1" xmlns="http://www.w3.org/2000/svg" xmlns:xlink="http://www.w3.org/1999/xlink">
    <title>“</title>
    <g id="Home" stroke="none" stroke-width="1" fill="none" fill-rule="evenodd">
        <g id="Home-2550" transform="translate(-1935.000000, -4907.000000)" fill="#6D3BC0" fill-rule="nonzero">
            <g id="Reviews-Copy" transform="translate(544.000000, 4590.000000)">
                <g id="1-copy" transform="translate(750.000000, 269.000000)">
                    <path d="M676,78.3333333 L676,65.3333333 L670.341842,65.3333333 L670.341842,63.9864865 C670.341842,60.8243243 670.689273,58.277027 671.384134,56.3445946 C672.078996,54.4121622 673.121288,53.0750751 674.511011,52.3333333 L674.511011,52.3333333 L674.511011,48 C670.58008,48.975976 667.641808,51.1816817 665.696196,54.6171171 C663.750584,58.0525526 662.777778,62.7177177 662.777778,68.6126126 L662.777778,68.6126126 L662.777778,78.3333333 L676,78.3333333 Z M654.222222,78.3333333 L654.222222,65.3333333 L648.564064,65.3333333 L648.564064,63.9864865 C648.564064,60.8243243 648.911495,58.277027 649.606356,56.3445946 C650.301218,54.4121622 651.34351,53.0750751 652.733233,52.3333333 L652.733233,52.3333333 L652.733233,48 C648.802302,48.975976 645.864031,51.1816817 643.918418,54.6171171 C641.972806,58.0525526 641,62.7177177 641,68.6126126 L641,68.6126126 L641,78.3333333 L654.222222,78.3333333 Z" id="“"></path>
                </g>
            </g>
        </g>
    </g>
</svg>