<?xml version="1.0" encoding="UTF-8"?>
<svg width="49px" height="50px" viewBox="0 0 49 50" version="1.1" xmlns="http://www.w3.org/2000/svg" xmlns:xlink="http://www.w3.org/1999/xlink">
    <title>product-managers</title>
    <g id="Home" stroke="none" stroke-width="1" fill="none" fill-rule="evenodd" opacity="0.900000036">
        <g id="Home-2550" transform="translate(-1097.000000, -1424.000000)" fill="#6D3BC0" fill-rule="nonzero" stroke="#6D3BC0" stroke-width="0.3">
            <g id="Services-Copy" transform="translate(544.000000, 842.000000)">
                <g id="Group-7" transform="translate(500.000000, 531.000000)">
                    <g id="Group-5-Copy-4" transform="translate(47.000000, 52.000000)">
                        <g id="product-managers" transform="translate(7.000000, 0.000000)">
                            <path d="M23.5169756,16.8859024 C25.5458593,16.8859024 27.3854261,17.6970848 28.7178339,19.0065766 C30.051228,20.3170378 30.8767317,22.1264233 30.8767317,24.1216585 C30.8767317,26.1168573 30.0511849,27.9262138 28.7177963,29.2366696 C27.3853451,30.5462041 25.5457471,31.3574146 23.5169756,31.3574146 C21.4882041,31.3574146 19.6486062,30.5462041 18.3161549,29.2366696 C16.9827663,27.9262138 16.1572195,26.1168573 16.1572195,24.1216585 C16.1572195,22.1264476 16.9827519,20.3170814 18.3161424,19.0066239 C19.6485791,17.6971036 21.4881667,16.8859024 23.5169756,16.8859024 Z M23.5169756,18.3566341 C21.8930213,18.3566341 20.4203622,19.0035264 19.3537449,20.0482426 C18.2882323,21.091877 17.6279512,22.5326513 17.6279512,24.1216585 C17.6279512,25.7106775 18.2882177,27.1514617 19.3537324,28.195098 C20.4203359,29.2398008 21.8929857,29.8866829 23.5169756,29.8866829 C25.1409299,29.8866829 26.613589,29.2397907 27.6802063,28.1950744 C28.7457189,27.1514401 29.406,25.7106658 29.406,24.1216585 C29.406,22.5326513 28.7457189,21.091877 27.6802063,20.0482426 C26.613589,19.0035264 25.1409299,18.3566341 23.5169756,18.3566341 Z" id="Shape"></path>
                            <path d="M23.6710244,-0.15 C24.647971,-0.15 25.5338014,0.241353198 26.1754345,0.873028198 C26.8179117,1.5055342 27.215561,2.37887736 27.2155563,3.34304049 C27.2085606,4.22718011 26.8736576,5.03988067 26.3210394,5.65790777 C25.8440202,6.1913878 25.2047787,6.57981439 24.4741882,6.74392576 L24.2523415,6.78635046 L24.2523415,9.69848783 L25.3417026,9.69848801 C25.6113168,9.69804117 25.8556717,9.8067598 26.0328851,9.98299328 C26.1805629,10.1298545 26.2816146,10.3236011 26.3118036,10.540467 L26.3212195,10.6731707 L26.3212195,12.174773 C27.5236793,12.4448819 28.6786099,12.8916249 29.7486124,13.4997465 L30.1458093,13.7353269 L31.2447236,12.6566293 C31.4359776,12.470747 31.6838181,12.3778059 31.9316585,12.3778059 C32.1381923,12.3778059 32.344726,12.4423484 32.5188109,12.5717243 L32.6191084,12.6571321 L35.1997671,15.1895006 C35.3864157,15.3722407 35.4916086,15.6224467 35.4916086,15.8836585 C35.4916086,16.101335 35.418558,16.3113687 35.2862648,16.4810158 L35.1998902,16.5776958 L34.1123677,17.644895 C34.3467888,18.013743 34.5610421,18.3949109 34.754218,18.7867141 L34.9403345,19.1820001 L41.3738121,19.1820098 C41.8093884,19.1869889 42.2058954,19.0152336 42.495024,18.7333429 C42.7480115,18.4866885 42.9187875,18.1557117 42.9615805,17.7864272 L42.9719512,17.6259512 L42.9719512,7.87532441 C42.1656783,7.72938988 41.4630363,7.31357093 40.9528899,6.72959325 C40.4157771,6.11474649 40.0920486,5.31349339 40.0854146,4.44341463 C40.0854146,3.48043833 40.4830639,2.60709518 41.1255411,1.97458917 C41.7671742,1.34291417 42.6530046,0.951560976 43.6299512,0.951560976 C44.6068925,0.951560976 45.4926932,1.34290956 46.1343009,1.97457764 C46.7767601,2.60708419 47.1743902,3.48043197 47.1743864,4.44449356 C47.1683583,5.28253431 46.8665749,6.06001395 46.3604877,6.66721009 C45.9276499,7.18652268 45.345369,7.58127708 44.6708575,7.78283051 L44.4426829,7.84276524 L44.4426772,17.6272644 C44.4353118,18.4685781 44.0881959,19.2275623 43.5325889,19.774909 C43.0232825,20.2766435 42.3387857,20.6005438 41.5809208,20.6470119 L41.3724878,20.6527317 L35.4888089,20.6527317 L35.5902537,21.0120797 L35.5902537,21.0120797 L35.680685,21.3751708 L37.2416051,21.3751709 C37.5112193,21.3747241 37.7555742,21.4834427 37.9327875,21.6596762 C38.0804653,21.8065374 38.1815171,22.000284 38.211706,22.2171499 L38.221122,22.3498537 L38.2211208,25.9319002 C38.2200727,26.2015127 38.1100009,26.445261 37.9327875,26.6214945 C37.7851097,26.7683558 37.5908059,26.8683317 37.3742572,26.897319 L37.2418537,26.906 L35.6716928,26.906 C35.5787713,27.2993278 35.466035,27.6875976 35.3339475,28.0693304 L35.1954268,28.4488294 L41.3711439,28.4488323 C42.2125534,28.4434825 42.976754,28.7791514 43.5324436,29.3265064 C44.0418257,29.8282485 44.3760007,30.5078656 44.4338368,31.2667501 L44.4426829,31.4756098 L44.4426829,41.2588876 C45.2141307,41.4341549 45.8795658,41.8573721 46.3604996,42.4343724 C46.8665912,43.0415558 47.1683739,43.819032 47.1743902,44.6581463 C47.1743902,45.6211351 46.7767553,46.4944878 46.1342763,47.1269955 C45.4926581,47.7586558 44.6068386,48.15 43.6298537,48.15 C42.6528688,48.15 41.7670492,47.7586558 41.125431,47.1269955 C40.4829521,46.4944878 40.0853171,45.6211351 40.0853214,44.6570013 C40.0919548,43.7880502 40.4156987,42.9867857 40.9528309,42.3719374 C41.4119791,41.8463564 42.0270516,41.4569911 42.7332615,41.2780023 L42.9719514,41.2262328 L42.9719659,31.477706 C42.9658786,31.0421692 42.784136,30.6501656 42.4950275,30.3682787 C42.2420575,30.1216277 41.9068853,29.9592847 41.5341222,29.9258619 L41.3721951,29.919561 L34.5133653,29.919561 L34.3117402,30.2735013 L34.3117402,30.2735013 L34.0975253,30.6217218 L35.199771,31.7033581 C35.3864229,31.8861147 35.4916165,32.1363352 35.4916165,32.397561 C35.4916165,32.6152491 35.4185654,32.8252947 35.2862671,32.9949581 L35.1998889,33.0916484 L32.6185568,35.6246746 C32.4272762,35.8104562 32.1794674,35.903347 31.9316585,35.903347 C31.7251512,35.903347 31.5186438,35.8388395 31.3445319,35.7095144 L31.2442114,35.6241388 L30.1219354,34.522918 C29.0794644,35.1645435 27.9488652,35.6486366 26.7668244,35.960278 L26.3212194,36.0690307 L26.3212184,37.6089734 C26.3201703,37.8785859 26.2100984,38.1223342 26.0328851,38.2985677 C25.8852073,38.4454289 25.6909034,38.5454048 25.4743547,38.5743922 L25.3419512,38.5830732 L24.252439,38.5830732 L24.252439,41.2423734 C25.0413625,41.4031765 25.7253597,41.8227889 26.2208561,42.4032973 C26.7424125,43.014337 27.0551188,43.803642 27.0615122,44.6581463 C27.0615122,45.621129 26.6638821,46.4944768 26.0214228,47.1269833 C25.3798152,47.7586514 24.4940145,48.15 23.5170732,48.15 C22.5401266,48.15 21.6542961,47.7586468 21.012663,47.1269718 C20.3701858,46.4944658 19.9725366,45.6211226 19.9725408,44.6570189 C19.9789551,43.8036301 20.2916817,43.0143247 20.8132544,42.4032872 C21.2592151,41.8808314 21.8578585,41.4887033 22.548259,41.298279 L22.7817073,41.2423727 L22.7817073,38.5830731 L21.6923462,38.583073 C21.422732,38.5835198 21.1783771,38.4748012 21.0011637,38.2985677 C20.8534859,38.1517065 20.7524342,37.9579599 20.7222452,37.741094 L20.7128293,37.6083902 L20.7128293,36.0690288 C19.5184951,35.800714 18.3710052,35.3581277 17.3070274,34.7561803 L16.912022,34.5230091 L15.789292,35.6246713 C15.5980275,35.8104491 15.3502332,35.903338 15.102439,35.903338 C14.8959438,35.903338 14.6894487,35.8388318 14.5153514,35.7095109 L14.41504,35.6241381 L11.8341932,33.091679 C11.6475087,32.9089348 11.5422928,32.6587038 11.5422928,32.3974634 C11.5422928,32.1797631 11.6153594,31.9697082 11.7476764,31.8000544 L11.8340661,31.7033723 L12.936421,30.6217211 L12.7223657,30.2733925 L12.7223657,30.2733925 L12.5205915,29.9195608 L5.72795241,29.9195513 C5.29238363,29.9145967 4.89588672,30.0863582 4.60676019,30.3682469 C4.35377448,30.6148995 4.1829942,30.9458683 4.14018385,31.3151397 L4.12980488,31.4756098 L4.12980488,41.2423697 C4.91874734,41.4031533 5.60276602,41.8227583 6.09828049,42.4032678 C6.61985632,43.0143089 6.9325779,43.803625 6.93897561,44.6581463 C6.93897561,45.6211226 6.54132635,46.4944658 5.89884915,47.1269718 C5.25721606,47.7586468 4.3713856,48.15 3.39443902,48.15 C2.41749772,48.15 1.53169701,47.7586514 0.890089392,47.1269833 C0.247630102,46.4944768 -0.15,45.621129 -0.149995796,44.6570233 C-0.143606556,43.803642 0.169099662,43.014337 0.690656141,42.4032973 C1.13660287,41.8808397 1.73523527,41.4887079 2.42562755,41.2982807 L2.65907324,41.2423734 L2.65907892,31.474687 C2.66644433,30.6332927 3.01362289,29.8742516 3.56931249,29.3268966 C4.07869461,28.8251546 4.76328393,28.5012876 5.52120977,28.4549125 L5.72965854,28.4492195 L11.8385244,28.4492195 C11.6935876,28.0720091 11.5678475,27.6877687 11.4617676,27.2979773 L11.3622584,26.9063902 L9.7922486,26.90639 C9.52263439,26.9068369 9.2782795,26.7981182 9.10106614,26.6218848 C8.95338833,26.4750235 8.85233659,26.281277 8.82214765,26.0644111 L8.81273171,25.9317073 L8.81273284,22.3492706 C8.81378094,22.079658 8.92385277,21.8359097 9.10106614,21.6596762 C9.24874394,21.512815 9.44304781,21.4128391 9.65959647,21.3838517 L9.792,21.3751707 L11.3540377,21.3751707 L11.444465,21.0120318 L11.444465,21.0120318 L11.5459048,20.6527316 L5.73061225,20.6527287 C4.8892027,20.6580785 4.12500208,20.3224096 3.56931249,19.7750546 C3.05993036,19.2733125 2.72575542,18.5936954 2.6679193,17.8348109 L2.65907317,17.6259512 L2.65907317,7.85928217 C1.87014172,7.69845873 1.18614198,7.27882774 0.690646236,6.69830284 C0.169091411,6.08724701 -0.143610459,5.2979288 -0.15,4.44341463 C-0.15,3.48041955 0.247615825,2.60706223 0.890076834,1.97455399 C1.53166959,1.34290054 2.41745939,0.951560976 3.39443902,0.951560976 C4.37142392,0.951560976 5.25724348,1.34290515 5.89886171,1.97456552 C6.54134063,2.60707322 6.93897561,3.48042592 6.93897141,4.44453768 C6.93258181,5.29794582 6.61986458,6.08727508 6.09829039,6.69833237 C5.65232788,7.22080578 5.05367436,7.61294822 4.36325839,7.80337803 L4.12980469,7.85928587 L4.12979035,17.6233757 C4.13585323,18.0589382 4.31760349,18.4509644 4.6067321,18.7328551 C4.85971964,18.9795095 5.19491872,19.1418414 5.56771628,19.1752283 L5.72965854,19.1815122 L12.093329,19.1815122 C12.2723745,18.7828048 12.4728001,18.3941724 12.6936961,18.0172991 L12.9213818,17.644408 L11.8339851,16.5774224 C11.6473332,16.3946658 11.5421395,16.1444453 11.5421395,15.8832195 C11.5421395,15.6655314 11.6151907,15.4554858 11.7474914,15.2858201 L11.8338713,15.1891282 L14.4153734,12.6561262 C14.6066524,12.4702739 14.8544969,12.3773477 15.1023415,12.3773477 C15.3088786,12.3773477 15.5154157,12.4418797 15.6895377,12.5712561 L15.7898618,12.6566657 L16.8881452,13.7348353 C17.9363239,13.0865955 19.0741134,12.5978376 20.2641092,12.2838197 L20.7127318,12.1742837 L20.7127328,10.6721974 C20.7137809,10.4025848 20.8238528,10.1588365 21.0010661,9.98260304 C21.1487439,9.83574181 21.3430478,9.73576588 21.5595965,9.70677852 L21.692,9.69809756 L22.7816098,9.69809756 L22.7816098,6.72203769 C22.0279148,6.53314368 21.3809743,6.10695101 20.9144186,5.53389696 C20.4235775,4.93101408 20.1323887,4.16558293 20.1265854,3.34185366 C20.1265854,2.37887099 20.5242155,1.50552322 21.1666748,0.873016666 C21.8082824,0.241348586 22.6940831,-0.15 23.6710244,-0.15 Z M3.39443902,42.6370244 C2.82230132,42.6370244 2.30337687,42.8640538 1.92756489,43.2309787 C1.5530723,43.5966154 1.32073171,44.1013202 1.32073171,44.6581463 C1.32073171,45.2149838 1.55305753,45.7196986 1.92755234,46.0853375 C2.30335136,46.4522497 2.82226737,46.6792683 3.39443902,46.6792683 C3.96662417,46.6792683 4.4855739,46.4522395 4.86139872,46.0853016 C5.23590409,45.719652 5.4682439,45.2149221 5.4682439,44.6580488 C5.4682439,44.1012723 5.23588015,43.5965958 4.86136891,43.2309733 C4.48553192,42.8640565 3.96658115,42.6370244 3.39443902,42.6370244 Z M23.5169756,42.6369268 C22.944795,42.6369268 22.425849,42.8639519 22.0500245,43.2308729 C21.6755151,43.59651 21.4431707,44.1012183 21.4431707,44.6580488 C21.4431707,45.214868 21.6755299,45.7195663 22.0500371,46.0852012 C22.4258745,46.4521348 22.9448289,46.6791707 23.5169756,46.6791707 C24.0891133,46.6791707 24.6080378,46.4521414 24.9838497,46.0852165 C25.3583423,45.7195797 25.5906829,45.214875 25.5906829,44.6580488 C25.5906829,44.1012451 25.3583457,43.596522 24.9838377,43.2308702 C24.6080409,42.8639601 24.0891354,42.6369268 23.5169756,42.6369268 Z M43.6299512,42.6370244 C43.0577706,42.6370244 42.5388246,42.8640495 42.1630001,43.2309704 C41.7884907,43.5966076 41.5561463,44.1013158 41.5561463,44.6581463 C41.5561463,45.2149656 41.7885055,45.7196638 42.1630127,46.0852988 C42.5388501,46.4522324 43.0578046,46.6792683 43.6299512,46.6792683 C44.2020935,46.6792683 44.7210216,46.4522352 45.096834,46.0852934 C45.4713225,45.7196442 45.7036585,45.2149178 45.7036585,44.6580488 C45.7036585,44.1012541 45.4713281,43.596561 45.0968293,43.2309346 C44.7210306,42.8640392 44.2021183,42.6370244 43.6299512,42.6370244 Z M24.8502928,11.168439 L22.1834634,11.168439 L22.1834634,12.5794146 L22.1730852,12.7178377 C22.1465427,12.8989628 22.0702741,13.0650471 21.9574043,13.2006708 C21.816317,13.3702005 21.6180403,13.4921355 21.3882104,13.5356718 C19.9524191,13.8095751 18.585342,14.3666536 17.36688,15.1743895 C17.1734518,15.3017633 16.9492085,15.3532914 16.7317492,15.3328059 C16.5142899,15.3123205 16.3036145,15.2198215 16.1377065,15.0588871 L16.1377065,15.0588871 L15.1024382,14.04303 L13.2265655,15.8837021 L14.2451491,16.8830755 L14.3374987,16.9876 C14.4491204,17.1338482 14.5145269,17.3058671 14.5316688,17.4825683 C14.5530962,17.7034448 14.4991103,17.9316371 14.365716,18.1259637 C13.9234495,18.7718151 13.5535947,19.4645681 13.2569254,20.2060617 C13.0186629,20.805216 12.8358037,21.4252758 12.7107651,22.0581472 C12.6649949,22.2872843 12.54172,22.4840866 12.3715351,22.6237113 C12.2013501,22.7633361 11.9842551,22.8457835 11.7509057,22.8459024 L11.7509057,22.8459024 L10.283561,22.8459024 L10.283561,25.435561 L11.7582439,25.435561 L11.8957284,25.4453719 C12.0757815,25.4709967 12.2415099,25.5457368 12.3774787,25.656883 C12.5474396,25.7958157 12.6709009,25.991633 12.7174959,26.2195118 C13.0000182,27.6254424 13.5656525,28.9586529 14.38003,30.1383958 C14.5141865,30.3327393 14.5686743,30.5612588 14.5474649,30.7825223 C14.5262554,31.0037859 14.4293486,31.2177933 14.2607159,31.383113 L14.2607159,31.383113 L13.2266463,32.3979449 L15.1024206,34.2386064 L16.1601903,33.2002722 L16.2649863,33.1118126 C16.4109451,33.0049376 16.5802462,32.9424718 16.7539243,32.9259116 C16.9710221,32.9052114 17.194959,32.9562388 17.3880015,33.0825917 C18.6015737,33.8830711 19.9610777,34.435247 21.3885973,34.7075842 C21.6182504,34.7511564 21.816496,34.8731152 21.9575694,35.0426486 C22.0986428,35.212182 22.1825439,35.42929 22.1836568,35.6631887 L22.1836568,35.6631887 L22.1836584,37.1123415 L24.8504878,37.1123415 L24.8504878,35.6639024 L24.860866,35.5254794 C24.8874085,35.3443543 24.9636771,35.17827 25.076547,35.0426463 C25.2176343,34.8731166 25.4159109,34.7511815 25.6457408,34.7076453 C27.0731482,34.4352177 28.4327416,33.88298 29.6459987,33.0827824 C29.8394428,32.9561552 30.0633493,32.9051473 30.2804077,32.9258699 C30.4974661,32.9465925 30.7076763,33.0390457 30.8732937,33.199626 L30.8732937,33.199626 L31.9317083,34.2385896 L33.8070348,32.3977628 L32.7729787,31.3828576 L32.6804641,31.27815 C32.5686711,31.131627 32.5032886,30.9592228 32.4863694,30.782187 C32.4652205,30.5608923 32.5197955,30.3323606 32.6540565,30.1380484 C33.4683416,28.9583798 34.0339419,27.6252046 34.3163544,26.2198142 C34.3630452,25.9914348 34.4864994,25.7956063 34.6564558,25.6566569 C34.8264121,25.5177075 35.0428705,25.4356372 35.2754695,25.4352685 L35.2754695,25.4352685 L36.7503902,25.4352683 L36.7503902,22.8459386 L35.2830606,22.8462927 L35.1451685,22.8365338 C34.9645856,22.8108825 34.7983994,22.735747 34.6622489,22.6240125 C34.4920609,22.4843443 34.3688038,22.2874899 34.3231427,22.0586153 C34.1987545,21.4284237 34.0170583,20.8112319 33.7641997,20.1744829 C33.4747873,19.4540623 33.1072084,18.7669084 32.668234,18.1258198 C32.5349539,17.9315892 32.4810073,17.703382 32.5024758,17.4825049 C32.5239442,17.2616278 32.6208278,17.0480808 32.7891234,16.8830474 L32.7891234,16.8830474 L33.8074952,15.8837089 L31.9316878,14.0430148 L30.8967466,15.0582048 L30.7918304,15.1468488 C30.6456642,15.2539295 30.4759839,15.3164366 30.3019603,15.3328256 C30.0844309,15.3533119 29.8601151,15.3017387 29.6670341,15.1745253 C28.4482721,14.3666123 27.0812629,13.8095675 25.6453544,13.5356354 C25.4157137,13.4921583 25.2174221,13.3702251 25.0763296,13.2006893 C24.9352372,13.0311534 24.8513439,12.8140148 24.8502942,12.5800877 L24.8502942,12.5800877 L24.8502928,11.168439 Z M43.6299512,2.42229268 C43.0577706,2.42229268 42.5388246,2.64931775 42.1630001,3.01623873 C41.7884907,3.38187585 41.5561463,3.88658412 41.5561463,4.44341463 C41.5561463,5.00024288 41.7885123,5.50497112 42.1630287,5.87063146 C42.5388642,6.23757976 43.0578119,6.46463415 43.6299512,6.46463415 C44.2020816,6.46463415 44.7209993,6.23758628 45.0968094,5.87064669 C45.4713111,5.50498457 45.7036585,5.00024982 45.7036585,4.44341463 C45.7036585,3.88657718 45.4713327,3.3818624 45.0968379,3.0162235 C44.7210389,2.64931123 44.2021229,2.42229268 43.6299512,2.42229268 Z M3.39443902,2.42229268 C2.82230132,2.42229268 2.30337687,2.64932204 1.92756489,3.01624696 C1.5530723,3.3818837 1.32073171,3.88658845 1.32073171,4.44341463 C1.32073171,5.00026109 1.55306435,5.50500588 1.92756832,5.87067015 C2.30336548,6.2375971 2.82227472,6.46463415 3.39443902,6.46463415 C3.96661228,6.46463415 4.48555154,6.23759058 4.86137411,5.87065492 C5.23589269,5.50499242 5.4682439,5.00025415 5.4682439,4.44341463 C5.4682439,3.88659539 5.23588474,3.38189716 4.86137754,3.01626219 C4.48554016,2.64932857 3.96658568,2.42229268 3.39443902,2.42229268 Z M23.6710244,1.32073171 C23.0989206,1.32073171 22.5799877,1.54777188 22.2041628,1.91470945 C21.8296724,2.28034403 21.5973171,2.78503876 21.5973171,3.34185366 C21.5973171,3.89872494 21.8295986,4.4034698 22.2041,4.76911516 C22.5798602,5.1359895 23.0987509,5.36297561 23.6710244,5.36297561 C24.2433068,5.36297561 24.7622276,5.13598298 25.1380131,4.76909992 C25.5125292,4.40345634 25.7448293,3.898718 25.7448293,3.34185366 C25.7448293,2.78504569 25.5124553,2.28035748 25.1379504,1.91472468 C24.7621,1.5477784 24.2431371,1.32073171 23.6710244,1.32073171 Z" id="Shape"></path>
                        </g>
                    </g>
                </g>
            </g>
        </g>
    </g>
</svg>