<?xml version="1.0" encoding="UTF-8"?>
<svg width="48px" height="43px" viewBox="0 0 48 43" version="1.1" xmlns="http://www.w3.org/2000/svg" xmlns:xlink="http://www.w3.org/1999/xlink">
    <title>dev</title>
    <g id="Home" stroke="none" stroke-width="1" fill="none" fill-rule="evenodd">
        <g id="Home-2550" transform="translate(-591.000000, -1168.000000)" fill="#6D3BC0" fill-rule="nonzero">
            <g id="Services-Copy" transform="translate(544.000000, 842.000000)">
                <g id="Group" transform="translate(0.000000, 274.000000)">
                    <g id="dev" transform="translate(47.000000, 52.000000)">
                        <path d="M42.6792453,-1.75148784e-12 C45.6129127,-1.75148784e-12 48,2.38708732 48,5.32075472 L48,37.0285968 C48,39.9627063 45.6129127,42.3493515 42.6792453,42.3493515 L5.32075472,42.3493515 C2.38708732,42.3493515 0,39.9627063 0,37.0285968 L0,5.32075472 C0,2.38708732 2.38708732,-1.75148784e-12 5.32075472,-1.75148784e-12 L42.6792453,-1.75148784e-12 Z M46.415,12.689 L1.584,12.689 L1.58490566,37.0285968 C1.58490566,39.0884434 3.26090808,40.7644458 5.32075472,40.7644458 L42.6792453,40.7644458 C44.7390919,40.7644458 46.4150943,39.0884434 46.4150943,37.0285968 L46.415,12.689 Z M25.542895,17.3406545 C25.9709611,17.4308667 26.2451356,17.8509729 26.1549233,18.2794811 L22.9590213,33.4532724 C22.8803066,33.8265035 22.5512972,34.0825472 22.1846993,34.0825472 C22.1303066,34.0825472 22.0754717,34.0767984 22.0201946,34.0653007 C21.5921286,33.9750884 21.317954,33.5545402 21.4081663,33.1264741 L24.6040685,17.9526828 C24.6942806,17.5246167 25.1143868,17.2504422 25.542895,17.3406545 Z M19.5424528,20.7678361 C19.8259139,21.1012677 19.7861144,21.6014151 19.4526828,21.8848762 L15.0336085,25.6481427 L19.4526828,29.4114092 C19.7861144,29.6953125 19.8259139,30.1954598 19.5424528,30.5284493 C19.3854658,30.7128538 19.1625884,30.8074882 18.9383844,30.8074882 C18.7570755,30.8074882 18.5744399,30.7451356 18.4254127,30.6182194 L13.2974647,26.2517689 C13.1205779,26.1009729 13.0188679,25.8807488 13.0188679,25.6481427 C13.0188679,25.4159787 13.1210201,25.1957547 13.2974647,25.0449588 L18.4254127,20.6785082 C18.7584022,20.394605 19.2585496,20.4348466 19.5424528,20.7678361 Z M29.5745873,20.6785082 L34.7025353,25.0449588 C34.8794221,25.1957547 34.9811321,25.4159787 34.9811321,25.6481427 C34.9811321,25.8807488 34.8794221,26.1009729 34.7025353,26.2517689 L29.5745873,30.6182194 C29.4255601,30.7451356 29.2429245,30.8074882 29.0616156,30.8074882 C28.8374116,30.8074882 28.6145342,30.7128538 28.4579894,30.5284493 C28.1740861,30.1954598 28.2143278,29.6953125 28.5473172,29.4114092 L32.9663915,25.6481427 L28.5473172,21.8848762 C28.2143278,21.6014151 28.1740861,21.1012677 28.4579894,20.7678361 C28.7414504,20.4348466 29.2420402,20.394605 29.5745873,20.6785082 Z M42.6792453,1.58490566 L5.32075472,1.58490566 C3.26090808,1.58490566 1.58490566,3.26090808 1.58490566,5.32075472 L1.584,11.104 L46.415,11.104 L46.4150943,5.32075472 C46.4150943,3.26090808 44.7390919,1.58490566 42.6792453,1.58490566 Z M21.2449882,3.90610257 C22.6278007,3.90610257 23.7528007,5.03110257 23.7528007,6.41347291 C23.7528007,7.79628543 22.6278007,8.92128543 21.2449882,8.92128543 C19.8626179,8.92128543 18.7376179,7.79628543 18.7376179,6.41347291 C18.7376179,5.03110257 19.8626179,3.90610257 21.2449882,3.90610257 Z M13.5397995,3.8817806 C14.922612,3.8817806 16.047612,5.0067806 16.047612,6.38959313 C16.047612,7.77196347 14.922612,8.89740566 13.5397995,8.89740566 C12.1574292,8.89740566 11.0319871,7.77196347 11.0319871,6.38959313 C11.0319871,5.0067806 12.1574292,3.8817806 13.5397995,3.8817806 Z M5.83461079,3.85745875 C7.21742332,3.85745875 8.34242332,4.98245875 8.34242332,6.36527117 C8.34242332,7.7480837 7.21742332,8.8730837 5.83461079,8.8730837 C4.45179838,8.8730837 3.32679838,7.7480837 3.32679838,6.36527117 C3.32679838,4.98245875 4.45179838,3.85745875 5.83461079,3.85745875 Z M21.2449882,5.49056604 C20.7364387,5.49056604 20.3225236,5.90448113 20.3225236,6.41347291 C20.3225236,6.92246468 20.7364387,7.33637977 21.2449882,7.33637977 C21.7539799,7.33637977 22.167895,6.92246468 22.167895,6.41347291 C22.167895,5.90448113 21.7539799,5.49056604 21.2449882,5.49056604 Z M13.5397995,5.46668626 C13.03125,5.46668626 12.6168927,5.88060136 12.6168927,6.38959313 C12.6168927,6.89858491 13.03125,7.3125 13.5397995,7.3125 C14.0487912,7.3125 14.4627063,6.89858491 14.4627063,6.38959313 C14.4627063,5.88060136 14.0487912,5.46668626 13.5397995,5.46668626 Z M5.83461079,5.44236442 C5.32606132,5.44236442 4.91170404,5.8567217 4.91170404,6.36527117 C4.91170404,6.87426294 5.32606132,7.28817804 5.83461079,7.28817804 C6.34360257,7.28817804 6.75751766,6.87426294 6.75751766,6.36527117 C6.75751766,5.8567217 6.34360257,5.44236442 5.83461079,5.44236442 Z" id="Combined-Shape"></path>
                    </g>
                </g>
            </g>
        </g>
    </g>
</svg>