<?xml version="1.0" encoding="UTF-8"?>
<svg width="47px" height="48px" viewBox="0 0 47 48" version="1.1" xmlns="http://www.w3.org/2000/svg" xmlns:xlink="http://www.w3.org/1999/xlink">
    <title>didit-projects</title>
    <g id="Home" stroke="none" stroke-width="1" fill="none" fill-rule="evenodd">
        <g id="Home-2550" transform="translate(-1591.000000, -1425.000000)" fill="#6D3BC0" fill-rule="nonzero">
            <g id="Services-Copy" transform="translate(544.000000, 842.000000)">
                <g id="Group-12" transform="translate(1000.000000, 531.000000)">
                    <g id="didit-projects" transform="translate(47.000000, 52.000000)">
                        <path d="M23.0634146,47.9707317 C21.2682927,47.9707317 18.6829268,46.702439 16.5756098,40.6341463 C16.1463415,39.395122 15.7853659,38.1170732 15.4926829,36.8292683 L15.395122,36.4097561 L14.9853659,36.5365854 C13.502439,37.0146341 12.0878049,37.395122 10.7707317,37.6780488 C8.87804878,38.0878049 7.1902439,38.2926829 5.75609756,38.2926829 C3.17073171,38.2926829 1.43414634,37.6390244 0.585365854,36.3512195 C0.214634146,35.7853659 -0.156097561,34.8 0.204878049,33.3463415 C0.887804878,30.5853659 3.79512195,27.5414634 6.10731707,25.4829268 C6.55609756,25.0829268 7.02439024,24.6829268 7.50243902,24.2829268 L7.86341463,23.9804878 L7.50243902,23.6780488 C7.02439024,23.2780488 6.54634146,22.8780488 6.10731707,22.4780488 C3.79512195,20.4097561 0.897560976,17.3756098 0.204878049,14.6146341 C-0.156097561,13.1609756 0.214634146,12.1756098 0.585365854,11.6097561 C1.43414634,10.3219512 3.17073171,9.66829268 5.75609756,9.66829268 C7.1902439,9.66829268 8.87804878,9.87317073 10.7707317,10.2829268 C12.0878049,10.5658537 13.5121951,10.9560976 14.995122,11.4243902 L15.404878,11.5512195 L15.502439,11.1317073 C15.795122,9.84390244 16.1560976,8.56585366 16.5853659,7.32682927 C18.6829268,1.26829268 21.2682927,0 23.0634146,0 C24.8585366,0 27.4439024,1.26829268 29.5512195,7.33658537 C29.9804878,8.58536585 30.3414634,9.86341463 30.6341463,11.1414634 L30.7317073,11.5609756 L31.1414634,11.4341463 C32.6243902,10.9560976 34.0390244,10.5756098 35.3658537,10.2926829 C37.2585366,9.88292683 38.9463415,9.67804878 40.3804878,9.67804878 C42.9658537,9.67804878 44.702439,10.3317073 45.5512195,11.6195122 C45.9219512,12.1853659 46.2926829,13.1707317 45.9317073,14.6243902 C45.2487805,17.3853659 42.3414634,20.4292683 40.0292683,22.4878049 C39.5804878,22.8878049 39.1121951,23.2878049 38.6341463,23.6878049 L38.2731707,23.9902439 L38.6341463,24.2926829 C39.1219512,24.6926829 39.5902439,25.102439 40.0292683,25.4926829 C42.3414634,27.5609756 45.2390244,30.595122 45.9317073,33.3560976 C46.2926829,34.8097561 45.9219512,35.795122 45.5512195,36.3609756 C44.702439,37.6487805 42.9658537,38.302439 40.3804878,38.302439 C38.9463415,38.302439 37.2585366,38.097561 35.3658537,37.6878049 C34.0487805,37.404878 32.6243902,37.0146341 31.1414634,36.5463415 L30.7317073,36.4195122 L30.6341463,36.8390244 C30.3512195,38.1170732 29.9804878,39.395122 29.5512195,40.6439024 C27.4439024,46.6926829 24.8585366,47.9707317 23.0634146,47.9707317 Z M22.897561,33.4146341 C20.995122,34.302439 19.1121951,35.0829268 17.297561,35.7560976 L16.9756098,35.8731707 L17.0439024,36.204878 C17.3268293,37.5121951 17.697561,38.8195122 18.1268293,40.0878049 C19.502439,44.0487805 21.3073171,46.3121951 23.0536585,46.3121951 C24.8097561,46.3121951 26.604878,44.0390244 27.9804878,40.0878049 C28.4195122,38.8195122 28.7804878,37.5121951 29.0731707,36.204878 L29.1414634,35.8731707 L28.8195122,35.7560976 C27.004878,35.0926829 25.1121951,34.302439 23.2195122,33.4146341 L23.0536585,33.3365854 L22.897561,33.4146341 Z M8.96585366,25.2292683 C8.33170732,25.7365854 7.74634146,26.2439024 7.2097561,26.7219512 C5.46341463,28.2829268 2.42926829,31.2780488 1.81463415,33.7560976 C1.55121951,34.8097561 1.87317073,35.297561 1.97073171,35.4536585 C2.48780488,36.2341463 3.77560976,36.6536585 5.67804878,36.6536585 C8.04878049,36.6536585 11.1902439,36.0390244 14.7512195,34.8878049 L15.0731707,34.7804878 L15.0146341,34.4487805 C14.702439,32.6439024 14.4682927,30.7317073 14.3317073,28.7609756 L14.3219512,28.5658537 L14.1560976,28.4585366 C12.497561,27.4146341 10.9073171,26.3219512 9.45365854,25.2195122 L9.2097561,25.0341463 L8.96585366,25.2292683 Z M36.6829268,25.2195122 C35.2292683,26.3219512 33.6390244,27.404878 31.9804878,28.4585366 L31.8146341,28.5658537 L31.804878,28.7609756 C31.6585366,30.7317073 31.4341463,32.6439024 31.1219512,34.4487805 L31.0634146,34.7804878 L31.3853659,34.8878049 C34.9463415,36.0390244 38.0878049,36.6536585 40.4585366,36.6536585 C42.3707317,36.6536585 43.6487805,36.2439024 44.1658537,35.4536585 C44.2731707,35.297561 44.5853659,34.8097561 44.3219512,33.7560976 C43.7853659,31.6 41.4243902,29.0634146 39.6682927,27.404878 L39.6878049,27.404878 L38.9268293,26.7219512 C38.3804878,26.2341463 37.795122,25.7365854 37.1707317,25.2292683 L36.9365854,25.0341463 L36.6829268,25.2195122 Z M16.1365854,30.3902439 C16.2536585,31.5414634 16.4,32.6731707 16.5853659,33.7658537 L16.6634146,34.2341463 L17.1121951,34.0682927 C18.1658537,33.6780488 19.2780488,33.2292683 20.4,32.7414634 L20.6341463,32.6439024 L20.6341463,32.1463415 L20.4195122,32.0390244 C19.804878,31.7268293 19.1609756,31.3853659 18.5170732,31.0341463 C17.9121951,30.702439 17.3073171,30.3609756 16.7219512,30.0292683 L16.0585366,29.6487805 L16.1365854,30.3902439 Z M29.4146341,30.0097561 C28.8292683,30.3512195 28.2341463,30.6829268 27.6195122,31.0146341 C26.995122,31.3560976 26.3512195,31.697561 25.7170732,32.0195122 L24.9853659,32.4 L25.7463415,32.7317073 C26.8780488,33.2195122 27.9804878,33.6682927 29.0341463,34.0585366 L29.4731707,34.2243902 L29.5512195,33.7560976 C29.7268293,32.6829268 29.8829268,31.5512195 30,30.3804878 L30.0780488,29.6195122 L29.4146341,30.0097561 Z M22.897561,16.5463415 C21.7365854,17.102439 20.5365854,17.7268293 19.3073171,18.4 C18.2146341,19.004878 17.1317073,19.6292683 16.097561,20.2536585 L15.9219512,20.3609756 L15.9121951,20.5658537 C15.8536585,21.6878049 15.8243902,22.8390244 15.8243902,23.9804878 C15.8243902,25.1219512 15.8536585,26.2634146 15.9121951,27.395122 L15.9219512,27.6 L16.097561,27.7073171 C17.1219512,28.3317073 18.204878,28.9560976 19.3073171,29.5609756 C20.5268293,30.2243902 21.7268293,30.8487805 22.897561,31.4146341 L23.0634146,31.4926829 L23.2292683,31.4146341 C24.3902439,30.8487805 25.6,30.2243902 26.8195122,29.5609756 C27.9121951,28.9560976 28.995122,28.3317073 30.0292683,27.7073171 L30.204878,27.6 L30.2146341,27.395122 C30.2731707,26.2634146 30.302439,25.1219512 30.302439,23.9804878 C30.302439,22.8390244 30.2731707,21.697561 30.2146341,20.5658537 L30.204878,20.3609756 L30.0292683,20.2536585 C28.995122,19.6292683 27.9219512,19.004878 26.8195122,18.4 C25.5902439,17.7268293 24.3902439,17.1121951 23.2292683,16.5463415 L23.0634146,16.4682927 L22.897561,16.5463415 Z M13.5804878,21.8536585 C12.6829268,22.4585366 11.804878,23.0634146 10.9853659,23.6682927 L10.5560976,23.9804878 L10.9853659,24.2926829 C11.804878,24.897561 12.6829268,25.5121951 13.5804878,26.1073171 L14.204878,26.5268293 L14.1853659,25.7756098 C14.1658537,25.1902439 14.1560976,24.5853659 14.1658537,23.9804878 C14.1658537,23.395122 14.1756098,22.7902439 14.1853659,22.1853659 L14.204878,21.4341463 L13.5804878,21.8536585 Z M31.9414634,22.195122 C31.9609756,22.7902439 31.9609756,23.3853659 31.9609756,23.9902439 C31.9609756,24.5756098 31.9512195,25.1804878 31.9414634,25.7853659 L31.9219512,26.5365854 L32.5463415,26.1170732 C33.4341463,25.5219512 34.3121951,24.9170732 35.1414634,24.302439 L35.5707317,23.9902439 L35.1414634,23.6780488 C34.3121951,23.0731707 33.4439024,22.4585366 32.5463415,21.8634146 L31.9219512,21.4439024 L31.9414634,22.195122 Z M32.0780488,19.5707317 C33.7073171,20.604878 35.2585366,21.6682927 36.6829268,22.7512195 L36.9268293,22.9365854 L37.1609756,22.7414634 C37.7853659,22.2341463 38.3804878,21.7365854 38.9170732,21.2487805 C40.6634146,19.6878049 43.697561,16.6926829 44.3121951,14.2146341 C44.5756098,13.1609756 44.2536585,12.6829268 44.1560976,12.5170732 C43.6390244,11.7268293 42.3512195,11.3170732 40.4390244,11.3170732 C38.0682927,11.3170732 34.9268293,11.9317073 31.3658537,13.0829268 L31.0439024,13.1902439 L31.102439,13.5219512 C31.4146341,15.3170732 31.6487805,17.2292683 31.7853659,19.2097561 L31.8146341,19.5707317 L32.0780488,19.5707317 L32.0780488,19.5707317 Z M7.2097561,21.2487805 C7.75609756,21.7365854 8.34146341,22.2341463 8.96585366,22.7414634 L9.2,22.9365854 L9.44390244,22.7512195 C10.9073171,21.6487805 12.4878049,20.5560976 14.1463415,19.5121951 L14.3121951,19.404878 L14.3219512,19.2097561 C14.4682927,17.2390244 14.6926829,15.3268293 15.004878,13.5219512 L15.0634146,13.1902439 L14.7414634,13.0829268 C11.1804878,11.9219512 8.03902439,11.3170732 5.66829268,11.3170732 C3.75609756,11.3170732 2.47804878,11.7268293 1.96097561,12.5170732 C1.85365854,12.6731707 1.54146341,13.1609756 1.80487805,14.2146341 C2.34146341,16.3707317 4.70243902,18.9073171 6.45853659,20.5658537 L6.43902439,20.5658537 L7.2097561,21.2487805 Z M16.5756098,14.204878 C16.4,15.2878049 16.2439024,16.4292683 16.1268293,17.5804878 L16.0487805,18.3414634 L16.7121951,17.9609756 C17.2878049,17.6292683 17.8926829,17.2878049 18.5073171,16.9560976 C19.1414634,16.6146341 19.7756098,16.2731707 20.4097561,15.9512195 L21.1414634,15.5707317 L20.3804878,15.2390244 C19.2585366,14.7512195 18.1463415,14.302439 17.0926829,13.9121951 L16.6439024,13.7463415 L16.5756098,14.204878 Z M27.6195122,16.9463415 C28.2146341,17.2780488 28.8195122,17.6097561 29.4146341,17.9512195 L30.0780488,18.3317073 L30,17.5707317 C29.8829268,16.4 29.7268293,15.2682927 29.5512195,14.195122 L29.4731707,13.7268293 L29.0243902,13.8926829 C27.9609756,14.2926829 26.8585366,14.7317073 25.7365854,15.2195122 L24.9853659,15.5512195 L25.7170732,15.9317073 C26.2634146,16.2146341 26.8195122,16.5073171 27.3756098,16.8097561 L27.6195122,16.9463415 Z M23.0634146,1.65853659 C21.3073171,1.65853659 19.5121951,3.93170732 18.1365854,7.88292683 C17.697561,9.15121951 17.3365854,10.4585366 17.0439024,11.7658537 L16.9756098,12.097561 L17.297561,12.2146341 C19.1219512,12.8780488 21.004878,13.6682927 22.897561,14.5560976 L23.0634146,14.6341463 L23.2292683,14.5560976 C25.1219512,13.6682927 27.0146341,12.8878049 28.8292683,12.2146341 L29.1512195,12.097561 L29.0829268,11.7658537 C28.8,10.4585366 28.4292683,9.15121951 27.9902439,7.88292683 C26.6146341,3.92195122 24.8195122,1.65853659 23.0634146,1.65853659 Z" id="Shape"></path>
                    </g>
                </g>
            </g>
        </g>
    </g>
</svg>