<?xml version="1.0" encoding="UTF-8"?>
<svg width="48px" height="43px" viewBox="0 0 48 43" version="1.1" xmlns="http://www.w3.org/2000/svg" xmlns:xlink="http://www.w3.org/1999/xlink">
    <title>finance</title>
    <g id="Home" stroke="none" stroke-width="1" fill="none" fill-rule="evenodd">
        <g id="Home-2550" transform="translate(-1591.000000, -1168.000000)" fill="#6D3BC0" fill-rule="nonzero">
            <g id="Services-Copy" transform="translate(544.000000, 842.000000)">
                <g id="Group-11" transform="translate(1000.000000, 274.000000)">
                    <g id="finance" transform="translate(47.000000, 52.000000)">
                        <path d="M42.6792453,-2.57571742e-12 C45.6129127,-2.57571742e-12 48,2.38708732 48,5.32075472 L48,37.0285968 C48,39.9627063 45.6129127,42.3493515 42.6792453,42.3493515 L5.32075472,42.3493515 C2.38708732,42.3493515 0,39.9627063 0,37.0285968 L0,5.32075472 C0,2.38708732 2.38708732,-2.57571742e-12 5.32075472,-2.57571742e-12 L42.6792453,-2.57571742e-12 Z M46.415,12.689 L1.584,12.689 L1.58490566,37.0285968 C1.58490566,39.0884434 3.26090808,40.7644458 5.32075472,40.7644458 L42.6792453,40.7644458 C44.7390919,40.7644458 46.4150943,39.0884434 46.4150943,37.0285968 L46.415,12.689 Z M33.6633255,22.0493809 C33.9304245,22.0493809 34.1793927,22.1842571 34.3257666,22.4075767 L37.1157135,26.6612617 C37.2753538,26.9044811 37.2886202,27.2162441 37.1502063,27.4722877 C37.0117925,27.7287736 36.7438089,27.8884139 36.4528302,27.8884139 L34.2954939,27.8886973 C33.8681983,30.4024212 32.5828617,32.6782546 30.6345814,34.349204 C28.7158019,35.9942512 26.2911262,36.9379422 23.9823113,36.9379422 C20.8257666,36.9379422 17.6165978,35.2340802 15.6080484,32.4914504 C15.3493515,32.1385613 15.425855,31.6428361 15.7791863,31.3841391 C16.1320755,31.1254422 16.6282429,31.2019458 16.8864976,31.5552771 C18.5762088,33.8623232 21.3617334,35.3530365 23.9823113,35.3530365 C27.5767469,35.3530365 31.763334,32.5213531 32.6842795,27.8892401 L30.8729364,27.8884139 C30.5819575,27.8884139 30.3139741,27.7287736 30.1760024,27.4722877 C30.0371462,27.2158019 30.050855,26.9044811 30.2104953,26.6612617 L33.0004422,22.4075767 C33.146816,22.1842571 33.3957842,22.0493809 33.6633255,22.0493809 Z M24,19.416421 C24.4377949,19.416421 24.7924528,19.771079 24.7924528,20.2088738 L24.7933161,20.7647826 C26.0953198,21.1150452 27.0566038,22.3059661 27.0566038,23.7169811 C27.0566038,24.154776 26.7019458,24.509434 26.2641509,24.509434 C25.8263561,24.509434 25.4716981,24.154776 25.4716981,23.7169811 C25.4716981,22.9055129 24.8114682,22.245283 24,22.245283 C23.1885318,22.245283 22.5283019,22.9055129 22.5283019,23.7169811 C22.5283019,24.5284493 23.1885318,25.1886792 24,25.1886792 C25.6852889,25.1886792 27.0566038,26.5599941 27.0566038,28.245283 C27.0566038,29.656298 26.0953198,30.847219 24.7933161,31.1974816 L24.7924528,31.8564269 C24.7924528,32.2942217 24.4377949,32.6488798 24,32.6488798 C23.5622051,32.6488798 23.2075472,32.2942217 23.2075472,31.8564269 L23.2066839,31.1974816 C21.9046802,30.847219 20.9433962,29.656298 20.9433962,28.245283 C20.9433962,27.8074882 21.2980542,27.4528302 21.7358491,27.4528302 C22.1736439,27.4528302 22.5283019,27.8074882 22.5283019,28.245283 C22.5283019,29.0533897 23.1830731,29.7115085 23.9899233,29.7169472 L24,29.7152123 L24,29.7152123 L24.01,29.716 L24.1415267,29.7102311 C24.8868578,29.6387837 25.4716981,29.0090178 25.4716981,28.245283 C25.4716981,27.4338148 24.8114682,26.7735849 24,26.7735849 C22.3147111,26.7735849 20.9433962,25.4022701 20.9433962,23.7169811 C20.9433962,22.3059661 21.9046802,21.1150452 23.2066839,20.7647826 L23.2075472,20.2088738 C23.2075472,19.771079 23.5622051,19.416421 24,19.416421 Z M24.0181309,14.4680129 C27.1751179,14.4680129 30.3838443,16.1718749 32.3928361,18.9145047 C32.6510908,19.2673938 32.5745873,19.7631191 32.2212559,20.021816 C31.8688089,20.2805129 31.3726415,20.2040094 31.1139446,19.8511202 C29.4242334,17.5436321 26.6391509,16.0529186 24.0181309,16.0529186 C20.4232762,16.0529186 16.2366672,18.8849993 15.3157206,23.5167775 L17.1266214,23.5175412 C17.4180425,23.5175412 17.6855837,23.6771817 17.8239976,23.9336674 C17.9624116,24.1897111 17.949145,24.5014741 17.7895047,24.7446934 L14.9995578,28.9983786 C14.853184,29.2216981 14.6042158,29.3565743 14.3371167,29.3565743 C14.0700177,29.3565743 13.8210496,29.2221403 13.6742334,28.9983786 L10.8842865,24.7446934 C10.7246462,24.5014741 10.7113798,24.1897111 10.8497937,23.9336674 C10.9882075,23.6771817 11.2557488,23.5175412 11.5471698,23.5175412 L13.7045061,23.5172579 C14.1318017,21.0035341 15.4171383,18.7277006 17.3654186,17.0567512 C19.2841981,15.411704 21.709316,14.4680129 24.0181309,14.4680129 Z M15.6593455,25.1024469 L13.0144458,25.1024469 L14.3371167,27.1189563 L15.6593455,25.1024469 Z M33.6628833,24.2869988 L32.3406545,26.3035082 L34.9855542,26.3035082 L33.6628833,24.2869988 Z M42.6792453,1.58490566 L5.32075472,1.58490566 C3.26090808,1.58490566 1.58490566,3.26090808 1.58490566,5.32075472 L1.584,11.104 L46.415,11.104 L46.4150943,5.32075472 C46.4150943,3.26090808 44.7390919,1.58490566 42.6792453,1.58490566 Z M21.2449882,3.90610257 C22.6278007,3.90610257 23.7528007,5.03110257 23.7528007,6.41347291 C23.7528007,7.79628543 22.6278007,8.92128543 21.2449882,8.92128543 C19.8626179,8.92128543 18.7376179,7.79628543 18.7376179,6.41347291 C18.7376179,5.03110257 19.8626179,3.90610257 21.2449882,3.90610257 Z M13.5397995,3.8817806 C14.922612,3.8817806 16.047612,5.0067806 16.047612,6.38959313 C16.047612,7.77196347 14.922612,8.89740566 13.5397995,8.89740566 C12.1574292,8.89740566 11.0319871,7.77196347 11.0319871,6.38959313 C11.0319871,5.0067806 12.1574292,3.8817806 13.5397995,3.8817806 Z M5.83461079,3.85745875 C7.21742332,3.85745875 8.34242332,4.98245875 8.34242332,6.36527117 C8.34242332,7.7480837 7.21742332,8.8730837 5.83461079,8.8730837 C4.45179838,8.8730837 3.32679838,7.7480837 3.32679838,6.36527117 C3.32679838,4.98245875 4.45179838,3.85745875 5.83461079,3.85745875 Z M21.2449882,5.49056604 C20.7364387,5.49056604 20.3225236,5.90448113 20.3225236,6.41347291 C20.3225236,6.92246468 20.7364387,7.33637977 21.2449882,7.33637977 C21.7539799,7.33637977 22.167895,6.92246468 22.167895,6.41347291 C22.167895,5.90448113 21.7539799,5.49056604 21.2449882,5.49056604 Z M13.5397995,5.46668626 C13.03125,5.46668626 12.6168927,5.88060136 12.6168927,6.38959313 C12.6168927,6.89858491 13.03125,7.3125 13.5397995,7.3125 C14.0487912,7.3125 14.4627063,6.89858491 14.4627063,6.38959313 C14.4627063,5.88060136 14.0487912,5.46668626 13.5397995,5.46668626 Z M5.83461079,5.44236442 C5.32606132,5.44236442 4.91170404,5.8567217 4.91170404,6.36527117 C4.91170404,6.87426294 5.32606132,7.28817804 5.83461079,7.28817804 C6.34360257,7.28817804 6.75751766,6.87426294 6.75751766,6.36527117 C6.75751766,5.8567217 6.34360257,5.44236442 5.83461079,5.44236442 Z" id="Combined-Shape"></path>
                    </g>
                </g>
            </g>
        </g>
    </g>
</svg>