<?xml version="1.0" encoding="UTF-8"?>
<svg width="50px" height="50px" viewBox="0 0 50 50" version="1.1" xmlns="http://www.w3.org/2000/svg" xmlns:xlink="http://www.w3.org/1999/xlink">
    <title>project-managers</title>
    <g id="Home" stroke="none" stroke-width="1" fill="none" fill-rule="evenodd">
        <g id="Home-2550" transform="translate(-590.000000, -1424.000000)" fill="#6D3BC0" fill-rule="nonzero" stroke="#6D3BC0" stroke-width="0.3">
            <g id="Services-Copy" transform="translate(544.000000, 842.000000)">
                <g id="Group-10" transform="translate(0.000000, 531.000000)">
                    <g id="project-managers" transform="translate(47.000000, 52.000000)">
                        <path d="M45.2817049,-1.34647848e-12 C46.7821727,0.0015718086 47.998211,1.21743409 48,2.71790164 L48,2.71790164 L48,37.9903279 C47.9982053,39.4840869 46.7926371,40.6971621 45.298918,40.7082295 L45.298918,40.7082295 L42.895082,40.8393443 L42.895082,44.1540984 C42.8927521,46.4938819 40.9969957,48.3902983 38.6572131,48.3934842 L38.6572131,48.3934842 L30.428459,48.3934842 C28.5537092,48.4017351 26.8991586,47.1699036 26.3695082,45.3715082 C26.3671475,45.363541 26.3648852,45.3555738 26.362918,45.3476066 L26.362918,45.3476066 L25.2227213,40.867082 L2.71416393,40.7078361 C1.215146,40.7044761 0.00135129459,39.4890539 -3.55271368e-15,37.9900328 L-3.55271368e-15,37.9900328 L-3.55271368e-15,2.71790164 C0.00178900013,1.21743409 1.21782728,0.0015718086 2.71829508,-1.34647848e-12 L2.71829508,-1.34647848e-12 Z M31.4856393,24.7222623 C30.8725489,24.7222623 30.375541,25.2192703 30.375541,25.8323607 L30.375541,25.8323607 L30.375541,41.8721311 C30.375541,42.1980697 30.1113156,42.4622951 29.785377,42.4622951 C29.4594385,42.4622951 29.1952131,42.1980697 29.1952131,41.8721311 L29.1952131,41.8721311 L29.1952131,39.6803607 L28.1803279,38.2099672 C27.4553114,37.1592213 26.2602098,36.5318849 24.9836066,36.5319344 L24.9836066,36.5319344 L25.0801967,36.7611148 C25.5670838,37.8501682 25.9599255,38.9788724 26.2544262,40.1348852 L26.2544262,40.1348852 L27.5036066,45.0441639 C27.8893999,46.3359708 29.0802878,47.2190844 30.428459,47.2131448 L30.428459,47.2131448 L38.6572131,47.2131448 C40.3454108,47.2106752 41.7131289,45.842297 41.7147541,44.1540984 L41.7147541,44.1540984 L41.7145574,37.4928197 C41.7180526,37.1475116 41.5358365,36.8269277 41.2373599,36.6532568 C40.9388833,36.4795859 40.5701331,36.4795859 40.2716565,36.6532568 C39.9731798,36.8269277 39.7909638,37.1475116 39.794459,37.4928197 L39.794459,37.4928197 L39.794459,39.4965246 C39.794459,39.8224631 39.5302336,40.0866885 39.2042951,40.0866885 C38.8783565,40.0866885 38.6141311,39.8224631 38.6141311,39.4965246 L38.6141311,39.4965246 L38.6141311,36.5678361 C38.6149738,36.0841184 38.2511397,35.6775131 37.7703013,35.6248081 C37.2894628,35.5721031 36.8461891,35.8902408 36.7422295,36.3626557 L36.7422295,36.3626557 L36.7422295,38.8848197 C36.7422295,39.2107582 36.4780041,39.4749836 36.1520656,39.4749836 L36.1520656,39.4749836 L36.1290492,39.4749836 C35.8031106,39.4749836 35.5388852,39.2107582 35.5388852,38.8848197 L35.5388852,38.8848197 L35.5388852,36.5682295 C35.5389583,36.464102 35.5466509,36.3601194 35.5619016,36.2571148 L35.5619016,36.2571148 L35.5619016,35.5882623 C35.5619016,35.1020706 35.1677654,34.7079344 34.6815738,34.7079344 C34.1953821,34.7079344 33.8012459,35.1020706 33.8012459,35.5882623 L33.8012459,35.5882623 L33.8012459,38.8844262 C33.8012459,39.2103648 33.5370205,39.4745902 33.211082,39.4745902 C32.8851434,39.4745902 32.620918,39.2103648 32.620918,38.8844262 L32.620918,38.8844262 L32.620918,36.478623 C32.6042436,36.4234393 32.5957598,36.3661069 32.5957377,36.308459 L32.5957377,36.308459 L32.5957377,25.8323607 C32.5957377,25.2192703 32.0987297,24.7222623 31.4856393,24.7222623 Z M46.8196721,9.87354098 L1.18032787,9.87354098 L1.18032787,37.9903279 C1.18162847,38.8388874 1.86934169,39.5263807 2.71790164,39.5274098 L2.71790164,39.5274098 L24.9050164,39.6847869 C24.658098,38.8517399 24.3564587,38.0359007 24.0020656,37.2425902 L24.0020656,37.2425902 L23.902623,37.0200984 C23.7385975,36.6536364 23.7713641,36.2290331 23.9896722,35.8920758 C24.2079804,35.5551185 24.582111,35.3516784 24.9836066,35.3516066 C26.6482334,35.3513677 28.2066323,36.1693635 29.1519344,37.539541 L29.1519344,37.539541 L29.1954098,37.6024918 L29.1954098,25.8323607 C29.1954098,24.5673932 30.2208686,23.5419344 31.4858361,23.5419344 C32.7508035,23.5419344 33.7762623,24.5673932 33.7762623,25.8323607 L33.7762623,25.8323607 L33.7762623,33.7396721 C34.2777778,33.4916787 34.8588189,33.4592592 35.3848095,33.6499224 C35.9108,33.8405856 36.3361089,34.237791 36.5622295,34.749541 C37.0822591,34.4329767 37.713071,34.3546045 38.2947549,34.5342917 C38.8764388,34.7139789 39.3531464,35.1344735 39.6040328,35.6891803 C40.2626843,35.2677219 41.0988532,35.2393663 41.7845431,35.6152364 C42.470233,35.9911066 42.8960958,36.7112617 42.895082,37.4932131 L42.895082,37.4932131 L42.895082,39.6571475 L45.2497377,39.5292787 C45.260459,39.5282951 45.2711803,39.5282951 45.2819016,39.5282951 L45.2819016,39.5282951 C46.1305719,39.5269904 46.8185878,38.8391945 46.8196721,37.9903279 L46.8196721,37.9903279 L46.8196721,9.87354098 Z M9.52003279,27.0952131 C9.84597133,27.0952131 10.1101967,27.3594385 10.1101967,27.685377 C10.1101967,28.0113156 9.84597133,28.275541 9.52003279,28.275541 L9.52003279,28.275541 L7.0162623,28.275541 L7.0162623,33.2754098 L12.0239016,33.2754098 L12.0239016,31.6862951 C12.0239016,31.3603565 12.288127,31.0961311 12.6140656,31.0961311 C12.9400041,31.0961311 13.2042295,31.3603565 13.2042295,31.6862951 L13.2042295,31.6862951 L13.2042295,33.5958689 C13.2036332,34.0705365 12.8189301,34.4551516 12.3442623,34.4556393 L12.3442623,34.4556393 L6.69590164,34.4556393 C6.22123383,34.4551516 5.83653076,34.0705365 5.83593443,33.5958689 L5.83593443,33.5958689 L5.83593443,27.9548852 C5.83658495,27.480256 6.22127217,27.0957007 6.69590164,27.0952131 L6.69590164,27.0952131 Z M21.2919344,32.3962623 C21.617873,32.3962623 21.8820984,32.6604877 21.8820984,32.9864262 C21.8820984,33.3123648 21.617873,33.5765902 21.2919344,33.5765902 L21.2919344,33.5765902 L19.2762295,33.5765902 C18.950291,33.5765902 18.6860656,33.3123648 18.6860656,32.9864262 C18.6860656,32.6604877 18.950291,32.3962623 19.2762295,32.3962623 L19.2762295,32.3962623 Z M13.2604414,26.6299076 C13.4163128,26.6156117 13.571479,26.6638228 13.6918033,26.7639344 C13.8121174,26.8640548 13.8877304,27.0078698 13.9020078,27.1637407 C13.9162852,27.3196116 13.8680575,27.47477 13.7679344,27.595082 L13.7679344,27.595082 L10.7596721,31.2102295 L10.7359672,31.2330492 C10.3946486,31.5683784 9.85533881,31.5921827 9.48580328,31.2882295 L9.48580328,31.2882295 L8.39990164,30.4096721 C8.23343543,30.2778608 8.15060936,30.0667855 8.18300887,29.8569391 C8.21540838,29.6470927 8.35803846,29.470827 8.55650764,29.3953603 C8.75497682,29.3198936 8.97868729,29.3568606 9.14232787,29.4921639 L9.14232787,29.4921639 L10.0456721,30.2229836 L12.8606557,26.8401639 C12.9607621,26.7198353 13.1045699,26.6442035 13.2604414,26.6299076 Z M42.304918,27.5065574 C42.6308566,27.5065574 42.895082,27.7707828 42.895082,28.0967213 C42.895082,28.4226599 42.6308566,28.6868852 42.304918,28.6868852 L42.304918,28.6868852 L37.5100328,28.6868852 C37.1840942,28.6868852 36.9198689,28.4226599 36.9198689,28.0967213 C36.9198689,27.7707828 37.1840942,27.5065574 37.5100328,27.5065574 L37.5100328,27.5065574 Z M26.7554754,27.5065574 C27.081414,27.5065574 27.3456393,27.7707828 27.3456393,28.0967213 C27.3456393,28.4226599 27.081414,28.6868852 26.7554754,28.6868852 L26.7554754,28.6868852 L19.2762295,28.6868852 C18.950291,28.6868852 18.6860656,28.4226599 18.6860656,28.0967213 C18.6860656,27.7707828 18.950291,27.5065574 19.2762295,27.5065574 L19.2762295,27.5065574 Z M9.52003279,14.5868852 C9.84597133,14.5868852 10.1101967,14.8511106 10.1101967,15.1770492 C10.1101967,15.5029877 9.84597133,15.7672131 9.52003279,15.7672131 L9.52003279,15.7672131 L7.0162623,15.7672131 L7.0162623,20.7668852 L12.0239016,20.7668852 L12.0239016,19.1779672 C12.0239016,18.8520287 12.288127,18.5878033 12.6140656,18.5878033 C12.9400041,18.5878033 13.2042295,18.8520287 13.2042295,19.1779672 L13.2042295,19.1779672 L13.2042295,21.087541 C13.203579,21.5621703 12.8188918,21.9467255 12.3442623,21.9472131 L12.3442623,21.9472131 L6.69590164,21.9472131 C6.22127217,21.9467255 5.83658495,21.5621703 5.83593443,21.087541 L5.83593443,21.087541 L5.83593443,15.4465574 C5.83653087,14.9719057 6.22124974,14.5873188 6.69590164,14.5868852 L6.69590164,14.5868852 Z M42.304918,19.8878361 C42.6308566,19.8878361 42.895082,20.1520615 42.895082,20.478 C42.895082,20.8039385 42.6308566,21.0681639 42.304918,21.0681639 L42.304918,21.0681639 L19.2762295,21.0681639 C18.950291,21.0681639 18.6860656,20.8039385 18.6860656,20.478 C18.6860656,20.1520615 18.950291,19.8878361 19.2762295,19.8878361 L19.2762295,19.8878361 Z M13.260462,14.1216315 C13.4163329,14.1073541 13.5714913,14.1555819 13.6918033,14.2557049 C13.8121902,14.3558164 13.8878606,14.4996641 13.9021575,14.6555837 C13.9164544,14.8115032 13.868206,14.9667136 13.7680328,15.0870492 L13.7680328,15.0870492 L10.7597705,18.7021967 L10.7360656,18.724918 C10.3947921,19.0603211 9.85544648,19.0841694 9.48590164,18.7801967 L9.48590164,18.7801967 L8.4,17.9016393 C8.23315094,17.770005 8.14996297,17.5588273 8.18220924,17.3487645 C8.21445552,17.1387016 8.35715534,16.9621995 8.55580535,16.886672 C8.75445536,16.8111446 8.97837244,16.8482576 9.14203279,16.9838361 L9.14203279,16.9838361 L10.045377,17.7147541 L12.8606557,14.3318361 C12.9607762,14.2115219 13.1045911,14.1359089 13.260462,14.1216315 Z M42.304918,14.9982295 C42.6308566,14.9982295 42.895082,15.2624549 42.895082,15.5883934 C42.895082,15.914332 42.6308566,16.1785574 42.304918,16.1785574 L42.304918,16.1785574 L19.2762295,16.1785574 C18.950291,16.1785574 18.6860656,15.914332 18.6860656,15.5883934 C18.6860656,15.2624549 18.950291,14.9982295 19.2762295,14.9982295 L19.2762295,14.9982295 Z M45.2817049,1.18032787 L2.71829508,1.18032787 C1.86938979,1.18114084 1.18135803,1.86899658 1.18032787,2.71790164 L1.18032787,2.71790164 L1.18032787,8.69321311 L46.8196721,8.69321311 L46.8196721,2.71790164 C46.818642,1.86899658 46.1306102,1.18114084 45.2817049,1.18032787 L45.2817049,1.18032787 Z M4.93770492,2.59977049 C6.18713599,2.59977049 7.2,3.6126345 7.2,4.86206557 C7.2,6.11149665 6.18713599,7.12436066 4.93770492,7.12436066 C3.6888132,7.1230595 2.67671099,6.11095729 2.67540984,4.86206557 C2.67540984,3.6126345 3.68827384,2.59977049 4.93770492,2.59977049 Z M10.9016066,2.59977049 C12.1510376,2.59977049 13.1639016,3.6126345 13.1639016,4.86206557 C13.1639016,6.11149665 12.1510376,7.12436066 10.9016066,7.12436066 C9.65271484,7.1230595 8.64061263,6.11095729 8.63931148,4.86206557 C8.63931148,3.6126345 9.65217548,2.59977049 10.9016066,2.59977049 Z M16.8656066,2.59977049 C18.1150376,2.59977049 19.1279016,3.6126345 19.1279016,4.86206557 C19.1279016,6.11149665 18.1150376,7.12436066 16.8656066,7.12436066 C15.6167148,7.1230595 14.6046126,6.11095729 14.6033115,4.86206557 C14.6033115,3.6126345 15.6161755,2.59977049 16.8656066,2.59977049 Z M4.93770492,3.78088525 C4.34037569,3.78142753 3.85627999,4.26552323 3.8557377,4.86285246 C3.8557377,5.46040645 4.34015093,5.94481967 4.93770492,5.94481967 C5.53525891,5.94481967 6.01967213,5.46040645 6.01967213,4.86285246 C6.01967213,4.26529847 5.53525891,3.78088525 4.93770492,3.78088525 Z M10.9016066,3.78088525 C10.3042773,3.78142753 9.82018163,4.26552323 9.81963934,4.86285246 C9.81963934,5.46040645 10.3040526,5.94481967 10.9016066,5.94481967 C11.4991605,5.94481967 11.9835738,5.46040645 11.9835738,4.86285246 C11.9835738,4.26529847 11.4991605,3.78088525 10.9016066,3.78088525 Z M16.8656066,3.78088525 C16.2682773,3.78142753 15.7841816,4.26552323 15.7836393,4.86285246 C15.7836393,5.46040645 16.2680526,5.94481967 16.8656066,5.94481967 C17.4631605,5.94481967 17.9475738,5.46040645 17.9475738,4.86285246 C17.9475738,4.26529847 17.4631605,3.78088525 16.8656066,3.78088525 Z" id="Combined-Shape"></path>
                    </g>
                </g>
            </g>
        </g>
    </g>
</svg>