<?xml version="1.0" encoding="UTF-8"?>
<svg width="48px" height="45px" viewBox="0 0 48 45" version="1.1" xmlns="http://www.w3.org/2000/svg" xmlns:xlink="http://www.w3.org/1999/xlink">
    <title>design</title>
    <g id="Home" stroke="none" stroke-width="1" fill="none" fill-rule="evenodd">
        <g id="Home-2550" transform="translate(-1096.000000, -1168.000000)" fill="#6D3BC0" fill-rule="nonzero">
            <g id="Services-Copy" transform="translate(544.000000, 842.000000)">
                <g id="Group-2" transform="translate(500.000000, 274.000000)">
                    <g id="design" transform="translate(52.000000, 52.000000)">
                        <path d="M44.3373494,30.4096386 C42.3421687,30.4096386 40.7228916,28.7903614 40.7228916,26.7951807 C40.7228916,25.2819277 41.6771084,23.9228916 43.1036145,23.4024096 C43.4024096,23.2963855 43.5951807,22.9975904 43.5759036,22.6795181 C43.0361446,14.1879518 36.8385542,6.88192771 28.5012048,4.91566265 C28.4433735,4.9060241 28.3951807,4.89638554 28.3373494,4.89638554 C28.173494,4.89638554 28.0192771,4.95421687 27.8843373,5.05060241 C27.7108434,5.18554217 27.6144578,5.39759036 27.6144578,5.61927711 L27.6144578,7.28674699 L20.3855422,7.28674699 L20.3855422,5.60963855 C20.3855422,5.38795181 20.2891566,5.18554217 20.1156627,5.04096386 C19.9903614,4.94457831 19.826506,4.88674699 19.6626506,4.88674699 C19.6048193,4.88674699 19.546988,4.89638554 19.4987952,4.9060241 C11.1710843,6.87228916 4.97349398,14.1783133 4.42409639,22.6698795 C4.40481928,22.9879518 4.59759036,23.286747 4.89638554,23.3927711 C6.32289157,23.913253 7.27710843,25.2819277 7.27710843,26.7855422 C7.27710843,28.7807229 5.65783133,30.4 3.6626506,30.4 C1.66746988,30.4 0.0481927711,28.7903614 0.0481927711,26.7951807 C0.0481927711,25.253012 1.0313253,23.8843373 2.48674699,23.373494 C2.76626506,23.2771084 2.95903614,23.026506 2.9686747,22.7277108 C3.36385542,15.6433735 7.3060241,9.29156627 13.513253,5.7253012 C13.7927711,5.56144578 13.9373494,5.22409639 13.8506024,4.91566265 C13.7638554,4.59759036 13.4746988,4.37590361 13.1566265,4.37590361 L7.74939759,4.37590361 C7.44096386,4.37590361 7.17108434,4.5686747 7.06506024,4.85783133 C6.55421687,6.30361446 5.18554217,7.26746988 3.65301205,7.26746988 C1.66746988,7.27710843 0.0481927711,5.65783133 0.0481927711,3.6626506 C0.0481927711,1.66746988 1.66746988,0.0481927711 3.6626506,0.0481927711 C5.18554217,0.0481927711 6.55421687,1.01204819 7.0746988,2.45783133 C7.18072289,2.74698795 7.45060241,2.93975904 7.75903614,2.93975904 L19.6626506,2.93975904 C20.0578313,2.93975904 20.3855422,2.61204819 20.3855422,2.21686747 L20.3855422,0.0481927711 L27.6144578,0.0481927711 L27.6144578,2.21686747 C27.6144578,2.61204819 27.9421687,2.93975904 28.3373494,2.93975904 L40.2506024,2.93975904 C40.5590361,2.93975904 40.8289157,2.74698795 40.9349398,2.45783133 C41.4457831,1.01204819 42.8144578,0.0481927711 44.346988,0.0481927711 C46.3421687,0.0481927711 47.9614458,1.66746988 47.9614458,3.6626506 C47.9614458,5.65783133 46.3325301,7.27710843 44.3373494,7.27710843 C42.8144578,7.27710843 41.4457831,6.31325301 40.9253012,4.86746988 C40.8192771,4.57831325 40.5493976,4.38554217 40.2409639,4.38554217 L34.8337349,4.38554217 C34.5060241,4.38554217 34.2168675,4.60722892 34.139759,4.9253012 C34.053012,5.24337349 34.1975904,5.57108434 34.4771084,5.73493976 C40.6843373,9.30120482 44.626506,15.653012 45.0216867,22.7373494 C45.0409639,23.0361446 45.2337349,23.286747 45.5036145,23.3831325 C46.9590361,23.8843373 47.9421687,25.2626506 47.9421687,26.8048193 C47.9518072,28.7903614 46.3325301,30.4096386 44.3373494,30.4096386 Z M44.3373494,24.626506 C43.1421687,24.626506 42.1686747,25.6 42.1686747,26.7951807 C42.1686747,27.9903614 43.1421687,28.9638554 44.3373494,28.9638554 C45.5325301,28.9638554 46.5060241,27.9903614 46.5060241,26.7951807 C46.5060241,25.6 45.5325301,24.626506 44.3373494,24.626506 Z M3.6626506,24.626506 C2.46746988,24.626506 1.4939759,25.6 1.4939759,26.7951807 C1.4939759,27.9903614 2.46746988,28.9638554 3.6626506,28.9638554 C4.85783133,28.9638554 5.8313253,27.9903614 5.8313253,26.7951807 C5.8313253,25.6 4.85783133,24.626506 3.6626506,24.626506 Z M44.3373494,1.4939759 C43.1421687,1.4939759 42.1686747,2.46746988 42.1686747,3.6626506 C42.1686747,4.85783133 43.1421687,5.8313253 44.3373494,5.8313253 C45.5325301,5.8313253 46.5060241,4.85783133 46.5060241,3.6626506 C46.5060241,2.46746988 45.5325301,1.4939759 44.3373494,1.4939759 Z M22.5542169,1.4939759 C22.1590361,1.4939759 21.8313253,1.82168675 21.8313253,2.21686747 L21.8313253,5.10843373 C21.8313253,5.50361446 22.1590361,5.8313253 22.5542169,5.8313253 L25.4457831,5.8313253 C25.8409639,5.8313253 26.1686747,5.50361446 26.1686747,5.10843373 L26.1686747,2.21686747 C26.1686747,1.82168675 25.8409639,1.4939759 25.4457831,1.4939759 L22.5542169,1.4939759 Z M3.6626506,1.4939759 C2.46746988,1.4939759 1.4939759,2.46746988 1.4939759,3.6626506 C1.4939759,4.85783133 2.46746988,5.8313253 3.6626506,5.8313253 C4.85783133,5.8313253 5.8313253,4.85783133 5.8313253,3.6626506 C5.8313253,2.46746988 4.85783133,1.4939759 3.6626506,1.4939759 Z" id="Shape"></path>
                        <path d="M14.6024096,44.8674699 L14.6024096,37.6385542 L18.7662651,37.6385542 C19.0168675,37.6385542 19.2481928,37.513253 19.3831325,37.2915663 C19.5180723,37.0795181 19.5277108,36.8096386 19.4120482,36.5879518 L14.4963855,26.7566265 L24,10.9301205 L33.4939759,26.7566265 L28.5783133,36.5879518 C28.4626506,36.8096386 28.4819277,37.0795181 28.6072289,37.2915663 C28.7421687,37.5036145 28.973494,37.6385542 29.2240964,37.6385542 L33.3879518,37.6385542 L33.3879518,44.8674699 L14.6024096,44.8674699 Z M16.7710843,39.0843373 C16.3759036,39.0843373 16.0481928,39.4120482 16.0481928,39.8072289 L16.0481928,42.6987952 C16.0481928,43.0939759 16.3759036,43.4216867 16.7710843,43.4216867 L31.2289157,43.4216867 C31.6240964,43.4216867 31.9518072,43.0939759 31.9518072,42.6987952 L31.9518072,39.8072289 C31.9518072,39.4120482 31.6240964,39.0843373 31.2289157,39.0843373 L16.7710843,39.0843373 Z M22.5542169,16.8385542 C22.3036145,16.8385542 22.0626506,16.973494 21.9373494,17.1855422 L16.3566265,26.486747 C16.2313253,26.6987952 16.2216867,26.9590361 16.3277108,27.1807229 L21.3590361,37.2337349 C21.4843373,37.4843373 21.7253012,37.6289157 22.0048193,37.6289157 L26.0048193,37.6289157 C26.2843373,37.6289157 26.5253012,37.4746988 26.6506024,37.2337349 L31.6722892,27.1807229 C31.7879518,26.9590361 31.7686747,26.6987952 31.6433735,26.486747 L26.0626506,17.1855422 C25.9373494,16.973494 25.6963855,16.8385542 25.4457831,16.8385542 C25.3783133,16.8385542 25.3108434,16.8481928 25.253012,16.8674699 C24.9445783,16.9542169 24.7228916,17.2433735 24.7228916,17.5614458 L24.7228916,27.5180723 L23.2771084,27.5180723 L23.2771084,17.5614458 C23.2771084,17.2337349 23.0554217,16.9542169 22.746988,16.8674699 C22.6891566,16.8385542 22.6216867,16.8385542 22.5542169,16.8385542 Z" id="Shape"></path>
                    </g>
                </g>
            </g>
        </g>
    </g>
</svg>