<svg xmlns="http://www.w3.org/2000/svg"><symbol fill="none" id="ico-advantage-brain" viewBox="0 0 48 48"><path d="M40.17 39.05a6.83 6.83 0 01-2.502.74.703.703 0 00-.625.806c.04.266.06.485.06.689 0 2.927-2.782 5.309-6.2 5.309-2.49 0-4.73-1.27-5.708-3.235A1.317 1.317 0 0024 42.64c-.517 0-.974.276-1.195.719-.977 1.965-3.218 3.235-5.708 3.235-3.418 0-6.2-2.382-6.2-5.31 0-.203.02-.422.06-.688.001-.012.174-1.178.974-1.95a.703.703 0 00-.977-1.012c-.69.666-1.048 1.494-1.226 2.07-1.637-.311-3.093-1.195-3.974-2.436a.703.703 0 10-1.147.814c1.112 1.566 2.868 2.64 4.888 3.01l-.003.193c0 3.703 3.411 6.715 7.605 6.715 2.968 0 5.66-1.522 6.903-3.89 1.243 2.368 3.936 3.89 6.903 3.89 4.194 0 7.606-3.013 7.606-6.715a5.04 5.04 0 00-.004-.193 8.148 8.148 0 002.318-.796.703.703 0 00-.652-1.246zM4.858 34.521c0-1.272.534-2.539 1.466-3.476a.703.703 0 00-.34-1.18c-2.695-.627-4.578-2.73-4.578-5.114 0-1.483.691-2.892 1.945-3.968a.703.703 0 00.032-1.04c-.718-.695-1.114-1.585-1.114-2.507 0-2.065 1.903-3.734 4.333-3.799.011 0 1.083.018 1.837.685a.7.7 0 00.993-.061.703.703 0 00-.061-.993c-.812-.718-1.819-.94-2.374-1.007a3.32 3.32 0 01-.414-1.588c0-1.162.615-2.246 1.686-2.975a.703.703 0 00-.79-1.163c-1.463.995-2.302 2.503-2.302 4.138 0 .57.107 1.135.313 1.673-2.666.504-4.627 2.583-4.627 5.09a4.8 4.8 0 001.049 2.972C.674 21.485 0 23.075 0 24.75c0 2.71 1.848 5.12 4.608 6.163a6.336 6.336 0 00-1.157 3.607.703.703 0 001.407 0zM48 24.751c0-1.677-.674-3.267-1.912-4.543a4.799 4.799 0 001.049-2.972c0-2.507-1.961-4.586-4.628-5.09a4.661 4.661 0 00.314-1.673c0-2.874-2.638-5.212-5.88-5.212-.065 0-.135.001-.207.004-.18-1.326-.872-2.564-1.99-3.535C33.49.636 31.852.022 30.137 0 27.541-.03 25.15 1.264 24 3.308 22.85 1.263 20.456-.028 17.864.001a7.148 7.148 0 00-4.611 1.729c-1.117.971-1.81 2.209-1.99 3.535a5.55 5.55 0 00-.206-.004.703.703 0 000 1.406c.215 0 .514.022.781.057a.703.703 0 00.793-.753l-.004-.048-.003-.03c.043-2.397 2.45-4.452 5.258-4.486 2.12-.024 4.058 1.024 4.939 2.674.226.425.678.688 1.18.688.5 0 .952-.263 1.178-.687.88-1.651 2.816-2.7 4.94-2.675 2.804.034 5.21 2.086 5.257 4.474 0 .014-.02 1.414-.776 2.318a.703.703 0 001.079.902c.654-.782.92-1.756 1.03-2.427.084-.005.163-.007.234-.007 2.467 0 4.474 1.707 4.474 3.806a3.37 3.37 0 01-.585 1.87.703.703 0 00.566 1.094c2.43.065 4.333 1.734 4.333 3.8 0 .915-.39 1.8-1.1 2.493-.08.074-.773.77-1.754.848a.703.703 0 00.112 1.402c.89-.071 1.623-.47 2.086-.797.983 1.014 1.518 2.263 1.518 3.569 0 2.384-1.882 4.487-4.578 5.113a.703.703 0 00-.34 1.18c.933.938 1.467 2.205 1.467 3.476 0 .89-.263 1.77-.76 2.545a.703.703 0 001.184.759 6.117 6.117 0 00.982-3.304 6.337 6.337 0 00-1.156-3.607C46.152 29.87 48 27.46 48 24.75z" fill="#fff"/><path fill-rule="evenodd" clip-rule="evenodd" d="M14.468 14.88a.703.703 0 01.6-.6c.04-.005 1.943-.262 4.916-.411v-1.953a2.113 2.113 0 01-1.406-1.989c0-1.163.946-2.11 2.109-2.11s2.11.947 2.11 2.11c0 .917-.588 1.699-1.407 1.989v1.894a81.433 81.433 0 015.25-.007v-1.887a2.113 2.113 0 01-1.406-1.989c0-1.163.946-2.11 2.11-2.11 1.162 0 2.109.947 2.109 2.11 0 .917-.588 1.699-1.407 1.989v1.944c1.57.08 3.21.212 4.876.42a.7.7 0 01.611.61 67.03 67.03 0 01.42 4.891h1.958a2.113 2.113 0 011.99-1.406c1.163 0 2.109.946 2.109 2.11a2.112 2.112 0 01-2.11 2.109 2.113 2.113 0 01-1.989-1.407H34.01c.06 1.91.044 3.689-.008 5.25h1.91a2.113 2.113 0 011.988-1.406c1.164 0 2.11.946 2.11 2.11a2.111 2.111 0 01-2.11 2.109 2.113 2.113 0 01-1.989-1.406h-1.968c-.15 2.964-.405 4.86-.411 4.9a.703.703 0 01-.6.6c-.04.006-1.93.26-4.886.41v1.955a2.113 2.113 0 011.407 1.988c0 1.164-.947 2.11-2.11 2.11a2.112 2.112 0 01-2.11-2.11c0-.916.589-1.698 1.407-1.988v-1.896a83.162 83.162 0 01-5.25.01v1.886a2.113 2.113 0 011.406 1.988c0 1.164-.946 2.11-2.109 2.11a2.112 2.112 0 01-2.11-2.11c0-.916.588-1.698 1.407-1.988v-1.943a67.047 67.047 0 01-4.906-.42.703.703 0 01-.611-.612 67.034 67.034 0 01-.42-4.89H12.12a2.113 2.113 0 01-1.99 1.406 2.112 2.112 0 01-2.108-2.11c0-1.163.946-2.109 2.109-2.109.917 0 1.699.588 1.989 1.406h1.871c-.06-1.91-.044-3.688.008-5.25h-1.88a2.113 2.113 0 01-1.988 1.407 2.112 2.112 0 01-2.11-2.11c0-1.163.947-2.11 2.11-2.11.917 0 1.699.589 1.989 1.407h1.938c.15-2.965.405-4.86.411-4.9zm-5.041 5.604a.704.704 0 101.408-.001.704.704 0 00-1.408.001zm.703 7.36a.704.704 0 11.001-1.408.704.704 0 01-.001 1.408zm28.473-.704a.704.704 0 10-1.407.002.704.704 0 001.407-.002zm-.703-7.359a.704.704 0 11-.001 1.408.704.704 0 01.001-1.408zM19.984 37.698a.704.704 0 101.407-.002.704.704 0 00-1.407.002zm7.36.703a.704.704 0 110-1.408.704.704 0 010 1.408zm.702-28.474a.704.704 0 10-1.407.002.704.704 0 001.407-.002zm-7.36-.703a.704.704 0 110 1.408.704.704 0 010-1.408zm11.518 22.792c.219-1.933.868-8.838-.001-16.406-7.569-.87-14.473-.22-16.407-.002-.219 1.934-.868 8.839.001 16.407 7.569.87 14.473.22 16.407.001z" fill="#fff"/><path d="M19.43 29.041c1.561.097 3.057.133 4.425.133 1.856 0 3.477-.067 4.706-.141a.703.703 0 00.66-.66c.129-2.135.235-5.453.008-9.13a.703.703 0 00-.659-.66 71.462 71.462 0 00-3.69-.13.704.704 0 00-.014 1.407c1.011.01 2.016.04 2.995.092.157 3.02.093 5.755-.009 7.712a75.274 75.274 0 01-7.712.009 75.306 75.306 0 01.009-7.712c.434-.023.872-.042 1.307-.057a.703.703 0 00-.05-1.406c-.656.023-1.317.055-1.967.094a.703.703 0 00-.659.66 76.449 76.449 0 00-.009 9.13.703.703 0 00.659.66z" fill="#fff"/><circle cx="22.359" cy="22.266" r=".703" fill="#fff"/><circle cx="22.358" cy="25.362" transform="rotate(-.516 22.358 25.362)" fill="#fff" r=".703"/><circle cx="25.63" cy="22.255" transform="rotate(-89.484 25.63 22.255)" fill="#fff" r=".703"/><circle cx="25.63" cy="25.347" transform="rotate(-89.484 25.63 25.347)" fill="#fff" r=".703"/></symbol><symbol fill="none" id="ico-advantage-level-above" viewBox="0 0 50 47"><path fill-rule="evenodd" clip-rule="evenodd" d="M44.907 16.287l3.541.342a.61.61 0 01.552.607v5.368a.61.61 0 01-.55.608l-3.496.34a15.379 15.379 0 01-1.805 4.275l2.26 2.729a.61.61 0 01-.039.82l-3.787 3.787a.61.61 0 01-.82.038l-2.724-2.255a15.033 15.033 0 01-4.279 1.802l-.341 3.541a.61.61 0 01-.607.552h-2.287a16.154 16.154 0 01-13.367 7.089C8.248 45.93 1 38.68 1 29.772 1 21.17 7.755 14.119 16.238 13.64c.258-.558.548-1.102.867-1.627l-2.259-2.728a.61.61 0 01.038-.82l3.787-3.788a.61.61 0 01.82-.038l2.725 2.256a15.034 15.034 0 014.278-1.801l.342-3.542A.61.61 0 0127.443 1h5.369a.61.61 0 01.607.552l.341 3.542c1.508.382 2.95.99 4.275 1.805l2.728-2.26a.61.61 0 01.823.041l3.739 3.787a.61.61 0 01.036.818l-2.256 2.724a15.036 15.036 0 011.802 4.278zM9.489 42.16a2.916 2.916 0 00-.41.17h-.001a14.91 14.91 0 0016.16 0 2.914 2.914 0 00-.411-.17l-4.63-1.501a7.023 7.023 0 01-6.077 0L9.49 42.16zm.559-12.368a.537.537 0 01.346-.386.67.67 0 00.324-.034 3.814 3.814 0 002.505-3.112c.23-.008.509-.023.827-.053 3.976 3.356 9.55 3.19 9.814 3.181a.542.542 0 01.405.404.968.968 0 01-.771 1.184.719.719 0 00-.566.532l-.34 1.17a.674.674 0 00-.017.067 5.512 5.512 0 01-10.834 0 .704.704 0 00-.016-.067l-.33-1.138a.712.712 0 00-.577-.565.969.969 0 01-.77-1.183zm10.93-2.074c-2.011-.704-3.16-1.842-3.524-2.25-.473.163-.954.303-1.442.417 1.648 1.053 3.488 1.575 4.967 1.833zm2.149-.94c-2.218-.315-3.602-1.307-4.247-1.892a13.05 13.05 0 002.61-1.638.712.712 0 00-.897-1.107c-3.595 2.91-7.938 2.697-8.006 2.693a.712.712 0 00-.757.71v.24c0 .6-.228 1.18-.637 1.62v-2.14a5.967 5.967 0 0111.934 0v1.515zm-3.71 11.504a6.913 6.913 0 01-4.518 0v1.166a5.593 5.593 0 004.518 0v-1.166zm7.07 3.148a4.354 4.354 0 00-1.22-.625l-4.426-1.434v-1.769a6.932 6.932 0 003.127-4.56l.23-.79a2.394 2.394 0 001.454-2.799 1.954 1.954 0 00-1.101-1.33v-2.859a7.391 7.391 0 00-14.782 0v2.858c-.555.248-.963.74-1.104 1.331a2.394 2.394 0 001.454 2.799l.23.79a6.932 6.932 0 003.127 4.56v1.769L9.05 40.806a4.344 4.344 0 00-1.219.625 14.916 14.916 0 01-5.61-11.66c0-8.237 6.701-14.937 14.937-14.937 8.237 0 14.938 6.7 14.938 14.938 0 4.537-2.064 8.828-5.61 11.658zm-4.478-27.073c6.384 2.013 11.07 7.893 11.298 14.879A9.842 9.842 0 1022.01 14.357zm9.269 23.264a16.03 16.03 0 001.257-2.885l-.278 2.885h-.98zM44.4 22.38l3.38-.33v-4.26l-3.427-.33a.61.61 0 01-.538-.479 13.757 13.757 0 00-1.972-4.68.61.61 0 01.037-.727l2.19-2.644-2.96-2.995-2.637 2.185a.61.61 0 01-.72.043 14.17 14.17 0 00-4.687-1.977.61.61 0 01-.478-.538l-.33-3.427h-4.26l-.33 3.427a.61.61 0 01-.478.538 13.756 13.756 0 00-4.68 1.972.61.61 0 01-.728-.038l-2.64-2.186-3.001 3.001 2.186 2.64a.61.61 0 01.043.72c-.28.434-.536.877-.766 1.325 1.066.029 2.127.163 3.166.401a11.063 11.063 0 1112.53 16.5 16.135 16.135 0 01-.484 3.256c.073-.06.16-.1.251-.12a13.753 13.753 0 004.68-1.973.61.61 0 01.728.038l2.64 2.186 3-3.001-2.186-2.64a.61.61 0 01-.043-.72 14.173 14.173 0 001.978-4.687.61.61 0 01.537-.478z" fill="#fff"/><path d="M48.448 16.629l.03-.299-.03.299zm-3.541-.342l-.292.072.051.206.212.02.029-.298zm4.093.949h.3-.3zm0 5.368h-.3.3zm-.55.608l.028.298-.029-.298zm-3.496.34l-.029-.298-.21.02-.052.205.291.074zm-1.805 4.275l-.255-.157-.113.183.137.166.231-.192zm2.26 2.729l.23-.191-.23.191zm-.039.82l.212.213-.212-.212zm-3.787 3.787l-.212-.212.212.212zm-.82.038l.191-.23-.191.23zm-2.724-2.255l.191-.231-.166-.138-.183.114.158.255zm-4.279 1.802l-.072-.292-.206.051-.02.212.298.029zm-.341 3.541l.299.03-.3-.03zm-.607.552v-.3.3zm-2.287 0v-.3h-.16l-.088.132.248.168zM17.158 45.93v.3-.3zm-.92-32.29l.017.3.18-.01.075-.164-.272-.126zm.867-1.627l.257.156.11-.183-.136-.165-.23.192zm-2.259-2.728l-.231.191.231-.191zm.038-.82l.213.211-.213-.212zm3.787-3.788l-.212-.212.212.212zm.82-.038l-.19.23.19-.23zm2.725 2.256l-.192.23.166.138.183-.113-.157-.255zm4.278-1.801l.073.29.206-.05.02-.212-.299-.028zm.342-3.542l-.299-.03.299.03zM27.443 1V.7 1zm5.369 0v.3V1zm.607.552l.299-.03-.3.03zm.341 3.542l-.298.029.02.21.205.052.073-.291zm4.275 1.805l-.157.255.182.113.166-.137-.191-.231zm2.728-2.26l.191.23-.191-.23zm.823.041l-.213.21.213-.21zm3.739 3.787l-.214.21.214-.21zm.036.818l.23.191-.23-.191zm-2.256 2.724l-.231-.192-.138.166.114.183.255-.157zM9.489 42.16l-.092-.285h-.001l.093.285zm-.411.17l.162-.252-.342.492.18-.24zm0 0l-.18.24.15.113.167-.086-.137-.267zm16.16 0l.163.252.44-.283-.467-.236-.136.267zm-.411-.17l.093-.285-.093.285zm-4.63-1.501l.092-.286-.114-.037-.108.052.13.27zm-6.077 0l.13-.27-.108-.053-.114.037.092.286zm-3.726-11.253l.042-.297-.072-.01-.069.023.1.284zm-.346.386h-.3l.592.068-.292-.068zm.67-.42l-.1-.283h-.003l.103.283zm2.505-3.112l-.009-.3-.256.008-.032.254.297.038zm.827-.053l.193-.23-.096-.08-.126.011.029.299zm9.814 3.181l.068-.292-.04-.01-.04.002.012.3zm.405.404l-.292.069v.003l.292-.072zm-.13.759l-.25-.164.25.164zm-.641.425l-.053-.296h-.002l.055.296zm-.566.532l.288.084.003-.011-.291-.073zm-.34 1.17l.287.084-.288-.084zm-.017.067l-.294-.056.294.056zm-10.834 0l.295-.056-.295.056zm-.016-.067l-.288.083v.001l.288-.084zm-.33-1.138l-.295.057.002.014.004.012.288-.083zm-.577-.565l-.052.296.052-.296zm-.641-.425l-.251.164.25-.164zm-.13-.758h.3l-.59-.071.29.07zm7.407-4.324l.224-.2-.133-.149-.189.066.098.283zm3.525 2.25l-.052.295.15-.579-.098.284zm-4.967-1.833l-.068-.292-.692.162.599.383.161-.253zm2.868-1l-.128-.27-.406.191.332.302.202-.223zm4.247 1.893l-.042.298.342.048v-.345h-.3zm-1.638-3.53l.188.234-.188-.234zm.255-.664l-.296.047.296-.047zm-.447-.554l.107-.28-.107.28zm-.704.111l.19.234-.19-.234zm-8.006 2.693l.015-.3H12.6l-.013.3zm0 0l-.02.3h.006l.013-.3zm-.757.71h.3-.3zm0 .24h.3-.3zm-.637 1.62h-.3v.764l.52-.56-.22-.204zm0-2.14l-.3-.001v.001h.3zm11.934 0h.3v-.001l-.3.001zm-5.969 13.397v-.3h-.3v.3h.3zm2.259-.38h.3v-.42l-.398.137.098.284zm-2.259.38v.3h.3v-.3h-.3zm-2.259-.379l.098-.283-.398-.138v.421h.3zm0 1.166h-.3v.195l.18.08.12-.275zm4.518 0l.121.274.179-.079v-.195h-.3zm5.85 1.357l.093-.285-.093.285zm1.22.625h.3v-.152l-.124-.09-.177.242zm-5.646-2.06h-.3v.219l.207.067.093-.285zm0-1.768l-.16-.254-.14.088v.166h.3zm3.127-4.56l-.288-.083-.004.013-.003.014.295.057zm.23-.79l-.11-.28-.137.054-.041.142.288.084zm1.454-2.799l-.292.07v.002l.292-.072zm-1.101-1.33h-.3v.195l.177.08.123-.274zm0-2.859h.3v-.001l-.3.001zm-14.782 0l-.3-.001v.001h.3zm0 2.858l.122.274.178-.079v-.195h-.3zm-1.104 1.331l.291.072v-.002l-.291-.07zm1.454 2.799l.288-.084-.041-.142-.138-.054-.109.28zm.23.79l.295-.056-.003-.014-.004-.013-.288.084zm3.127 4.56h.3v-.166l-.14-.088-.16.254zm0 1.769l.093.285.207-.067v-.218h-.3zM9.05 40.806l-.092-.286.092.286zm-1.219.625l-.187.234.18.143.185-.135-.178-.242zm-5.61-11.66h.3-.3zm29.875 0h-.3.3zm-5.61 11.66h-.3v.623l.487-.39-.187-.234zm6.821-12.195l-.3.01.014.405.383-.131-.097-.284zM22.01 14.357l-.248-.17-.229.334.387.122.09-.286zm17.959 5.377l.3-.006-.3.006zm-7.018-9.241l.086-.288-.086.288zm-.415 24.243l.299.03-.584-.122.285.093zm-1.257 2.885l-.262-.147-.25.447h.512v-.3zm.98 0v.3h.272l.026-.272-.299-.028zM47.78 22.05l.029.299.27-.027v-.272h-.3zm-3.38.33l.03.298-.03-.298zm3.38-4.591h.3v-.273l-.271-.026-.03.299zm-3.427-.33l.029-.3-.03.3zm-.538-.479l-.293.064.293-.064zm-1.972-4.68l.25-.165-.25.166zm.037-.727l-.23-.191.23.19zm2.19-2.643l.23.192.174-.21-.19-.192-.214.21zm-2.96-2.995l.214-.21-.193-.196-.212.175.192.231zM38.473 8.12l-.19-.23.19.23zm-.72.043l-.164.251.002.001.162-.252zm-4.687-1.977l.065-.293h-.001l-.064.293zm-.478-.538l.299-.029-.299.029zm-.33-3.427l.299-.03-.027-.27h-.272v.3zm-4.26 0v-.3h-.273l-.026.27.299.03zm-.33 3.427l-.3-.029.3.029zm-.478.538l.063.293-.063-.293zm-4.68 1.972l-.166-.25.166.25zm-.728-.038l-.191.231.191-.23zm-2.64-2.186l.192-.231-.21-.174-.194.193.212.212zm-3.002 3l-.212-.212-.194.193.175.21.23-.191zm2.186 2.64l.231-.191-.23.19zm.043.72l-.252-.163.252.163zm-.766 1.325l-.267-.136-.217.424.476.012.008-.3zm3.166.401l-.066.293.207.047.113-.18-.253-.16zm20.422 5.831l.3-.002-.3.002zM33.299 30.52l-.086-.287-.204.06-.01.213.3.014zm-.484 3.256l-.291-.074-.223.872.702-.564-.188-.234zm.251-.12l-.063-.294.063.294zm4.68-1.973l.166.25-.166-.25zm.728.038l-.192.23.192-.23zm2.64 2.186l-.192.231.21.174.194-.193-.212-.212zm3-3.001l.213.212.193-.193-.174-.21-.231.19zm-2.186-2.64l.231-.191-.23.19zm-.043-.72l-.25-.164-.002.001.252.163zm1.978-4.687l.293.065v-.002l-.293-.063zm4.614-6.529l-3.542-.341-.057.597 3.542.341.057-.597zm.823.906a.91.91 0 00-.823-.906l-.057.597a.31.31 0 01.28.309h.6zm0 5.368v-5.368h-.6v5.368h.6zm-.822.906a.91.91 0 00.822-.906h-.6a.31.31 0 01-.28.31l.058.596zm-3.495.341l3.495-.34-.058-.598-3.495.341.058.597zm-1.578 4.134a15.71 15.71 0 001.84-4.359l-.581-.147a15.082 15.082 0 01-1.77 4.191l.51.314zm2.235 2.38l-2.26-2.729-.462.383 2.26 2.728.462-.382zm-.058 1.224a.91.91 0 00.058-1.224l-.462.382a.31.31 0 01-.02.417l.424.425zm-3.787 3.786l3.787-3.786-.424-.425-3.787 3.787.424.424zm-1.224.057a.91.91 0 001.224-.057l-.424-.424a.31.31 0 01-.417.02l-.383.462zm-2.724-2.255l2.724 2.255.383-.462-2.724-2.255-.383.462zm-4.014 1.862a15.334 15.334 0 004.364-1.838l-.316-.51a14.734 14.734 0 01-4.193 1.765l.145.583zm-.115 3.28l.34-3.543-.596-.057-.342 3.542.598.057zm-.907.822a.91.91 0 00.907-.823l-.598-.057a.31.31 0 01-.308.28v.6zm-2.286 0h2.287v-.6h-2.287v.6zM17.159 46.23a16.454 16.454 0 0013.614-7.22l-.497-.337a15.854 15.854 0 01-13.118 6.957v.6zM.7 29.772c0 9.075 7.383 16.458 16.458 16.458v-.6C8.414 45.63 1.3 38.516 1.3 29.772H.7zM16.221 13.34C7.581 13.828.7 21.01.7 29.772h.6c0-8.441 6.63-15.362 14.955-15.832l-.034-.6zm.628-1.483c-.326.535-.62 1.088-.883 1.657l.544.252c.254-.548.538-1.081.852-1.597l-.513-.312zm-2.234-2.381l2.26 2.728.461-.383-2.259-2.728-.462.383zm.057-1.224a.91.91 0 00-.057 1.224l.462-.383a.31.31 0 01.02-.417l-.425-.424zm3.787-3.787l-3.787 3.787.425.424 3.786-3.787-.424-.424zm1.224-.057a.91.91 0 00-1.224.057l.424.424a.31.31 0 01.418-.02l.382-.461zm2.724 2.255l-2.724-2.255-.383.462 2.724 2.256.383-.463zm4.015-1.86a15.334 15.334 0 00-4.364 1.836l.316.51a14.733 14.733 0 014.193-1.764l-.145-.583zm.115-3.28l-.341 3.542.597.057.341-3.542-.597-.057zM27.443.7a.91.91 0 00-.906.823l.597.057a.31.31 0 01.309-.28V.7zm5.369 0h-5.369v.6h5.369V.7zm.906.823A.91.91 0 0032.81.7v.6a.31.31 0 01.31.28l.596-.057zm.34 3.542l-.34-3.542-.598.057.342 3.543.597-.058zm4.134 1.578a15.675 15.675 0 00-4.358-1.84l-.147.582c1.478.374 2.891.97 4.19 1.77l.315-.512zm2.38-2.235l-2.729 2.26.383.462 2.728-2.26-.383-.462zm1.228.061a.91.91 0 00-1.229-.061l.383.462a.31.31 0 01.419.02l.427-.42zm3.738 3.787L41.8 4.47l-.427.422 3.738 3.787.427-.422zm.054 1.22a.91.91 0 00-.054-1.22l-.427.422a.31.31 0 01.019.415l.462.383zM43.336 12.2l2.256-2.724-.462-.383-2.256 2.724.462.383zm1.862 4.015a15.34 15.34 0 00-1.838-4.364l-.51.315a14.734 14.734 0 011.765 4.193l.583-.144zM9.214 42.598c.119-.06.242-.111.369-.153l-.187-.57a3.212 3.212 0 00-.453.188l.271.535zm-.298-.015l.325-.505-.325.505zm.342-.492l-.36.48.36-.48zm-.317-.027l.274.533-.274-.533zm16.135.014a14.61 14.61 0 01-15.835 0l-.325.505a15.21 15.21 0 0016.485 0l-.325-.505zm-.342.367c.127.042.25.093.369.153l.27-.535a3.215 3.215 0 00-.453-.188l-.186.57zm-4.63-1.5l4.63 1.5.185-.57-4.63-1.502-.185.571zm-6.114-.016a7.323 7.323 0 006.336 0l-.26-.54a6.724 6.724 0 01-5.816 0l-.26.54zm-4.408 1.517l4.63-1.502-.184-.57-4.631 1.5.185.572zm.713-13.324a.837.837 0 00-.54.602l.585.136a.237.237 0 01.153-.171l-.198-.567zm.32-.032a.37.37 0 01-.179.019l-.084.594a.97.97 0 00.47-.05l-.207-.563zm2.31-2.868a3.514 3.514 0 01-2.307 2.867l.2.565a4.113 4.113 0 002.703-3.357l-.595-.075zm1.096-.314c-.31.03-.583.045-.807.052l.019.6c.236-.008.52-.024.845-.054l-.056-.598zm9.831 3.18c-.118.005-1.552.048-3.445-.323-1.896-.371-4.229-1.154-6.164-2.787l-.387.458c2.041 1.723 4.484 2.536 6.435 2.918 1.954.383 3.438.34 3.584.334l-.023-.6zm.709.636a.842.842 0 00-.63-.628l-.135.584a.24.24 0 01.18.18l.585-.136zm-.17.99c.191-.293.252-.652.17-.993l-.584.143a.668.668 0 01-.089.523l.503.328zm-.84.557c.345-.061.649-.263.84-.556l-.503-.328a.669.669 0 01-.443.293l.106.591zm-.328.31c.04-.16.168-.28.33-.31l-.11-.59a1.02 1.02 0 00-.802.754l.582.146zm-.343 1.18l.34-1.17-.576-.167-.34 1.17.576.167zm-.01.04a.405.405 0 01.01-.039l-.576-.17a.976.976 0 00-.023.097l.59.111zm-5.712 4.738A5.812 5.812 0 0022.87 32.8l-.59-.11a5.212 5.212 0 01-5.122 4.249v.6zM11.446 32.8a5.812 5.812 0 005.712 4.739v-.6a5.212 5.212 0 01-5.122-4.25l-.59.111zm-.009-.038a.406.406 0 01.01.038l.589-.111a1.005 1.005 0 00-.023-.096l-.576.17zm-.33-1.139l.33 1.138.576-.167-.33-1.138-.577.168zm-.34-.352c.168.03.3.159.333.326l.589-.115a1.012 1.012 0 00-.819-.802l-.103.59zm-.841-.557c.19.294.495.495.84.557l.105-.591a.669.669 0 01-.443-.293l-.502.327zm-.17-.993c-.083.34-.022.7.17.993l.502-.327a.669.669 0 01-.089-.524l-.583-.142zm.592.071h-.6.6zm6.882-4.124c.387.433 1.576 1.607 3.65 2.333l.198-.567c-1.95-.682-3.058-1.783-3.4-2.166l-.448.4zm-1.15.509c.498-.117.99-.259 1.472-.425l-.196-.567c-.463.16-.935.296-1.412.408l.137.584zm4.95 1.245c-1.456-.254-3.253-.766-4.856-1.79l-.323.506c1.693 1.082 3.575 1.614 5.076 1.875l.103-.59zm-2.352-2.314c.679.616 2.116 1.641 4.407 1.968l.084-.595c-2.145-.305-3.476-1.262-4.087-1.818l-.404.445zm2.623-2.093a12.716 12.716 0 01-2.55 1.6l.257.542a13.32 13.32 0 002.67-1.675l-.377-.467zm.147-.384a.412.412 0 01-.148.384l.378.466c.28-.227.42-.587.363-.944l-.593.094zm-.259-.32a.412.412 0 01.26.32l.592-.094a1.012 1.012 0 00-.637-.787l-.215.56zm-.407.064a.412.412 0 01.407-.065l.215-.56a1.012 1.012 0 00-1 .158l.378.467zm-8.21 2.759c.085.004 4.524.223 8.21-2.76l-.377-.466c-3.505 2.837-7.75 2.63-7.803 2.627l-.03.599zm.001 0l.027-.6-.027.6zm-.313.11a.413.413 0 01.308-.11l.037-.6a1.012 1.012 0 00-.756.273l.41.438zm-.13.3c0-.113.047-.222.13-.3l-.411-.437c-.204.191-.32.459-.32.738h.6zm0 .24v-.24h-.6v.24h.6zm-.718 1.824a2.686 2.686 0 00.718-1.824h-.6c0 .525-.2 1.03-.557 1.416l.44.408zm-.52-2.344v2.14h.6v-2.14h-.6zm6.268-6.242a6.267 6.267 0 00-6.267 6.24l.6.003a5.667 5.667 0 015.667-5.643v-.6zm6.267 6.24a6.267 6.267 0 00-6.267-6.24v.6a5.667 5.667 0 015.667 5.643l.6-.002zm0 1.517v-1.515h-.6v1.515h.6zM17.158 38.96a7.19 7.19 0 002.357-.396l-.196-.567a6.61 6.61 0 01-2.16.363v.6zm.3-.3h-.6.6zm-2.657-.095a7.211 7.211 0 002.357.396v-.6a6.613 6.613 0 01-2.16-.363l-.197.567zm.398.882v-1.166h-.6v1.166h.6zm4.097-.275a5.293 5.293 0 01-4.275 0l-.243.55a5.904 5.904 0 004.76 0l-.242-.55zm-.179-.891v1.166h.6v-1.166h-.6zm6.057 2.809c.406.132.79.328 1.135.581l.354-.484a4.65 4.65 0 00-1.303-.668l-.186.57zm-4.426-1.435l4.426 1.435.185-.571-4.426-1.435-.185.571zm-.207-2.054v1.769h.6v-1.769h-.6zm3.132-4.616a6.632 6.632 0 01-2.991 4.362l.318.508a7.232 7.232 0 003.262-4.756l-.589-.114zm.237-.818l-.23.791.576.168.23-.792-.576-.167zm1.45-2.643a2.094 2.094 0 01-1.271 2.447l.218.559a2.694 2.694 0 001.637-3.149l-.583.143zm-.932-1.127c.469.21.813.625.932 1.125l.584-.14a2.254 2.254 0 00-1.27-1.533l-.246.547zm-.177-3.134v2.86h.6v-2.86h-.6zM17.16 18.2a7.09 7.09 0 017.09 7.064l.6-.002a7.69 7.69 0 00-7.69-7.662v.6zm-7.09 7.064a7.091 7.091 0 017.09-7.064v-.6a7.69 7.69 0 00-7.69 7.662l.6.002zm0 2.857v-2.858h-.6v2.858h.6zm-1.113 1.401c.119-.5.464-.917.934-1.127l-.244-.548a2.254 2.254 0 00-1.274 1.536l.584.14zm1.271 2.45a2.094 2.094 0 01-1.272-2.448l-.583-.143a2.694 2.694 0 001.637 3.149l.218-.559zm.41.986l-.231-.791-.576.167.23.792.576-.168zm2.997 4.389a6.632 6.632 0 01-2.991-4.362l-.59.114a7.231 7.231 0 003.263 4.756l.318-.508zm.141 2.023v-1.769h-.6v1.769h.6zm-4.633 1.72l4.426-1.435-.185-.57-4.426 1.434.185.571zm-1.134.582c.345-.253.728-.45 1.134-.582l-.186-.57a4.642 4.642 0 00-1.303.667l.355.485zm-6.089-11.9a15.22 15.22 0 005.724 11.893l.374-.469A14.617 14.617 0 012.52 29.772h-.6zm15.238-15.238c-8.402 0-15.238 6.835-15.238 15.238h.6c0-8.072 6.568-14.638 14.638-14.638v-.6zm15.238 15.238c0-8.403-6.836-15.238-15.238-15.238v.6c8.071 0 14.638 6.566 14.638 14.638h.6zm-5.723 11.893a15.217 15.217 0 005.723-11.893h-.6c0 4.446-2.023 8.65-5.497 11.424l.374.469zm-.487-.235h.6-.6zm7.42-12.204c-.232-7.117-5.004-13.104-11.507-15.155l-.18.572c6.266 1.976 10.864 7.747 11.088 14.603l.6-.02zm6.062-9.486a9.542 9.542 0 01-6.458 9.212l.194.568a10.142 10.142 0 006.864-9.792l-.6.012zm-6.804-8.96a9.542 9.542 0 016.804 8.96l.6-.012a10.142 10.142 0 00-7.232-9.523l-.172.575zm-10.608 3.747a9.542 9.542 0 0110.608-3.747l.172-.575a10.142 10.142 0 00-11.275 3.982l.495.34zm9.994 20.117a15.74 15.74 0 01-1.234 2.83l.524.293c.522-.935.95-1.92 1.28-2.938l-.57-.185zm.306 3.005l.278-2.884-.597-.057-.278 2.884.597.057zm-1.278.272h.98v-.6h-.98v.6zM47.75 21.752l-3.38.33.058.597 3.38-.33-.058-.597zm-.271-3.962v4.261h.6V17.79h-.6zm-3.156-.032l3.427.33.058-.597-3.427-.33-.058.597zm-.802-.713a.91.91 0 00.802.713l.058-.598a.31.31 0 01-.274-.242l-.586.127zm-1.93-4.578a13.458 13.458 0 011.93 4.578l.586-.127a14.057 14.057 0 00-2.015-4.782l-.5.331zm.057-1.085a.91.91 0 00-.056 1.086l.5-.333a.31.31 0 01.018-.37l-.462-.383zm2.189-2.642l-2.189 2.643.462.382 2.19-2.642-.462-.383zm-2.941-2.594l2.958 2.996.427-.421-2.958-2.997-.427.422zM38.664 8.35l2.638-2.184-.383-.462-2.638 2.184.383.462zm-1.074.064a.91.91 0 001.074-.064l-.383-.462a.31.31 0 01-.366.022l-.325.504zM33 6.477a13.871 13.871 0 014.588 1.936l.329-.502a14.471 14.471 0 00-4.787-2.02l-.13.586zm-.711-.802a.91.91 0 00.713.803l.127-.587a.31.31 0 01-.243-.273l-.597.057zm-.33-3.427l.33 3.428.597-.058-.33-3.427-.598.057zm-3.962.272h4.26v-.6h-4.26v.6zm-.032 3.156l.33-3.428-.597-.057-.33 3.427.597.058zm-.713.802a.91.91 0 00.713-.803l-.597-.057a.31.31 0 01-.243.273l.127.587zm-4.578 1.93a13.457 13.457 0 014.578-1.93l-.127-.587a14.058 14.058 0 00-4.782 2.016l.331.5zM21.59 8.35a.91.91 0 001.085.057l-.333-.5a.31.31 0 01-.37-.019l-.382.462zm-2.64-2.186l2.64 2.186.383-.462-2.64-2.186-.383.462zm-2.598 2.982l3.002-3.001-.425-.424-3.001 3 .424.425zm2.205 2.236l-2.186-2.64-.462.383 2.186 2.64.462-.383zm.064 1.074a.91.91 0 00-.064-1.073l-.462.382a.31.31 0 01.022.366l.504.325zm-.75 1.3c.225-.439.476-.874.75-1.3l-.504-.325a15.71 15.71 0 00-.78 1.351l.533.274zm2.965-.028a16.423 16.423 0 00-3.225-.409l-.016.6c1.047.028 2.087.16 3.108.394l.133-.585zm12.412-4.734a11.363 11.363 0 00-12.732 4.866l.507.32a10.763 10.763 0 0112.06-4.609l.165-.577zM41.49 19.85a11.363 11.363 0 00-8.243-10.855l-.165.577a10.763 10.763 0 017.808 10.282l.6-.004zm-8.106 10.958A11.363 11.363 0 0041.49 19.85l-.6.004a10.763 10.763 0 01-7.678 10.38l.172.574zm-.28 3.043c.278-1.086.443-2.197.494-3.317l-.6-.027a15.804 15.804 0 01-.475 3.196l.581.148zm-.102-.488a.909.909 0 00-.377.18l.377.468a.3.3 0 01.127-.061l-.128-.587zm4.577-1.93a13.453 13.453 0 01-4.577 1.93l.127.587a14.055 14.055 0 004.782-2.016l-.332-.5zm1.085.058a.91.91 0 00-1.085-.057l.332.5a.31.31 0 01.37.019l.383-.463zm2.64 2.186l-2.64-2.187-.383.463 2.64 2.186.383-.462zm2.598-2.982l-3.002 3 .425.425 3-3.001-.423-.424zm-2.206-2.237l2.187 2.64.462-.383-2.187-2.64-.462.383zm-.064-1.074a.91.91 0 00.064 1.074l.462-.382a.31.31 0 01-.021-.366l-.505-.326zm1.937-4.59a13.872 13.872 0 01-1.936 4.589l.502.328a14.473 14.473 0 002.02-4.786l-.586-.13zm.801-.71a.91.91 0 00-.801.712l.586.127a.31.31 0 01.273-.243l-.058-.597z" fill="#fff"/></symbol><symbol fill="none" id="ico-advantage-quickly" viewBox="0 0 48 48"><path fill-rule="evenodd" clip-rule="evenodd" d="M25.71 16.643a8.518 8.518 0 01-2.792.472 8.557 8.557 0 118.558-8.558 8.47 8.47 0 01-1.772 5.207l1.148 2.7a.689.689 0 01-.752.947l-4.39-.768zm3.736-11.105a7.167 7.167 0 00-6.528-4.16 7.179 7.179 0 102.492 13.91.69.69 0 01.358-.033l3.321.581-.814-1.914a.689.689 0 01.109-.716 7.167 7.167 0 001.062-7.668z" fill="#fff"/><path d="M21.087 11.415a.689.689 0 00.974 0l4.436-4.435a.689.689 0 10-.974-.974l-3.949 3.949-1.26-1.26a.689.689 0 00-.974.973l1.747 1.747z" fill="#fff"/><path fill-rule="evenodd" clip-rule="evenodd" d="M22.328 47.939H.688A.688.688 0 010 47.25v-3.519a4.112 4.112 0 01.144-1.107 4.336 4.336 0 012.875-2.962l4.683-1.519v-1.931a7.215 7.215 0 01-3.282-4.765l-.25-.86a2.453 2.453 0 01-1.517-2.879 1.993 1.993 0 011.16-1.373V23.3a7.697 7.697 0 0115.393 0v3.038a1.99 1.99 0 011.157 1.372 2.452 2.452 0 01-1.516 2.877l-.25.861a7.215 7.215 0 01-3.283 4.765v1.931l4.684 1.519a4.337 4.337 0 012.916 3.126c.07.31.105.626.102.944v3.518c0 .38-.308.689-.688.689zM16.294 26.05c-2.28-.607-3.667-1.788-4.247-2.378-.553.136-1.135.251-1.746.345 2.037 1.294 4.346 1.82 5.993 2.034zM5.19 23.3a6.32 6.32 0 1112.64 0v1.657c-2.069-.28-3.459-1.118-4.24-1.744a10.81 10.81 0 002.967-1.563.689.689 0 00-.839-1.093c-3.43 2.63-9.588 2.353-9.65 2.35a.689.689 0 00-.723.656l-.116 2.545a.246.246 0 01-.039.126V23.3zm.561 7.795a.695.695 0 01.016.065 5.842 5.842 0 0011.482 0 .715.715 0 01.016-.065l.348-1.196a.689.689 0 01.557-.549 1.075 1.075 0 00.856-1.313.627.627 0 00-.476-.47l-.006.001c-.251.01-6.101.192-10.266-3.329-.645.044-1.191.056-1.588.056l-.085 1.875a1.628 1.628 0 01-2.243 1.433.616.616 0 00-.371.434 1.07 1.07 0 00.856 1.313c.28.05.503.268.557.549l.347 1.196zm5.757 6.204c.828 0 1.65-.142 2.429-.421v1.345a5.93 5.93 0 01-4.857 0v-1.345c.78.28 1.6.422 2.428.421zM1.443 43.102a2.754 2.754 0 00-.066.63v2.83H21.64v-2.83a2.759 2.759 0 00-.095-.743 2.964 2.964 0 00-1.972-2.018l-4.881-1.582a7.308 7.308 0 01-6.367 0L3.443 40.97a2.964 2.964 0 00-2 2.13z" fill="#fff"/><path d="M38.515 44.301h-.676a.689.689 0 000 1.377h.676a.689.689 0 000-1.377z" fill="#fff"/><path fill-rule="evenodd" clip-rule="evenodd" d="M28.533 26.048l-.007-2.422a7.762 7.762 0 1115.525.046l-.01 2.653a1.88 1.88 0 011.06 1.28c.222.91-.13 1.863-.889 2.41l.557 2.699a5.09 5.09 0 01-2.612 5.53l2.883.977a4.068 4.068 0 012.764 3.855v4.174c0 .38-.309.688-.689.688h-21.64a.688.688 0 01-.688-.688v-4.174a4.068 4.068 0 012.763-3.855l2.717-.92a5.095 5.095 0 01-2.355-5.711l.653-2.455a2.296 2.296 0 01-1.076-2.53 1.877 1.877 0 011.05-1.276l-.006-.265v-.016zm.71 6.897a3.71 3.71 0 003.137 4.64l.388-.132v-1.018a7.107 7.107 0 01-2.025-1.567 7.747 7.747 0 01-1.413-2.25l-.087.327zm11.193 6.17l-3.458 3.363v-1.407l2.34-2.335 1.118.38zm-4.835 1.942l-2.328-2.32-1.117.378 3.445 3.35v-1.408zm2.845-3.396l-2.15 2.144-2.151-2.144v-.708c.502.127 1.017.19 1.534.191h1.232c.517 0 1.033-.064 1.534-.19l.001.707zm-10.453 2.865a2.691 2.691 0 00-1.829 2.55v3.486H35.6v-2.176l-4.91-4.775-2.698.915zm18.433 2.55v3.486h-9.449v-2.163L41.9 39.61l2.698.914a2.691 2.691 0 011.828 2.55zm-6.57-5.622a3.703 3.703 0 002.83-1.395 3.704 3.704 0 00.734-3.067l-.105-.51a7.748 7.748 0 01-1.467 2.386 7.113 7.113 0 01-2.026 1.567v1.018l.035.012v-.01zm3.907-9.522a.921.921 0 01-.73 1.123.698.698 0 00-.57.688 6.346 6.346 0 01-1.636 4.201c-1.064 1.176-2.455 1.824-3.916 1.824H35.68c-1.462 0-2.852-.648-3.916-1.824a6.351 6.351 0 01-1.636-4.21.69.69 0 00-.57-.68.915.915 0 01-.73-1.122.524.524 0 01.475-.399.688.688 0 00.512-.306 1.765 1.765 0 001.976-.95.372.372 0 01.097-.128c1.098-.062 3.1-.175 5.131-1.406a9.28 9.28 0 005.727 2.433.685.685 0 00.54.357c.23.015.423.176.477.4zm-2.945-8.808a6.385 6.385 0 00-4.53-1.885 6.392 6.392 0 00-6.385 6.385l.006 2.138.017.017a.392.392 0 00.624-.1c.256-.53.728-.876 1.233-.904l.026-.002c1.693-.094 5.217-.291 7.66-4.614a.689.689 0 111.198.677c-.758 1.343-1.617 2.34-2.501 3.083a7.896 7.896 0 004.5 1.87l.008-2.123a6.385 6.385 0 00-1.856-4.542z" fill="#fff"/></symbol><symbol fill="none" id="ico-advantage-target" viewBox="0 0 48 48"><path d="M26.403 5.862a.724.724 0 00-.198 1.434A16.786 16.786 0 0140.54 21.63a.724.724 0 101.434-.198 18.233 18.233 0 00-15.57-15.571zm-4.97 36.111a.724.724 0 00.197-1.433A16.787 16.787 0 017.296 26.206a.724.724 0 00-1.434.197 18.233 18.233 0 0015.57 15.57zM6.48 22.248a.724.724 0 00.816-.618A16.786 16.786 0 0121.63 7.296a.724.724 0 00-.198-1.434 18.233 18.233 0 00-15.57 15.571.724.724 0 00.617.815zM26.303 41.98a.71.71 0 00.1-.006 18.233 18.233 0 0015.57-15.57.724.724 0 00-1.433-.198A16.786 16.786 0 0126.206 40.54a.724.724 0 00.098 1.44z" fill="#fff"/><path d="M41.967 38.508a.724.724 0 001.014-.14 23.93 23.93 0 000-28.9.724.724 0 10-1.154.874 22.483 22.483 0 010 27.152.724.724 0 00.14 1.014zM5.869 9.328a.724.724 0 00-1.014.14 23.931 23.931 0 000 28.9.724.724 0 101.154-.874 22.484 22.484 0 010-27.152.724.724 0 00-.14-1.014zm32.499-4.473a23.93 23.93 0 00-28.9 0 .724.724 0 10.874 1.154 22.483 22.483 0 0127.152 0 .724.724 0 10.874-1.154zm-.874 36.973a22.484 22.484 0 01-27.152 0 .724.724 0 10-.874 1.153 23.93 23.93 0 0028.9 0 .724.724 0 10-.874-1.154z" fill="#fff"/><path fill-rule="evenodd" clip-rule="evenodd" d="M24.604 36.73a.724.724 0 01-1.447 0v-1.877a10.987 10.987 0 01-10.224-10.226H10.98a.724.724 0 110-1.447h1.954a10.987 10.987 0 0110.223-10.22v-1.9a.724.724 0 011.447 0v1.9a10.987 10.987 0 0110.223 10.22h1.888a.724.724 0 010 1.448h-1.888a10.987 10.987 0 01-10.223 10.225v1.877zm-8.7-12.102h-1.518a9.536 9.536 0 008.77 8.772v-1.595a.724.724 0 011.448 0V33.4a9.536 9.536 0 008.77-8.772h-1.583a.724.724 0 010-1.448h1.583a9.535 9.535 0 00-8.77-8.768v1.572a.724.724 0 01-1.447 0v-1.572a9.536 9.536 0 00-8.77 8.768h1.517a.724.724 0 010 1.448z" fill="#fff"/><path fill-rule="evenodd" clip-rule="evenodd" d="M25.448 20.12a4.097 4.097 0 11-3.136 7.57 4.097 4.097 0 013.136-7.57zm-1.568 1.136a2.65 2.65 0 100 5.3 2.65 2.65 0 000-5.3z" fill="#fff"/></symbol><symbol id="ico-arrow-down" viewBox="0 0 10 7"><path d="M10 1.18L8.82 0 5 3.82 1.18 0 0 1.18l5 5 5-5z"/></symbol><symbol id="ico-arrow" viewBox="0 0 9 14"><path d="M1.7 0L.05 1.65 5.399 7l-5.35 5.35L1.7 14l7-7z"/></symbol><symbol id="ico-check-fail" viewBox="0 0 32 32"><path fill="#fc2a2a" d="M16 32c8.837 0 16-7.163 16-16S24.837 0 16 0 0 7.163 0 16s7.163 16 16 16z"/><path fill="#fff" d="M22.407 10.871L21.11 9.574l-5.12 5.12-5.119-5.12-1.297 1.297 5.12 5.12-5.12 5.12 1.297 1.296 5.12-5.12 5.12 5.12 1.296-1.297-5.12-5.12z"/></symbol><symbol id="ico-check-success" viewBox="0 0 32 32"><path fill="#04cc5b" d="M16 32c8.837 0 16-7.163 16-16S24.837 0 16 0 0 7.163 0 16s7.163 16 16 16z"/><path fill="#fff" d="M22.58 12.491l-8.454 8.453a.19.19 0 01-.27 0l-4.8-4.8a.19.19 0 010-.269l1.166-1.166a.19.19 0 01.27 0l3.5 3.499 7.153-7.152a.19.19 0 01.27 0l1.166 1.166a.19.19 0 010 .27z"/></symbol><symbol id="ico-check" viewBox="0 0 11 8"><path d="M10.765 1.242L4.063 7.945a.15.15 0 01-.213 0L.044 4.139a.15.15 0 010-.213L.97 3a.151.151 0 01.213 0l2.775 2.774 5.67-5.67a.151.151 0 01.214 0l.924.924a.15.15 0 010 .213z"/></symbol><symbol id="ico-close" viewBox="0 0 16 16"><path d="M16.155 1.473l-1.65-1.651-6.517 6.516L1.473-.178l-1.651 1.65 6.516 6.516-6.516 6.516 1.65 1.651 6.516-6.516 6.516 6.516 1.651-1.65-6.516-6.517z"/></symbol><symbol id="ico-process-conversation" viewBox="0 0 51 52"><path d="M1.468 47.512a2.936 2.936 0 01.1-.791 3.16 3.16 0 012.101-2.15l5.201-1.688a7.783 7.783 0 006.783 0l5.2 1.687a3.159 3.159 0 012.132 2.27c.049.22.072.446.07.672v3.017H1.468zm13.377-7.306v1.427a6.327 6.327 0 01-5.167 0v-1.427a7.676 7.676 0 005.167 0zm-8.698-6.094a.73.73 0 00-.017-.07l-.37-1.274a.734.734 0 00-.595-.585 1.14 1.14 0 01-.911-1.4.657.657 0 01.396-.463 1.735 1.735 0 002.39-1.526l.091-1.999c.422 0 1.005-.013 1.692-.06 4.44 3.752 10.675 3.56 10.943 3.548h.006c.251.056.449.25.507.501a1.145 1.145 0 01-.912 1.4.734.734 0 00-.594.584l-.37 1.275a.784.784 0 00-.017.07 6.227 6.227 0 01-12.24 0zm-.615-8.378a6.736 6.736 0 1113.472 0v1.767c-2.205-.3-3.686-1.192-4.52-1.86a11.521 11.521 0 003.163-1.666.734.734 0 10-.893-1.165c-3.656 2.804-10.22 2.508-10.286 2.505a.734.734 0 00-.77.7l-.124 2.712a.26.26 0 01-.042.133zm7.309.397c.618.63 2.097 1.889 4.526 2.536-1.755-.227-4.216-.789-6.388-2.168.652-.1 1.272-.222 1.862-.368zM.734 51.997H23.8a.734.734 0 00.734-.734v-3.75a4.383 4.383 0 00-.154-1.18 4.623 4.623 0 00-3.064-3.158l-4.993-1.62v-2.058a7.69 7.69 0 003.5-5.078l.266-.918a2.614 2.614 0 001.617-3.067 2.125 2.125 0 00-1.234-1.462v-3.238a8.203 8.203 0 00-16.406 0v3.236a2.124 2.124 0 00-1.237 1.464A2.614 2.614 0 004.444 33.5l.267.918a7.69 7.69 0 003.499 5.078v2.058l-4.992 1.62a4.623 4.623 0 00-3.11 3.332A4.47 4.47 0 000 47.511v3.75c0 .406.329.735.734.735zm40.32-3.877h-.72a.734.734 0 000 1.468h.72a.734.734 0 000-1.468z"/><path d="M45.485 26.125l-.009 2.262a8.415 8.415 0 01-4.796-1.992c.942-.791 1.857-1.854 2.666-3.286a.734.734 0 10-1.278-.722c-2.603 4.608-6.359 4.818-8.164 4.919l-.027.001c-.539.03-1.042.4-1.314.965a.418.418 0 01-.665.105l-.018-.017-.007-2.279a6.806 6.806 0 1113.612.044zm1.151 4.548a.975.975 0 01-.779 1.197.744.744 0 00-.607.732 6.765 6.765 0 01-1.742 4.478c-1.133 1.254-2.615 1.944-4.171 1.944h-1.312c-1.556 0-3.037-.69-4.17-1.944a6.771 6.771 0 01-1.743-4.488.734.734 0 00-.607-.723.975.975 0 01-.779-1.197.558.558 0 01.507-.425.733.733 0 00.545-.327 1.88 1.88 0 002.105-1.011.4.4 0 01.103-.138c1.17-.065 3.302-.186 5.466-1.498a9.881 9.881 0 006.1 2.593.733.733 0 00.576.381c.245.015.45.188.508.426zm-4.154 10.149v.01l-.036-.012v-1.084a7.562 7.562 0 002.153-1.671 8.263 8.263 0 001.56-2.543l.111.543a3.955 3.955 0 01-3.788 4.757zm7.003 9.707H39.413v-2.305l5.247-5.103 2.876.975a2.869 2.869 0 011.949 2.718zm-21.597-3.715c0-1.23.783-2.324 1.948-2.718l2.876-.975 5.233 5.089v2.319H27.888zm13.1-5.772l-2.297 2.286-2.297-2.286v-.754a6.757 6.757 0 001.64.204h1.315c.552 0 1.103-.07 1.639-.204zm-5.52 1.146l2.488 2.474v1.5l-3.682-3.57zm7.632.404l-3.687 3.585v-1.5l2.495-2.489zm-11.93-6.577l.092-.348c.36.88.87 1.691 1.506 2.398a7.578 7.578 0 002.159 1.67v1.086l-.414.14a3.955 3.955 0 01-3.344-4.945zm-.765-9.932l.008 2.581v.017l.006.283a2 2 0 00-1.119 1.36 2.447 2.447 0 001.147 2.696l-.696 2.617a5.43 5.43 0 002.51 6.087l-2.896.982a4.335 4.335 0 00-2.945 4.108v4.449c0 .405.329.734.734.734h23.064a.734.734 0 00.734-.734v-4.45a4.335 4.335 0 00-2.945-4.107l-3.072-1.042a5.424 5.424 0 002.783-5.896l-.594-2.876a2.45 2.45 0 00.948-2.569 2.001 2.001 0 00-1.13-1.364l.01-2.827a8.274 8.274 0 10-16.546-.049zM16.778 3.326a1.86 1.86 0 011.859-1.858h18.917a1.86 1.86 0 011.859 1.858V13.43a1.86 1.86 0 01-1.859 1.859H26.992c-1.555 0-2.727.655-3.39 1.895-.442.823-.584 1.754-.66 2.471-.591-.474-1.348-1.384-1.64-3.038a1.622 1.622 0 00-1.61-1.328h-1.055a1.86 1.86 0 01-1.86-1.86zm1.86 13.437h1.055a.165.165 0 01.166.117c.592 3.355 2.793 4.403 3.312 4.606a.747.747 0 00.454.077c.31-.05.56-.282.63-.589.062-.265.1-.535.116-.808.167-1.793.494-3.403 2.626-3.403h10.566a3.331 3.331 0 003.328-3.328V3.327A3.331 3.331 0 0037.563 0H18.637a3.331 3.331 0 00-3.327 3.327v10.108a3.331 3.331 0 003.327 3.328z"/><path d="M36.998 7.67H23.834a.734.734 0 000 1.468h13.164a.734.734 0 000-1.468zM19.284 9.138h2.286a.734.734 0 000-1.468h-2.286a.734.734 0 000 1.468zm13.03-3.24h4.682a.734.734 0 100-1.468h-4.682a.734.734 0 100 1.468zm-13.03 0h10.855a.734.734 0 100-1.468H19.284a.734.734 0 100 1.468zm17.714 5.012h-7.324a.734.734 0 000 1.468h7.324a.734.734 0 100-1.468zm-17.714 1.468h8.128a.734.734 0 100-1.468h-8.128a.734.734 0 000 1.468z"/></symbol><symbol id="ico-process-id-card" viewBox="0 0 38 52"><path d="M24.414 40.94a.784.784 0 100 1.569h3.703a.784.784 0 000-1.569zm-15.32 1.569h12.167a.784.784 0 000-1.569H9.094a.784.784 0 100 1.569z"/><path d="M31.897 5.105a3.702 3.702 0 013.697 3.698v37.93a3.702 3.702 0 01-3.697 3.698h-26.6a3.702 3.702 0 01-3.698-3.698V8.803a3.702 3.702 0 013.697-3.698h5.266v2.561c0 .434.35.785.784.785h14.5a.784.784 0 00.785-.785V5.105zm-19.76-3.536h12.93v5.313h-12.93zM25.854 0H11.35a.784.784 0 00-.785.784v2.752H5.297A5.273 5.273 0 00.03 8.803v37.93A5.273 5.273 0 005.297 52h26.609a5.273 5.273 0 005.267-5.267V8.803a5.273 5.273 0 00-5.267-5.267h-5.267V.784A.784.784 0 0025.854 0z"/><path d="M26.741 33.847c.035.155.051.314.05.473v2.13H10.426v-2.13a2.09 2.09 0 01.07-.559 2.243 2.243 0 011.494-1.525l3.965-1.285a6.272 6.272 0 005.305 0l3.965 1.285a2.243 2.243 0 011.515 1.61zm-6.33-4.911v.677a4.72 4.72 0 01-3.605 0v-.677a6.209 6.209 0 003.605 0zm-6.369-5.148l-.285-.982a.785.785 0 00-.634-.615.677.677 0 01-.538-.826.3.3 0 01.166-.207c.016.001.033.003.05.003a.781.781 0 00.266-.048 2.843 2.843 0 002.579-2.826v-.026h.067c3.424 2.96 8.25 2.892 8.707 2.88.106.03.188.116.212.224a.676.676 0 01-.538.826.791.791 0 00-.624.583l-.295 1.014a.82.82 0 00-.018.074 4.628 4.628 0 01-9.097 0 .813.813 0 00-.018-.074zm4.563-11.422a5.024 5.024 0 014.482 2.765l-.028-.04a.784.784 0 00-1.099-.145c-2.755 2.114-6.978 1.715-7.02 1.711a.784.784 0 00-.865.78v.85c0 .391-.181.76-.49 1V17.39a5.027 5.027 0 015.02-5.023zm5.03 7.188c-1.148-.066-3.41-.343-5.449-1.474 1.508-.237 3.267-.763 4.737-1.889a.783.783 0 00.273-.85c.29.644.439 1.342.439 2.048zm-1.66 9.98v-1.328a6.191 6.191 0 002.715-4.015l.176-.604a2.247 2.247 0 001.288-2.595 1.864 1.864 0 00-.952-1.222v-2.38a6.592 6.592 0 10-13.183 0v2.38c-.481.25-.83.696-.955 1.223a2.247 2.247 0 001.289 2.595l.175.604a6.191 6.191 0 002.714 4.015v1.327l-3.733 1.21a3.808 3.808 0 00-2.56 2.747 3.61 3.61 0 00-.089.83v2.915c0 .434.351.785.785.785h17.929a.784.784 0 00.784-.785V34.32a3.609 3.609 0 00-.126-.974 3.807 3.807 0 00-2.522-2.602zm6.142 16.336h-6.393a.784.784 0 100 1.569h6.393a.784.784 0 000-1.569zm-9.101 0h-3.412a.784.784 0 100 1.569h3.412a.784.784 0 000-1.569zm-6.216 0H9.093a.784.784 0 100 1.569H12.8a.784.784 0 000-1.569z"/></symbol><symbol id="ico-process-laptop" viewBox="0 0 52 50"><path d="M49.824 47.735c-.369.37-.87.579-1.393.577H3.568a1.97 1.97 0 110-3.938h14.67a.46.46 0 01.46.46 2.031 2.031 0 002.029 2.029h9.956a2.033 2.033 0 002.03-2.029.46.46 0 01.459-.46h15.259a1.97 1.97 0 011.393 3.361zM6.559 13.902h23.48c.193.84.788 1.53 1.59 1.844l.248.854.01.046H8.198a.784.784 0 00-.784.784v22.307c0 .434.351.785.784.785h36.05a.784.784 0 00.784-.785v-6h2.559v9.068H33.165a2.031 2.031 0 00-2.028 2.029.46.46 0 01-.46.46h-9.953a.46.46 0 01-.46-.46 2.031 2.031 0 00-2.028-2.029H4.856V15.607a1.706 1.706 0 011.703-1.705zM39.297 1.67a6.482 6.482 0 016.474 6.474v2.914c-1.455-.062-4.752-.406-7.582-2.163 1.968-.246 4.39-.878 6.378-2.403a.785.785 0 10-.955-1.245c-3.509 2.691-8.865 2.184-8.919 2.179a.784.784 0 00-.865.78v1.061a1.784 1.784 0 01-1.006 1.603V8.143a6.482 6.482 0 016.475-6.474zm6.886 12.675a.793.793 0 00-.624.587l-.37 1.272a.843.843 0 00-.017.074 5.981 5.981 0 01-5.877 4.88 5.981 5.981 0 01-5.877-4.88.77.77 0 00-.018-.074l-.359-1.237a.785.785 0 00-.634-.622 1.038 1.038 0 01-.83-1.274.573.573 0 01.367-.411.781.781 0 00.385-.05 3.358 3.358 0 003.068-3.343v-.232c.11.003.228.005.355.005 4.325 3.788 10.518 3.611 10.83 3.6a.58.58 0 01.43.432 1.044 1.044 0 01-.829 1.273zm-4.444 9.208a6.068 6.068 0 01-4.888 0v-1.245a7.522 7.522 0 004.888 0zm-6.457-1.993v1.908l-4.802 1.557a4.564 4.564 0 00-3.069 3.29c-.074.326-.11.66-.107.994v3.644c0 .433.351.785.784.785h15.385v5.216H8.983V18.215H32.39a7.56 7.56 0 002.893 3.344zm12.345 4.957a3 3 0 012.024 2.155c.047.209.069.422.067.636v2.86H28.873v-2.86a2.781 2.781 0 01.095-.75 3 3 0 011.996-2.04l5.028-1.631c2.089 1 4.518 1 6.606 0zm1.543 7.22h1.332a.784.784 0 00.785-.784v-3.645a4.32 4.32 0 00-.152-1.165 4.563 4.563 0 00-3.024-3.118l-4.803-1.557V21.56a7.545 7.545 0 003.399-4.96l.248-.853a2.612 2.612 0 001.581-3.052 2.134 2.134 0 00-1.196-1.45v-3.1a8.043 8.043 0 10-16.087 0v3.099a2.125 2.125 0 00-1.077 1.09H6.56a3.277 3.277 0 00-3.274 3.274v27.21a3.538 3.538 0 00.282 7.064h44.863a3.538 3.538 0 00.739-6.998z"/><path d="M11.854 23.929h3.766a.784.784 0 000-1.569h-3.766a.784.784 0 100 1.569zm6.86 0h2.421a.784.784 0 000-1.569h-2.42a.784.784 0 100 1.569zm6.32 0h4.182a.784.784 0 000-1.569h-4.182a.784.784 0 100 1.569zm-13.18 6.28h6.456a.784.784 0 000-1.569h-6.456a.784.784 0 100 1.569zm13.742-.785a.784.784 0 00-.785-.784h-3.407a.784.784 0 100 1.569h3.407a.784.784 0 00.785-.785zm-13.742 7.055h9.46a.784.784 0 000-1.569h-9.46a.784.784 0 100 1.569zm11.776-.785c0 .434.351.785.784.785h3.766a.784.784 0 000-1.569h-3.766a.784.784 0 00-.784.784z"/></symbol><symbol id="ico-process-user" viewBox="0 0 49 52"><path d="M22.3 20.699l-7.654 7.472-4.02-3.925a.734.734 0 00-1.025 1.05l4.533 4.425a.734.734 0 001.025 0l8.166-7.972a.734.734 0 00-1.026-1.05z"/><path d="M46.758 50.51H25.161v-3.024a2.943 2.943 0 01.1-.793 3.163 3.163 0 012.103-2.155l5.203-1.691a7.772 7.772 0 006.785 0l5.204 1.69a3.163 3.163 0 012.132 2.277c.049.22.073.446.07.672zM1.468 7.64a3.083 3.083 0 013.079-3.08h3.951v1.377a4.552 4.552 0 004.547 4.548h6.82a4.552 4.552 0 004.546-4.548V4.56h3.951a3.083 3.083 0 013.08 3.08v11.217a8.203 8.203 0 00-3.693 6.848v3.237a2.124 2.124 0 00-1.236 1.463 2.615 2.615 0 001.616 3.068l.266.918a7.69 7.69 0 003.498 5.078v2.06l-3.798 1.23H4.547a3.083 3.083 0 01-3.08-3.08zm11.12-3.076c.345 0 .643-.24.717-.577.315-1.437 1.642-2.48 3.155-2.48 1.512 0 2.84 1.043 3.155 2.48a.734.734 0 00.716.577h2.62v1.378a3.085 3.085 0 01-3.08 3.084h-6.822a3.085 3.085 0 01-3.08-3.084V4.564zm30.109 21.143v1.768c-2.205-.3-3.686-1.193-4.52-1.861a11.516 11.516 0 003.163-1.667.735.735 0 00-.893-1.166c-3.656 2.806-10.22 2.51-10.285 2.506a.734.734 0 00-.77.7l-.124 2.715a.264.264 0 01-.042.134v-3.13a6.742 6.742 0 013.125-5.686.731.731 0 00.384-.23 6.728 6.728 0 016.665.119 6.74 6.74 0 013.297 5.798zm-6.163.39c.62.633 2.105 1.903 4.546 2.55-1.754-.225-4.225-.787-6.408-2.18.652-.1 1.272-.224 1.862-.37zm6.527 6.055a.734.734 0 00-.595.585l-.37 1.276a.718.718 0 00-.017.069 6.228 6.228 0 01-6.12 5.08 6.228 6.228 0 01-6.119-5.08.766.766 0 00-.016-.07l-.371-1.275a.734.734 0 00-.594-.585 1.146 1.146 0 01-.912-1.4.657.657 0 01.396-.464 1.734 1.734 0 002.39-1.527l.091-2c.423 0 1.005-.013 1.693-.06 4.439 3.755 10.674 3.56 10.942 3.55h.006c.251.056.449.25.507.501a1.147 1.147 0 01-.912 1.4zm-4.513 9.458a6.292 6.292 0 01-5.177 0v-1.44a7.647 7.647 0 005.177 0zm9.525 4.693a4.623 4.623 0 00-3.065-3.158l-4.992-1.619v-2.058a7.69 7.69 0 003.499-5.079l.266-.917a2.615 2.615 0 001.617-3.067 2.125 2.125 0 00-1.233-1.462v-3.238a8.198 8.198 0 00-11.246-7.617V7.641a4.553 4.553 0 00-4.548-4.548h-7.49a4.727 4.727 0 00-8.842 0H4.548A4.553 4.553 0 000 7.641v32.037a4.553 4.553 0 004.548 4.548h20.546a4.528 4.528 0 00-1.292 2.252c-.075.33-.111.667-.108 1.005v3.75c0 .406.328.734.733.734h23.065a.734.734 0 00.734-.734v-3.75a4.375 4.375 0 00-.153-1.18z"/></symbol><symbol id="ico-process-video-call" viewBox="0 0 52 50"><path d="M24.576 26.789a2.912 2.912 0 00.157-1.85 2.349 2.349 0 00-1.419-1.639v-.056h27.192V24.9a1.89 1.89 0 01-1.888 1.888zm11.865 7.565h-8.594v-6.061h8.594zm-14.289-7.34a.752.752 0 00-.61.602l-.426 1.468a.732.732 0 00-.017.07 7.236 7.236 0 01-14.223 0 .732.732 0 00-.017-.07l-.427-1.468a.752.752 0 00-.61-.603 1.405 1.405 0 01-1.118-1.716.845.845 0 01.541-.609A1.9 1.9 0 007.9 23.031l.108-2.38c.496 0 1.208-.012 2.06-.071 5.069 4.308 12.217 4.086 12.523 4.074l.02-.001a.855.855 0 01.66.644 1.405 1.405 0 01-1.118 1.716zm-5.104 10.822a7.344 7.344 0 01-6.122 0v-1.833c1.974.74 4.148.74 6.122 0zm6.832 3.22a3.716 3.716 0 012.507 2.67c.058.26.086.525.083.791v3.552H1.504v-3.552a3.453 3.453 0 01.12-.932 3.716 3.716 0 012.47-2.53l6.006-1.947a8.845 8.845 0 007.773 0zM6.17 19.522a7.82 7.82 0 0115.64 0v2.13a10.87 10.87 0 01-4.553-1.614 9.295 9.295 0 01-.899-.655c1.461-.506 2.716-1.157 3.75-1.95a.752.752 0 00-.916-1.194C14.97 19.48 7.404 19.137 7.328 19.133a.752.752 0 00-.79.717l-.141 3.113a.39.39 0 01-.228.341zm8.506.357c.802.828 3.019 2.734 6.833 3.251-1.854-.094-5.882-.562-9.247-2.783.85-.123 1.654-.279 2.414-.468zm17.464 1.224a.752.752 0 00.751-.753v-2.248l1.797-1.758a6.521 6.521 0 013.925 5.404H25.666a6.521 6.521 0 013.925-5.404l1.796 1.758v2.248c0 .416.337.753.752.753zM13.792 3.451a1.89 1.89 0 011.887-1.887h32.94a1.89 1.89 0 011.887 1.887V21.74H40.14a8.014 8.014 0 00-5.374-6.98.752.752 0 00-.771.173l-1.845 1.8-1.845-1.8a.752.752 0 00-.77-.172 8.015 8.015 0 00-5.375 6.98h-.843v-2.217c-.006-5.147-4.178-9.318-9.327-9.324l-.198.003zM48.609.06h-32.93a3.395 3.395 0 00-3.391 3.392v6.903a9.34 9.34 0 00-7.623 9.169v3.775a2.349 2.349 0 00-1.422 1.64 2.91 2.91 0 001.842 3.43l.32 1.1a8.736 8.736 0 004.018 5.799v2.478L3.63 39.624a5.215 5.215 0 00-3.509 3.76A4.939 4.939 0 000 44.517v4.304c0 .415.337.752.752.752h26.47a.752.752 0 00.752-.752v-4.304a4.927 4.927 0 00-.172-1.33 5.216 5.216 0 00-3.458-3.563l-5.792-1.878v-2.478a8.736 8.736 0 004.018-5.799l.32-1.1c.065-.023.127-.049.19-.076h3.263v6.061h-1.708a.752.752 0 100 1.504H40.73a.752.752 0 100-1.504h-2.786v-6.061H48.61A3.395 3.395 0 0052 24.9V3.451A3.395 3.395 0 0048.61.06z"/><path d="M35.425 9.375a3.28 3.28 0 11-6.56 0 3.28 3.28 0 016.56 0zm-3.28 4.784a4.785 4.785 0 100-9.569 4.785 4.785 0 000 9.57z"/></symbol><symbol id="ico-quote" viewBox="0 0 35 31"><path d="M676 78.333v-13h-5.658v-1.347c0-3.162.347-5.709 1.042-7.641.695-1.933 1.737-3.27 3.127-4.012V48c-3.93.976-6.87 3.182-8.815 6.617-1.945 3.436-2.918 8.1-2.918 13.996v9.72H676zm-21.778 0v-13h-5.658v-1.347c0-3.162.347-5.709 1.042-7.641.695-1.933 1.738-3.27 3.127-4.012V48c-3.93.976-6.869 3.182-8.815 6.617-1.945 3.436-2.918 8.1-2.918 13.996v9.72h13.222z" transform="translate(-641 -48)" fill="#6D3BC0" fill-rule="nonzero"/></symbol><symbol id="ico-service-design" viewBox="0 0 48 45"><g fill="#6D3BC0" fill-rule="nonzero"><path d="M44.337 30.41a3.616 3.616 0 01-3.614-3.615 3.62 3.62 0 012.38-3.393.722.722 0 00.473-.722c-.54-8.492-6.737-15.798-15.075-17.764-.058-.01-.106-.02-.164-.02a.778.778 0 00-.453.155.717.717 0 00-.27.568v1.668h-7.228V5.61a.731.731 0 00-.27-.569.756.756 0 00-.617-.135C11.17 6.872 4.973 14.178 4.424 22.67a.722.722 0 00.472.723 3.63 3.63 0 012.381 3.393A3.616 3.616 0 013.663 30.4a3.608 3.608 0 01-3.615-3.605c0-1.542.983-2.91 2.439-3.422a.705.705 0 00.482-.645c.395-7.085 4.337-13.436 10.544-17.003a.725.725 0 00.338-.81.73.73 0 00-.694-.54H7.749a.728.728 0 00-.684.483 3.617 3.617 0 01-3.412 2.41C1.667 7.277.048 5.657.048 3.662A3.616 3.616 0 013.663.048c1.523 0 2.891.964 3.412 2.41a.728.728 0 00.684.482h11.904a.728.728 0 00.723-.723V.048h7.228v2.169c0 .395.328.723.723.723h11.914a.728.728 0 00.684-.482 3.617 3.617 0 017.026 1.205 3.624 3.624 0 01-3.624 3.614 3.636 3.636 0 01-3.412-2.41.728.728 0 00-.684-.481h-5.407a.712.712 0 00-.694.54.72.72 0 00.337.809c6.207 3.566 10.15 9.918 10.545 17.002.019.3.212.55.482.646a3.624 3.624 0 012.438 3.422c.01 1.985-1.61 3.605-3.605 3.605zm0-5.783a2.172 2.172 0 00-2.168 2.168c0 1.195.973 2.169 2.168 2.169a2.172 2.172 0 002.169-2.169 2.172 2.172 0 00-2.169-2.168zm-40.674 0a2.172 2.172 0 00-2.169 2.168c0 1.195.973 2.169 2.169 2.169a2.172 2.172 0 002.168-2.169 2.172 2.172 0 00-2.168-2.168zM44.337 1.494a2.172 2.172 0 00-2.168 2.169c0 1.195.973 2.168 2.168 2.168a2.172 2.172 0 002.169-2.168 2.172 2.172 0 00-2.169-2.169zm-21.783 0a.728.728 0 00-.723.723v2.891c0 .396.328.723.723.723h2.892a.728.728 0 00.723-.723V2.217a.728.728 0 00-.723-.723h-2.892zm-18.891 0a2.172 2.172 0 00-2.169 2.169c0 1.195.973 2.168 2.169 2.168A2.172 2.172 0 005.83 3.663a2.172 2.172 0 00-2.168-2.169z"/><path d="M14.602 44.867V37.64h4.164c.25 0 .482-.126.617-.347a.706.706 0 00.029-.704l-4.916-9.831L24 10.93l9.494 15.827-4.916 9.831a.73.73 0 00.03.704.737.737 0 00.616.347h4.164v7.228H14.602zm2.17-5.783a.728.728 0 00-.724.723V42.7c0 .395.328.723.723.723H31.23a.728.728 0 00.723-.723v-2.892a.728.728 0 00-.723-.723H16.77zm5.782-22.245a.724.724 0 00-.617.347l-5.58 9.3a.738.738 0 00-.03.695l5.032 10.053c.125.25.366.395.646.395h4c.28 0 .52-.154.646-.395l5.021-10.053a.712.712 0 00-.029-.694l-5.58-9.301a.724.724 0 00-.617-.347.732.732 0 00-.723.723v9.956h-1.446v-9.957a.723.723 0 00-.53-.694c-.058-.028-.125-.028-.193-.028z"/></g></symbol><symbol id="ico-service-developer" viewBox="0 0 48 43"><path d="M42.68 0A5.327 5.327 0 0148 5.32v31.71a5.327 5.327 0 01-5.32 5.32H5.32A5.327 5.327 0 010 37.03V5.32A5.327 5.327 0 015.32 0h37.36zm3.735 12.689H1.584v24.34a3.74 3.74 0 003.737 3.735h37.358a3.74 3.74 0 003.736-3.735v-24.34zm-20.872 4.652c.428.09.702.51.612.938l-3.196 15.174a.793.793 0 11-1.55-.327l3.195-15.173a.792.792 0 01.939-.612zm-6 3.427a.792.792 0 01-.09 1.117l-4.42 3.763 4.42 3.763a.792.792 0 01-1.028 1.207l-5.128-4.366a.792.792 0 010-1.207l5.128-4.366a.792.792 0 011.117.089zm10.032-.09l5.128 4.367a.792.792 0 010 1.207l-5.128 4.366a.79.79 0 01-1.117-.09.792.792 0 01.09-1.117l4.418-3.763-4.419-3.763a.792.792 0 011.028-1.206zM42.679 1.586H5.321A3.74 3.74 0 001.585 5.32l-.001 5.783h44.831V5.321a3.74 3.74 0 00-3.736-3.736zm-21.434 2.32a2.51 2.51 0 012.508 2.507 2.51 2.51 0 01-2.508 2.508 2.51 2.51 0 01-2.507-2.508 2.51 2.51 0 012.507-2.507zm-7.705-.024a2.51 2.51 0 012.508 2.508 2.51 2.51 0 01-2.508 2.507 2.511 2.511 0 01-2.508-2.507 2.51 2.51 0 012.508-2.508zm-7.705-.025a2.51 2.51 0 012.507 2.508 2.51 2.51 0 01-2.507 2.508 2.51 2.51 0 01-2.508-2.508 2.51 2.51 0 012.508-2.508zm15.41 1.634a.924.924 0 000 1.845.924.924 0 000-1.845zm-7.705-.024a.924.924 0 000 1.846.924.924 0 000-1.846zm-7.705-.025a.924.924 0 10.923.923.924.924 0 00-.923-.923z" fill="#6D3BC0" fill-rule="nonzero"/></symbol><symbol id="ico-service-finance" viewBox="0 0 48 43"><path d="M42.68 0A5.327 5.327 0 0148 5.32v31.71a5.327 5.327 0 01-5.32 5.32H5.32A5.327 5.327 0 010 37.03V5.32A5.327 5.327 0 015.32 0h37.36zm3.735 12.689H1.584v24.34a3.74 3.74 0 003.737 3.735h37.358a3.74 3.74 0 003.736-3.735v-24.34zm-12.752 9.36c.267 0 .516.135.663.359l2.79 4.253a.792.792 0 01-.663 1.227h-2.158a10.897 10.897 0 01-3.66 6.461c-1.92 1.645-4.344 2.589-6.653 2.589-3.156 0-6.365-1.704-8.374-4.447a.792.792 0 111.278-.936c1.69 2.307 4.476 3.798 7.096 3.798 3.595 0 7.781-2.832 8.702-7.464h-1.811a.791.791 0 01-.663-1.228L33 22.408a.792.792 0 01.663-.359zM24 19.416c.438 0 .792.355.792.793l.001.556a3.062 3.062 0 012.264 2.952.792.792 0 11-1.585 0c0-.811-.66-1.472-1.472-1.472-.811 0-1.472.66-1.472 1.472 0 .811.66 1.472 1.472 1.472a3.06 3.06 0 013.057 3.056 3.062 3.062 0 01-2.264 2.952v.66a.792.792 0 11-1.585 0l-.001-.66a3.062 3.062 0 01-2.264-2.952.792.792 0 111.585 0c0 .808.655 1.467 1.462 1.472l.01-.002.01.001.132-.006a1.474 1.474 0 001.33-1.465c0-.811-.66-1.471-1.472-1.471a3.06 3.06 0 01-3.057-3.057c0-1.411.962-2.602 2.264-2.952v-.556c0-.438.355-.793.793-.793zm.018-4.948c3.157 0 6.366 1.704 8.375 4.447a.792.792 0 01-1.28.936c-1.689-2.307-4.474-3.798-7.095-3.798-3.595 0-7.781 2.832-8.702 7.464h1.81a.792.792 0 01.664 1.228L15 28.998a.792.792 0 01-1.326 0l-2.79-4.253a.792.792 0 01.663-1.227h2.158a10.897 10.897 0 013.66-6.461c1.92-1.645 4.344-2.589 6.653-2.589zM15.66 25.102h-2.645l1.323 2.017 1.322-2.017zm18.004-.815l-1.322 2.017h2.645l-1.323-2.017zM42.68 1.585H5.321A3.74 3.74 0 001.585 5.32l-.001 5.783h44.831V5.321a3.74 3.74 0 00-3.736-3.736zM21.245 3.906a2.51 2.51 0 012.508 2.507 2.51 2.51 0 01-2.508 2.508 2.51 2.51 0 01-2.507-2.508 2.51 2.51 0 012.507-2.507zm-7.705-.024a2.51 2.51 0 012.508 2.508 2.51 2.51 0 01-2.508 2.507 2.511 2.511 0 01-2.508-2.507 2.51 2.51 0 012.508-2.508zm-7.705-.025a2.51 2.51 0 012.507 2.508 2.51 2.51 0 01-2.507 2.508 2.51 2.51 0 01-2.508-2.508 2.51 2.51 0 012.508-2.508zm15.41 1.634a.924.924 0 000 1.845.924.924 0 000-1.845zm-7.705-.024a.924.924 0 000 1.846.924.924 0 000-1.846zm-7.705-.025a.924.924 0 10.923.923.924.924 0 00-.923-.923z" fill="#6D3BC0" fill-rule="nonzero"/></symbol><symbol id="ico-service-product-managers" viewBox="0 0 49 50"><g fill="#6D3BC0" fill-rule="nonzero" stroke="#6D3BC0" stroke-width=".3" opacity=".9"><path d="M24.517 17.886a7.4 7.4 0 015.2 2.12 7.153 7.153 0 012.16 5.116 7.153 7.153 0 01-2.16 5.115 7.4 7.4 0 01-5.2 2.12 7.4 7.4 0 01-5.2-2.12 7.153 7.153 0 01-2.16-5.115 7.15 7.15 0 012.16-5.115 7.4 7.4 0 015.2-2.121zm0 1.47a5.934 5.934 0 00-4.163 1.692 5.687 5.687 0 00-1.726 4.074c0 1.589.66 3.03 1.726 4.073a5.934 5.934 0 004.163 1.692 5.934 5.934 0 004.163-1.692 5.687 5.687 0 001.726-4.073c0-1.59-.66-3.03-1.726-4.074a5.934 5.934 0 00-4.163-1.691z"/><path d="M24.671.85a3.56 3.56 0 012.504 1.023 3.456 3.456 0 011.04 2.47 3.507 3.507 0 01-.894 2.315 3.507 3.507 0 01-1.847 1.086l-.222.042v2.912h1.09a.975.975 0 01.97.842l.01.133v1.502a12.47 12.47 0 013.427 1.325l.397.235 1.099-1.078a.983.983 0 011.274-.085l.1.085 2.58 2.533a.971.971 0 01.087 1.291l-.086.097-1.088 1.067c.235.369.449.75.642 1.142l.186.395h6.434c.435.005.832-.167 1.121-.449.253-.246.424-.577.467-.947l.01-.16v-9.75a3.506 3.506 0 01-2.02-1.146 3.507 3.507 0 01-.867-2.287c0-.963.398-1.836 1.04-2.468a3.56 3.56 0 012.505-1.023 3.56 3.56 0 012.504 1.023 3.456 3.456 0 011.04 2.47 3.505 3.505 0 01-.814 2.222 3.505 3.505 0 01-1.69 1.116l-.227.06v9.784a3.043 3.043 0 01-.91 2.148 3.042 3.042 0 01-1.952.872l-.209.006H36.49l.101.36h0l.09.362h1.562a.975.975 0 01.97.842l.01.133v3.582a.975.975 0 01-.848.965l-.132.009h-1.57c-.093.393-.206.782-.338 1.163l-.139.38h6.176a3.043 3.043 0 012.161.878c.51.501.844 1.18.902 1.94l.009.209v9.783a3.505 3.505 0 012.732 3.4c0 .962-.398 1.835-1.04 2.468a3.56 3.56 0 01-2.505 1.023 3.56 3.56 0 01-2.505-1.023 3.456 3.456 0 01-1.04-2.47c.007-.869.33-1.67.868-2.285a3.507 3.507 0 011.78-1.094l.239-.052v-9.748a1.575 1.575 0 00-1.438-1.552l-.162-.006h-6.859l-.201.354h0l-.214.348 1.102 1.081a.972.972 0 01.086 1.292l-.086.097-2.581 2.533a.983.983 0 01-1.274.085l-.1-.086-1.123-1.101a12.462 12.462 0 01-3.355 1.437l-.446.109v1.54a.975.975 0 01-.847.965l-.132.01h-1.09v2.658a3.505 3.505 0 012.809 3.416c0 .963-.397 1.836-1.04 2.469a3.56 3.56 0 01-2.504 1.023 3.56 3.56 0 01-2.504-1.023 3.456 3.456 0 01-1.04-2.47 3.505 3.505 0 012.576-3.359l.233-.056v-2.659h-1.09a.975.975 0 01-.97-.842l-.01-.133V37.07a12.466 12.466 0 01-3.405-1.313l-.395-.233-1.123 1.102a.983.983 0 01-1.274.085l-.1-.086-2.58-2.532a.971.971 0 01-.087-1.292l.086-.097 1.102-1.081-.214-.349h0l-.201-.353H6.728a1.575 1.575 0 00-1.121.448 1.576 1.576 0 00-.467.947l-.01.16v9.767a3.5 3.5 0 011.968 1.161 3.5 3.5 0 01.841 2.255c0 .963-.398 1.836-1.04 2.469a3.56 3.56 0 01-2.505 1.023 3.56 3.56 0 01-2.504-1.024 3.456 3.456 0 01-1.04-2.47 3.505 3.505 0 012.576-3.359l.233-.056v-9.767c.007-.842.355-1.6.91-2.148a3.042 3.042 0 011.952-.872l.209-.006h6.109a11.902 11.902 0 01-.377-1.151l-.1-.392h-1.57a.975.975 0 01-.97-.842l-.01-.132v-3.583a.975.975 0 01.848-.965l.132-.009h1.562l.09-.363h0l.102-.36H6.73a3.043 3.043 0 01-2.162-.877 3.043 3.043 0 01-.901-1.94l-.009-.209V8.859A3.505 3.505 0 011.691 7.7 3.506 3.506 0 01.85 5.442c0-.963.398-1.836 1.04-2.468a3.56 3.56 0 012.504-1.022A3.56 3.56 0 016.9 2.975a3.456 3.456 0 011.04 2.47 3.505 3.505 0 01-.84 2.253 3.505 3.505 0 01-1.736 1.105l-.233.056v9.764a1.575 1.575 0 001.438 1.552l.162.007h6.363c.18-.4.38-.788.6-1.165l.228-.373-1.087-1.067a.972.972 0 01-.087-1.291l.087-.097 2.581-2.533a.983.983 0 011.275-.085l.1.086 1.098 1.078a12.465 12.465 0 013.376-1.451l.449-.11v-1.502a.975.975 0 01.847-.965l.132-.009h1.09V7.722a3.504 3.504 0 01-2.655-3.38c0-.963.397-1.836 1.04-2.469A3.56 3.56 0 0124.67.85zM4.394 43.637c-.572 0-1.09.227-1.466.594a1.99 1.99 0 00-.607 1.427c0 .557.232 1.062.607 1.427a2.09 2.09 0 001.466.594c.573 0 1.092-.227 1.467-.594a1.99 1.99 0 00.607-1.427 1.99 1.99 0 00-.607-1.427 2.095 2.095 0 00-1.467-.594zm20.123 0c-.572 0-1.091.227-1.467.594a1.99 1.99 0 00-.607 1.427c0 .557.233 1.062.607 1.427.376.367.895.594 1.467.594.572 0 1.091-.227 1.467-.594a1.99 1.99 0 00.607-1.427 1.99 1.99 0 00-.607-1.427 2.094 2.094 0 00-1.467-.594zm20.113 0c-.572 0-1.091.227-1.467.594a1.99 1.99 0 00-.607 1.427c0 .557.233 1.062.607 1.427.376.367.895.594 1.467.594.572 0 1.091-.227 1.467-.594a1.99 1.99 0 00.607-1.427 1.99 1.99 0 00-.607-1.427 2.094 2.094 0 00-1.467-.594zM25.85 12.168h-2.667v1.411l-.01.139a.975.975 0 01-.785.818 11.013 11.013 0 00-4.021 1.638.985.985 0 01-1.23-.115h0l-1.035-1.016-1.875 1.84 1.018 1 .092.105a.97.97 0 01.029 1.138 10.542 10.542 0 00-1.655 3.932.978.978 0 01-.96.788h0-1.467v2.59h1.474l.138.01a.979.979 0 01.821.774 10.56 10.56 0 001.663 3.918.969.969 0 01-.12 1.245h0l-1.033 1.015 1.875 1.84L17.16 34.2l.105-.088a.985.985 0 011.123-.03 11.022 11.022 0 004 1.626.975.975 0 01.796.955h0v1.45h2.666v-1.45l.01-.138a.975.975 0 01.786-.817 11.017 11.017 0 004-1.625.985.985 0 011.227.117h0l1.059 1.039 1.875-1.841-1.034-1.015-.093-.105a.97.97 0 01-.026-1.14 10.56 10.56 0 001.662-3.918.979.979 0 01.96-.785h1.474v-2.59l-1.467.001-.138-.01a.978.978 0 01-.822-.777 10.634 10.634 0 00-1.655-3.933.97.97 0 01.121-1.243h0l1.018-1-1.875-1.84-1.035 1.015-.105.089a.984.984 0 01-1.125.028 11.014 11.014 0 00-4.022-1.64.975.975 0 01-.795-.955h0v-1.412zm18.78-8.746c-.572 0-1.091.227-1.467.594a1.99 1.99 0 00-.607 1.427c0 .557.233 1.062.607 1.428.376.367.895.594 1.467.594.572 0 1.091-.227 1.467-.594a1.99 1.99 0 00.607-1.428 1.99 1.99 0 00-.607-1.427 2.094 2.094 0 00-1.467-.594zm-40.236 0c-.572 0-1.09.227-1.466.594a1.99 1.99 0 00-.607 1.427c0 .557.232 1.062.607 1.428a2.09 2.09 0 001.466.594c.573 0 1.092-.227 1.467-.594a1.99 1.99 0 00.607-1.428 1.99 1.99 0 00-.607-1.427 2.094 2.094 0 00-1.467-.594zm20.277-1.101c-.572 0-1.091.227-1.467.594a1.99 1.99 0 00-.607 1.427c0 .557.233 1.061.607 1.427.376.367.895.594 1.467.594.572 0 1.091-.227 1.467-.594a1.99 1.99 0 00.607-1.427 1.99 1.99 0 00-.607-1.427 2.094 2.094 0 00-1.467-.594z"/></g></symbol><symbol id="ico-service-project-managers" viewBox="0 0 50 50"><path d="M46.282 1A2.721 2.721 0 0149 3.718h0V38.99a2.721 2.721 0 01-2.701 2.718h0l-2.404.131v3.315a4.244 4.244 0 01-4.238 4.24h0-8.229a4.212 4.212 0 01-4.065-3.046h0l-1.14-4.48-22.509-.16A2.72 2.72 0 011 38.99h0V3.718A2.721 2.721 0 013.718 1h0zM32.486 25.722a1.11 1.11 0 00-1.11 1.11h0v16.04a.59.59 0 11-1.18 0h0V40.68l-1.016-1.47a3.884 3.884 0 00-3.196-1.678h0l.096.23a20.92 20.92 0 011.174 3.373h0l1.25 4.91a3.039 3.039 0 002.924 2.168h8.23a3.062 3.062 0 003.057-3.059h0v-6.661a.96.96 0 10-1.92 0h0v2.004a.59.59 0 01-1.18 0h0v-2.93a.947.947 0 00-1.873-.204h0v2.522a.59.59 0 01-.59.59h0-.023a.59.59 0 01-.59-.59h0v-2.317c0-.104.008-.208.023-.31h0v-.67a.88.88 0 10-1.76 0h0v3.296a.59.59 0 11-1.181 0h0V37.48a.59.59 0 01-.025-.17h0V26.831a1.11 1.11 0 00-1.11-1.11zM47.82 10.874H2.18V38.99a1.54 1.54 0 001.538 1.537h0l22.187.158a19.744 19.744 0 00-.903-2.442h0l-.1-.223a1.185 1.185 0 011.082-1.668c1.664 0 3.223.817 4.168 2.188h0l.043.062v-11.77a2.29 2.29 0 014.581 0h0v7.908a2.052 2.052 0 012.786 1.01 2.125 2.125 0 013.042.94 2.138 2.138 0 013.291 1.803h0v2.164l2.355-.128h.032a1.54 1.54 0 001.538-1.539h0V10.874zm-37.3 17.221a.59.59 0 010 1.18h0-2.504v5h5.008v-1.589a.59.59 0 111.18 0h0v1.91a.86.86 0 01-.86.86h0-5.648a.86.86 0 01-.86-.86h0v-5.641a.86.86 0 01.86-.86h0zm11.772 5.301a.59.59 0 110 1.18h0-2.016a.59.59 0 010-1.18h0zM14.26 27.63a.59.59 0 01.508.965h0L11.76 32.21l-.024.023a.936.936 0 01-1.25.055h0L9.4 31.41a.59.59 0 11.742-.918h0l.904.731 2.815-3.383a.59.59 0 01.4-.21zm29.045.877a.59.59 0 110 1.18h0-4.795a.59.59 0 110-1.18h0zm-15.55 0a.59.59 0 110 1.18h0-7.479a.59.59 0 110-1.18h0zM10.52 15.587a.59.59 0 010 1.18h0-2.504v5h5.008v-1.589a.59.59 0 011.18 0h0v1.91a.86.86 0 01-.86.86h0-5.648a.86.86 0 01-.86-.86h0v-5.641a.86.86 0 01.86-.86h0zm32.785 5.3a.59.59 0 110 1.181h0-23.029a.59.59 0 010-1.18h0zM14.26 15.123a.59.59 0 01.508.965h0l-3.008 3.615-.024.023a.936.936 0 01-1.25.055h0L9.4 18.902a.59.59 0 11.742-.918h0l.903.73 2.816-3.382a.59.59 0 01.4-.21zm29.045.876a.59.59 0 110 1.18h0-23.029a.59.59 0 010-1.18h0zM46.282 2.18H3.718A1.54 1.54 0 002.18 3.718h0v5.975h45.64V3.718a1.54 1.54 0 00-1.538-1.538h0zM5.938 3.6a2.262 2.262 0 110 4.524 2.262 2.262 0 010-4.524zm5.964 0a2.262 2.262 0 110 4.524 2.262 2.262 0 010-4.524zm5.964 0a2.262 2.262 0 110 4.524 2.262 2.262 0 010-4.524zM5.938 4.78a1.084 1.084 0 10.002 2.167 1.083 1.083 0 00-.002-2.166zm5.964 0a1.084 1.084 0 10.002 2.167 1.083 1.083 0 00-.002-2.166zm5.964 0a1.084 1.084 0 10.002 2.167 1.083 1.083 0 00-.002-2.166z" fill="#6D3BC0" fill-rule="nonzero" stroke="#6D3BC0" stroke-width=".3"/></symbol><symbol id="ico-service-projects" viewBox="0 0 47 48"><path d="M23.063 47.97c-1.795 0-4.38-1.268-6.487-7.336a36.073 36.073 0 01-1.083-3.805l-.098-.42-.41.128a43.806 43.806 0 01-4.214 1.141c-1.893.41-3.58.615-5.015.615-2.585 0-4.322-.654-5.17-1.942-.371-.566-.742-1.551-.381-3.005.683-2.76 3.59-5.805 5.902-7.863.45-.4.917-.8 1.395-1.2l.361-.303-.36-.302c-.479-.4-.957-.8-1.396-1.2C3.795 20.41.897 17.376.205 14.615c-.361-1.454.01-2.44.38-3.005.85-1.288 2.586-1.942 5.171-1.942 1.434 0 3.122.205 5.015.615 1.317.283 2.741.673 4.224 1.141l.41.127.097-.42a36.073 36.073 0 011.083-3.804C18.683 1.268 21.268 0 23.063 0c1.796 0 4.38 1.268 6.488 7.337.43 1.248.79 2.526 1.083 3.804l.098.42.41-.127a43.206 43.206 0 014.224-1.141c1.893-.41 3.58-.615 5.014-.615 2.586 0 4.322.654 5.171 1.942.371.565.742 1.55.38 3.004-.682 2.761-3.59 5.805-5.902 7.864-.449.4-.917.8-1.395 1.2l-.36.302.36.303c.488.4.956.81 1.395 1.2 2.312 2.068 5.21 5.102 5.903 7.863.36 1.454-.01 2.44-.38 3.005-.85 1.288-2.586 1.941-5.172 1.941-1.434 0-3.121-.204-5.014-.614a47.007 47.007 0 01-4.225-1.142l-.41-.126-.097.419a35.094 35.094 0 01-1.083 3.805c-2.107 6.049-4.692 7.327-6.488 7.327zm-.165-14.555a74.815 74.815 0 01-5.6 2.341l-.322.117.068.332a35.795 35.795 0 001.083 3.883c1.375 3.96 3.18 6.224 4.927 6.224 1.756 0 3.55-2.273 4.926-6.224.44-1.268.8-2.576 1.093-3.883l.068-.332-.321-.117a69.423 69.423 0 01-5.6-2.341l-.166-.078-.156.078zM8.966 25.229a43.277 43.277 0 00-1.756 1.493c-1.747 1.56-4.78 4.556-5.395 7.034-.264 1.054.058 1.542.156 1.698.517.78 1.805 1.2 3.707 1.2 2.37 0 5.512-.615 9.073-1.766l.322-.108-.058-.331a56.366 56.366 0 01-.683-5.688l-.01-.195-.166-.107a66.107 66.107 0 01-4.702-3.24l-.244-.185-.244.195zm27.717-.01a69.499 69.499 0 01-4.703 3.24l-.165.107-.01.195a59.323 59.323 0 01-.683 5.688l-.059.331.322.108c3.561 1.151 6.703 1.766 9.074 1.766 1.912 0 3.19-.41 3.707-1.2.107-.156.42-.644.156-1.698-.537-2.156-2.898-4.693-4.654-6.351h.02l-.761-.683a49.604 49.604 0 00-1.756-1.493l-.234-.195-.254.186zM16.137 30.39c.117 1.151.263 2.283.448 3.376l.078.468.45-.166a64.531 64.531 0 003.287-1.327l.234-.097v-.498l-.214-.107a74.04 74.04 0 01-1.903-1.005c-.605-.332-1.21-.673-1.795-1.005l-.663-.38.078.741zm13.278-.38a61.85 61.85 0 01-1.795 1.005c-.625.341-1.269.683-1.903 1.005l-.732.38.761.332a68.37 68.37 0 003.288 1.327l.44.165.077-.468c.176-1.073.332-2.205.449-3.376l.078-.76-.663.39zm-6.517-13.464a74.84 74.84 0 00-3.59 1.854 99.188 99.188 0 00-3.21 1.854l-.176.107-.01.205a65.907 65.907 0 000 6.83l.01.204.176.107a81.88 81.88 0 006.8 3.708l.165.078.166-.078a90.933 90.933 0 003.59-1.854 99.188 99.188 0 003.21-1.854l.176-.107.01-.205a66.189 66.189 0 000-6.83l-.01-.204-.176-.107a89.707 89.707 0 00-3.21-1.854 84.971 84.971 0 00-3.59-1.854l-.166-.078-.165.078zm-9.318 5.308a74.725 74.725 0 00-2.595 1.814l-.429.312.43.313c.819.605 1.697 1.22 2.594 1.814l.625.42-.02-.751c-.02-.586-.029-1.19-.02-1.796 0-.585.01-1.19.02-1.795l.02-.75-.625.419zm18.361.341c.02.595.02 1.19.02 1.795 0 .586-.01 1.19-.02 1.795l-.019.752.624-.42c.888-.595 1.766-1.2 2.595-1.815l.43-.312-.43-.312a70.92 70.92 0 00-2.595-1.815l-.624-.42.02.752zm.137-2.624a66.686 66.686 0 014.605 3.18l.244.186.234-.196a42.139 42.139 0 001.756-1.492c1.746-1.561 4.78-4.556 5.395-7.034.264-1.054-.058-1.532-.156-1.698-.517-.79-1.805-1.2-3.717-1.2-2.37 0-5.512.615-9.073 1.766l-.322.107.058.332c.313 1.795.547 3.707.683 5.688l.03.36h.263zM7.21 21.249a48.24 48.24 0 001.756 1.492l.234.196.244-.186a68.41 68.41 0 014.702-3.239l.166-.107.01-.195c.146-1.971.37-3.883.683-5.688l.058-.332-.322-.107c-3.56-1.161-6.702-1.766-9.073-1.766-1.912 0-3.19.41-3.707 1.2-.107.156-.42.644-.156 1.698.536 2.156 2.897 4.692 4.654 6.35h-.02l.77.684zm9.366-7.044a57.672 57.672 0 00-.45 3.375l-.077.761.663-.38a89.435 89.435 0 013.698-2.01l.731-.38-.76-.332a64.531 64.531 0 00-3.288-1.327l-.45-.166-.067.459zm11.044 2.741c.595.332 1.2.664 1.795 1.005l.663.38-.078-.76a54.524 54.524 0 00-.449-3.376l-.078-.468-.449.166c-1.063.4-2.165.839-3.287 1.327l-.752.331.732.38c.546.284 1.103.576 1.659.879l.244.136zM23.063 1.66c-1.756 0-3.55 2.273-4.926 6.224a35.842 35.842 0 00-1.093 3.883l-.068.332.322.117a67.981 67.981 0 015.6 2.341l.165.078.166-.078a73.142 73.142 0 015.6-2.341l.322-.117-.068-.332a33.753 33.753 0 00-1.093-3.883c-1.375-3.961-3.17-6.224-4.927-6.224z" fill="#6D3BC0" fill-rule="nonzero"/></symbol></svg>